<svg width="49" height="50" viewBox="0 0 49 50" fill="none" xmlns="http://www.w3.org/2000/svg">
<path d="M27.0605 48.0662L27.0334 48.0693L27.0065 48.0737C26.1075 48.2236 25.1961 48.2259 24.1888 48.2259C23.0638 48.2259 22.0688 48.1 20.8965 47.9518C20.7725 47.9361 20.6466 47.9202 20.5183 47.9041C9.40753 46.1499 1.00009 36.6218 1.00009 25.0278V24.0333C1.00009 11.326 11.3217 1.00098 24.0231 1.00098C30.3831 1.00098 36.2515 3.54554 40.3673 7.82131L40.3739 7.82811L40.3805 7.83478C44.6881 12.144 47.3775 17.8639 47.3775 24.1991V25.1935C47.3775 36.9509 38.4807 46.7968 27.0605 48.0662Z" stroke="white" stroke-width="2"/>
<path d="M26.7637 17.9948V21.3247H31.8546L30.9819 26.8262H26.7637V39.8562C25.891 40.001 25.0183 40.001 24.1455 40.001C22.9819 40.001 21.9637 39.8562 20.8001 39.7114V26.6815H16.0001L16.1455 21.1799H20.9455V16.4023C20.9455 12.7828 24.1455 8.58428 32.0001 10.4664V15.0993H29.6728C27.9274 15.244 26.7637 16.4023 26.7637 17.9948Z" fill="white"/>
</svg>
