<svg width="49" height="50" viewBox="0 0 49 50" fill="none" xmlns="http://www.w3.org/2000/svg">
<path d="M24.0233 48.0591C11.3218 48.0591 1.00024 37.7341 1.00024 25.0268V24.0324C1.00024 11.325 11.3218 1 24.0233 1C36.7247 1 47.0463 11.325 47.0463 24.0324V24.8611C47.0463 37.7386 36.7203 48.0591 24.0233 48.0591Z" stroke="white" stroke-width="2"/>
<path d="M24.0885 20.0554C26.5736 20.0554 28.3961 22.0443 28.3961 24.3647C28.3961 26.8508 26.408 28.6739 24.0885 28.6739C21.769 28.6739 19.7809 26.6851 19.7809 24.3647C19.6152 22.0443 21.6034 20.0554 24.0885 20.0554ZM24.0885 17.5693C20.2779 17.5693 17.2958 20.5527 17.2958 24.3647C17.2958 28.1767 20.2779 31.16 24.0885 31.16C27.899 31.16 30.8812 28.1767 30.8812 24.3647C30.8812 20.7184 27.7334 17.5693 24.0885 17.5693Z" fill="white"/>
<path d="M29.8873 13.5919C32.5381 13.5919 34.8576 15.7465 34.8576 18.5641V30.1659C34.8576 32.8177 32.7038 35.1381 29.8873 35.1381H18.29C15.6392 35.1381 13.3197 32.9835 13.3197 30.1659V18.5641C13.3197 15.9122 15.4735 13.5919 18.29 13.5919H29.8873ZM29.8873 11.2715H18.29C14.3138 11.2715 11.0002 14.5863 11.0002 18.5641V30.1659C11.0002 34.1437 14.3138 37.4585 18.29 37.4585H29.8873C33.8636 37.4585 37.1771 34.1437 37.1771 30.1659V18.5641C37.1771 14.5863 33.8636 11.2715 29.8873 11.2715Z" fill="white"/>
<path d="M31.2124 18.8954C32.1274 18.8954 32.8692 18.1533 32.8692 17.238C32.8692 16.3226 32.1274 15.5806 31.2124 15.5806C30.2974 15.5806 29.5557 16.3226 29.5557 17.238C29.5557 18.1533 30.2974 18.8954 31.2124 18.8954Z" fill="white"/>
</svg>
