<svg width="49" height="50" viewBox="0 0 49 50" fill="none" xmlns="http://www.w3.org/2000/svg">
<path d="M47.0461 25.0273H47.046L47.0462 25.0396C47.2049 37.9007 36.8926 48.2254 24.023 48.2254C11.3261 48.2254 1 37.9048 1 25.0273V24.0328C1 11.3255 11.3216 1.00049 24.023 1.00049C36.7245 1.00049 47.0461 11.3255 47.0461 24.0328V25.0273Z" stroke="white" stroke-width="2"/>
<path d="M14.9822 18.9671C16.6292 18.9671 17.9643 17.6315 17.9643 15.9838C17.9643 14.3362 16.6292 13.0005 14.9822 13.0005C13.3352 13.0005 12 14.3362 12 15.9838C12 17.6315 13.3352 18.9671 14.9822 18.9671Z" fill="white"/>
<path d="M17.4673 20.9565H12.497V37.0334H17.4673V20.9565Z" fill="white"/>
<path d="M25.2542 23.1104V20.9558H20.4496V37.0326H25.2542V30.7345C25.2542 27.9169 25.5855 26.591 26.2483 25.928C27.2423 24.7678 29.0647 24.6021 30.0588 25.7623C30.5558 26.4253 30.8872 27.254 30.8872 28.2484V37.1984H36.0231V28.7456C36.0231 22.6132 33.7037 20.9558 30.8872 20.7901C30.7215 20.7901 30.7215 20.7901 30.5558 20.7901C29.0647 20.2929 26.7453 20.6243 25.2542 23.1104Z" fill="white"/>
</svg>
