<svg width="49" height="50" viewBox="0 0 49 50" fill="none" xmlns="http://www.w3.org/2000/svg">
<path d="M24.0234 48.0591C11.322 48.0591 1.00037 37.7341 1.00037 25.0268V24.0324C1.00037 11.325 11.322 1 24.0234 1C36.7249 1 47.0465 11.325 47.0465 24.0324V24.8611C47.0465 37.7386 36.7204 48.0591 24.0234 48.0591Z" stroke="white" stroke-width="2"/>
<path d="M34.0292 17.3158C35.1889 16.4871 35.8516 15.9899 36.3487 14.3325C36.3487 14.3325 34.1949 15.6584 32.8695 15.6584C31.8754 14.6639 30.55 14.001 28.8932 14.001C25.9111 14.001 23.5916 16.4871 23.5916 19.3047C23.5916 19.6361 23.5916 20.1334 23.7573 20.4648C17.9586 20.7963 12.8226 14.8297 12.8226 14.8297C11.0002 18.6417 12.9883 20.9621 14.3137 22.1223C13.651 21.9565 12.8226 21.9565 11.9943 21.4593C11.9943 22.6195 12.1599 25.4371 16.1362 26.763C15.4735 26.9287 14.6451 26.9287 13.8167 26.763C13.8167 26.763 14.4794 30.2435 18.787 30.575C16.7989 32.0667 14.6451 33.0611 11.0002 32.7296C13.8167 34.387 19.1183 36.8731 25.9111 33.7241L27.0708 33.0611C31.3784 30.575 34.1949 25.9343 34.5262 20.9621L34.6919 18.9732C35.686 18.476 37.0114 16.9843 37.3427 16.3213C36.0173 16.9843 35.1889 17.3158 34.0292 17.3158Z" fill="white"/>
</svg>
