<svg width="49" height="50" viewBox="0 0 49 50" fill="none" xmlns="http://www.w3.org/2000/svg">
<path d="M24.4596 48.9467C11.7581 48.9467 1.43652 38.6217 1.43652 25.9144V24.9199C1.43652 12.2126 11.7581 1.88757 24.4596 1.88757C37.161 1.88757 47.4826 12.2126 47.4826 24.9199V25.7486C47.4826 38.6262 37.1565 48.9467 24.4596 48.9467Z" stroke="#30104C" stroke-width="2"/>
<g clip-path="url(#clip0_15704_930)">
<path d="M14.2688 21.9699C15.1753 21.0635 16.4046 20.5542 17.6865 20.5542H21.3115C21.9789 20.5542 22.5199 20.0133 22.5199 19.3459C22.5199 18.6786 21.9789 18.1376 21.3115 18.1376H17.6865C15.7637 18.1376 13.9196 18.9014 12.56 20.261C11.2004 21.6207 10.4365 23.4648 10.4365 25.3876C10.4365 27.3104 11.2004 29.1545 12.56 30.5141C13.2332 31.1873 14.0325 31.7214 14.9121 32.0857C15.7917 32.45 16.7344 32.6376 17.6865 32.6376H21.3115C21.9789 32.6376 22.5199 32.0966 22.5199 31.4292C22.5199 30.7619 21.9789 30.2209 21.3115 30.2209H17.6865C17.0518 30.2209 16.4233 30.0959 15.8369 29.853C15.2505 29.6101 14.7177 29.2541 14.2688 28.8053C13.3624 27.8988 12.8532 26.6695 12.8532 25.3876C12.8532 24.1057 13.3624 22.8763 14.2688 21.9699Z" fill="#30104C"/>
<path d="M28.5615 18.1376C27.8942 18.1376 27.3532 18.6786 27.3532 19.3459C27.3532 20.0133 27.8942 20.5542 28.5615 20.5542H32.1865C32.8212 20.5542 33.4498 20.6793 34.0362 20.9222C34.6226 21.1651 35.1554 21.5211 35.6042 21.9699C36.053 22.4187 36.409 22.9515 36.6519 23.5379C36.8948 24.1243 37.0199 24.7529 37.0199 25.3876C37.0199 26.0223 36.8948 26.6508 36.6519 27.2372C36.409 27.8236 36.053 28.3564 35.6042 28.8053C35.1554 29.2541 34.6226 29.6101 34.0362 29.853C33.4498 30.0959 32.8212 30.2209 32.1865 30.2209H28.5615C27.8942 30.2209 27.3532 30.7619 27.3532 31.4292C27.3532 32.0966 27.8942 32.6376 28.5615 32.6376H32.1865C33.1386 32.6376 34.0814 32.45 34.961 32.0857C35.8406 31.7214 36.6398 31.1873 37.313 30.5141C37.9863 29.8409 38.5203 29.0416 38.8847 28.162C39.249 27.2824 39.4365 26.3397 39.4365 25.3876C39.4365 24.4355 39.249 23.4927 38.8847 22.6131C38.5203 21.7335 37.9863 20.9343 37.313 20.261C36.6398 19.5878 35.8406 19.0538 34.961 18.6894C34.0814 18.3251 33.1386 18.1376 32.1865 18.1376H28.5615Z" fill="#30104C"/>
<path d="M20.1032 24.1792C19.4358 24.1792 18.8949 24.7202 18.8949 25.3876C18.8949 26.0549 19.4358 26.5959 20.1032 26.5959H29.7699C30.4372 26.5959 30.9782 26.0549 30.9782 25.3876C30.9782 24.7202 30.4372 24.1792 29.7699 24.1792H20.1032Z" fill="#30104C"/>
</g>
<defs>
<clipPath id="clip0_15704_930">
<rect width="29" height="29" fill="white" transform="translate(10.4365 10.8876)"/>
</clipPath>
</defs>
</svg>
