<svg width="49" height="50" viewBox="0 0 49 50" fill="none" xmlns="http://www.w3.org/2000/svg">
<path d="M24.5055 48.9467C11.804 48.9467 1.48242 38.6217 1.48242 25.9144V24.9199C1.48242 12.2126 11.804 1.88757 24.5055 1.88757C37.2069 1.88757 47.5285 12.2126 47.5285 24.9199V25.7486C47.5285 38.6262 37.2024 48.9467 24.5055 48.9467Z" stroke="#30104C" stroke-width="2"/>
<path fill-rule="evenodd" clip-rule="evenodd" d="M10.6906 18.1166C10.6904 18.1285 10.6904 18.1405 10.6905 18.1524V32.6376C10.6905 34.6341 12.319 36.2626 14.3155 36.2626H33.6489C35.6454 36.2626 37.2739 34.6341 37.2739 32.6376V18.1525C37.274 18.1405 37.274 18.1285 37.2738 18.1164C37.2624 16.1296 35.6383 14.5126 33.6489 14.5126H14.3155C12.326 14.5126 10.7019 16.1297 10.6906 18.1166ZM13.236 17.5986C13.4358 17.2034 13.8467 16.9292 14.3155 16.9292H33.6489C34.1177 16.9292 34.5286 17.2034 34.7284 17.5986L23.9822 25.1209L13.236 17.5986ZM34.8572 20.4584V32.6376C34.8572 33.2994 34.3107 33.8459 33.6489 33.8459H14.3155C13.6537 33.8459 13.1072 33.2994 13.1072 32.6376V20.4584L23.2893 27.5858C23.7053 27.877 24.2591 27.877 24.6751 27.5858L34.8572 20.4584Z" fill="#30104C"/>
</svg>
