<svg width="49" height="51" viewBox="0 0 49 51" fill="none" xmlns="http://www.w3.org/2000/svg">
<path d="M27.6835 48.9528L27.6564 48.9559L27.6295 48.9603C26.7304 49.1102 25.819 49.1125 24.8118 49.1125C23.6867 49.1125 22.6918 48.9866 21.5195 48.8384C21.3955 48.8227 21.2695 48.8068 21.1412 48.7907C10.0305 47.0365 1.62305 37.5084 1.62305 25.9144V24.9199C1.62305 12.2126 11.9446 1.88757 24.6461 1.88757C31.006 1.88757 36.8745 4.43214 40.9903 8.70791L40.9968 8.71471L41.0035 8.72138C45.3111 13.0306 48.0005 18.7505 48.0005 25.0857V26.0801C48.0005 37.8375 39.1036 47.6834 27.6835 48.9528Z" stroke="#30104C" stroke-width="2"/>
<path d="M27.3867 18.8814V22.2113H32.4776L31.6049 27.7128H27.3867V40.7428C26.514 40.8876 25.6412 40.8876 24.7685 40.8876C23.6049 40.8876 22.5867 40.7428 21.4231 40.598V27.5681H16.623L16.7685 22.0665H21.5685V17.2889C21.5685 13.6694 24.7685 9.47088 32.623 11.353V15.9859H30.2958C28.5503 16.1306 27.3867 17.2889 27.3867 18.8814Z" fill="#30104C"/>
</svg>
