<svg width="49" height="51" viewBox="0 0 49 51" fill="none" xmlns="http://www.w3.org/2000/svg">
<path d="M47.5744 25.9144H47.5743L47.5745 25.9267C47.7332 38.7878 37.4209 49.1125 24.5514 49.1125C11.8544 49.1125 1.52832 38.7919 1.52832 25.9144V24.9199C1.52832 12.2126 11.8499 1.88757 24.5514 1.88757C37.2528 1.88757 47.5744 12.2126 47.5744 24.9199V25.9144Z" stroke="#30104C" stroke-width="2"/>
<path d="M15.5105 19.8543C17.1575 19.8543 18.4927 18.5187 18.4927 16.871C18.4927 15.2234 17.1575 13.8877 15.5105 13.8877C13.8635 13.8877 12.5283 15.2234 12.5283 16.871C12.5283 18.5187 13.8635 19.8543 15.5105 19.8543Z" fill="#30104C"/>
<path d="M17.9947 21.8428H13.0244V37.9196H17.9947V21.8428Z" fill="#30104C"/>
<path d="M25.7822 23.9986V21.844H20.9775V37.9208H25.7822V31.6227C25.7822 28.8051 26.1135 27.4792 26.7762 26.8162C27.7703 25.656 29.5927 25.4903 30.5868 26.6505C31.0838 27.3134 31.4151 28.1421 31.4151 29.1366V38.0866H36.5511V29.6338C36.5511 23.5014 34.2316 21.844 31.4151 21.6783C31.2495 21.6783 31.2495 21.6783 31.0838 21.6783C29.5927 21.181 27.2732 21.5125 25.7822 23.9986Z" fill="#30104C"/>
</svg>
