<svg width="49" height="50" viewBox="0 0 49 50" fill="none" xmlns="http://www.w3.org/2000/svg">
<path d="M24.6002 48.9467C11.8987 48.9467 1.57715 38.6217 1.57715 25.9144V24.9199C1.57715 12.2126 11.8987 1.88757 24.6002 1.88757C37.3016 1.88757 47.6233 12.2126 47.6233 24.9199V25.7486C47.6233 38.6262 37.2972 48.9467 24.6002 48.9467Z" stroke="#30104C" stroke-width="2"/>
<path d="M34.6061 18.2024C35.7659 17.3737 36.4286 16.8765 36.9256 15.2191C36.9256 15.2191 34.7718 16.545 33.4464 16.545C32.4524 15.5505 31.1269 14.8876 29.4702 14.8876C26.488 14.8876 24.1685 17.3737 24.1685 20.1913C24.1685 20.5227 24.1685 21.02 24.3342 21.3514C18.5356 21.6829 13.3996 15.7163 13.3996 15.7163C11.5771 19.5283 13.5653 21.8487 14.8907 23.0088C14.228 22.8431 13.3996 22.8431 12.5712 22.3459C12.5712 23.5061 12.7369 26.3237 16.7131 27.6496C16.0504 27.8153 15.222 27.8153 14.3937 27.6496C14.3937 27.6496 15.0564 31.1301 19.3639 31.4616C17.3758 32.9533 15.222 33.9477 11.5771 33.6162C14.3936 35.2736 19.6953 37.7597 26.488 34.6107L27.6477 33.9477C31.9553 31.4616 34.7718 26.8209 35.1032 21.8487L35.2688 19.8598C36.2629 19.3626 37.5883 17.8709 37.9197 17.2079C36.5943 17.8709 35.7659 18.2024 34.6061 18.2024Z" fill="#30104C"/>
</svg>
