<svg width="278" height="80" viewBox="0 0 278 80" fill="none" xmlns="http://www.w3.org/2000/svg">
<path d="M79.7822 45.7899V26.0469H89.2984V60.4686H80.1595V54.1799H79.8048C79.0559 56.1625 77.7078 57.8616 75.9485 59.0401C74.0116 60.3009 71.7375 60.9416 69.4283 60.8768C67.311 60.9174 65.223 60.3763 63.3911 59.3122C61.6333 58.2484 60.2186 56.7002 59.3159 54.8526C58.2804 52.697 57.7635 50.3283 57.8066 47.9365V26.0166H67.2851V46.2358C67.203 47.9892 67.7852 49.7089 68.9152 51.0506C69.4606 51.6369 70.1259 52.0984 70.8656 52.4036C71.6054 52.7089 72.4022 52.8507 73.2016 52.8194C74.319 52.8361 75.4232 52.5765 76.4164 52.0635C77.4338 51.5214 78.2766 50.7009 78.8464 49.6977C79.5126 48.5066 79.8365 47.154 79.7822 45.7899Z" fill="#30104C"/>
<path d="M96.8978 60.4686V26.0469H106.127V32.0484H106.482C106.969 30.1322 108.075 28.4313 109.629 27.2109C111.095 26.1168 112.879 25.5353 114.708 25.5556C115.212 25.5589 115.716 25.5892 116.217 25.6463C116.707 25.6965 117.194 25.7798 117.673 25.8957V34.3538C117.065 34.1859 116.444 34.0671 115.817 33.9985C115.097 33.8978 114.371 33.8448 113.644 33.8398C112.329 33.8124 111.029 34.1248 109.87 34.7468C108.795 35.3343 107.9 36.2045 107.282 37.2638C106.66 38.3988 106.358 39.6815 106.406 40.9751V60.4686H96.8978Z" fill="#30104C"/>
<path d="M122.616 60.4686V26.0469H131.846V32.0484H132.201C132.688 30.1302 133.797 28.4285 135.355 27.2109C136.825 26.1133 138.616 25.5339 140.449 25.5631C140.953 25.5665 141.457 25.5967 141.958 25.6538C142.449 25.7041 142.935 25.7874 143.415 25.9033V34.3538C142.806 34.1859 142.186 34.0671 141.558 33.9985C140.841 33.8981 140.117 33.8451 139.392 33.8398C138.078 33.8107 136.778 34.1231 135.619 34.7468C134.543 35.3356 133.646 36.2054 133.023 37.2638C132.375 38.3914 132.047 39.6744 132.072 40.9751V60.4686H122.616Z" fill="#30104C"/>
<path d="M158.063 61.0733C156.051 61.1124 154.055 60.7207 152.206 59.9244C150.551 59.2009 149.14 58.0114 148.146 56.5004C147.097 54.7982 146.572 52.8236 146.637 50.8239C146.583 49.1582 146.946 47.5055 147.694 46.0166C148.366 44.7449 149.35 43.6655 150.554 42.8798C151.832 42.0637 153.234 41.4588 154.704 41.0884C156.299 40.6759 157.924 40.3928 159.564 40.2419C161.577 40.0302 163.187 39.8312 164.394 39.6447C165.329 39.5574 166.235 39.2714 167.051 38.8057C167.321 38.626 167.539 38.3788 167.685 38.0885C167.831 37.7982 167.898 37.4748 167.881 37.1504V37.037C167.916 36.424 167.814 35.8109 167.583 35.2422C167.352 34.6734 166.997 34.1634 166.545 33.7491C165.474 32.9081 164.13 32.4935 162.772 32.585C161.322 32.5097 159.886 32.9075 158.681 33.7188C157.714 34.4084 157.007 35.4043 156.674 36.5457L147.867 35.7899C148.278 33.787 149.186 31.9203 150.509 30.3628C151.886 28.7859 153.63 27.5735 155.587 26.833C157.896 25.9611 160.35 25.5378 162.817 25.5858C164.667 25.5799 166.51 25.8059 168.303 26.2585C169.971 26.6676 171.553 27.3715 172.975 28.3371C174.326 29.2663 175.434 30.5083 176.205 31.9577C177.038 33.5934 177.445 35.4133 177.389 37.2487V60.4686H168.333V55.6614H168.062C167.51 56.7354 166.76 57.6947 165.851 58.4883C164.875 59.3338 163.745 59.9808 162.523 60.393C161.084 60.8672 159.577 61.0971 158.063 61.0733ZM160.787 54.4974C162.079 54.5294 163.359 54.2439 164.515 53.6659C165.544 53.1486 166.417 52.3659 167.043 51.3983C167.657 50.4302 167.975 49.3028 167.956 48.1557V44.4898C167.578 44.7219 167.169 44.9 166.741 45.0189C166.228 45.1776 165.647 45.3137 165.013 45.4422C164.379 45.5707 163.73 45.6841 163.089 45.7823L161.345 46.0393C160.341 46.1636 159.357 46.4176 158.417 46.7952C157.656 47.1014 156.985 47.5985 156.47 48.2389C155.992 48.8954 155.75 49.6946 155.784 50.5064C155.751 51.0801 155.864 51.6528 156.112 52.1709C156.36 52.689 156.735 53.1358 157.202 53.4694C158.259 54.1823 159.514 54.5421 160.787 54.4974Z" fill="#30104C"/>
<path d="M193.048 40.5518V60.4686H183.525V26.0469H192.581V32.0937H192.988C193.71 30.1349 195.051 28.4656 196.807 27.3394C198.754 26.1217 201.017 25.5089 203.312 25.5782C205.493 25.5262 207.647 26.0669 209.545 27.1429C211.324 28.2023 212.76 29.7534 213.681 31.61C214.719 33.772 215.229 36.1504 215.167 38.5487V60.4686H205.651V40.2419C205.77 38.4494 205.191 36.6803 204.036 35.3061C203.46 34.7024 202.761 34.2305 201.986 33.9226C201.211 33.6148 200.379 33.4782 199.546 33.5223C198.366 33.5005 197.201 33.7871 196.165 34.3537C195.189 34.9116 194.4 35.7485 193.901 36.7574C193.323 37.9375 193.031 39.2374 193.048 40.5518Z" fill="#30104C"/>
<path d="M239.648 26.0469V33.2124H218.978V26.0469H239.648ZM223.672 17.8156H233.189V49.8866C233.15 50.5921 233.287 51.2962 233.589 51.935C233.836 52.3773 234.228 52.7214 234.698 52.9101C235.236 53.1102 235.807 53.2077 236.381 53.1973C236.831 53.1983 237.281 53.1578 237.724 53.0764L238.75 52.8874L240.26 59.9773C239.784 60.1285 239.113 60.3024 238.252 60.5064C237.215 60.73 236.159 60.854 235.098 60.8768C233.043 61.0072 230.984 60.6927 229.061 59.9547C227.426 59.3112 226.034 58.1689 225.084 56.6894C224.071 55.0057 223.58 53.0592 223.672 51.096V17.8156Z" fill="#30104C"/>
<path d="M249.889 60.6803C252.365 60.6803 254.372 58.6701 254.372 56.1905C254.372 53.7108 252.365 51.7007 249.889 51.7007C247.413 51.7007 245.406 53.7108 245.406 56.1905C245.406 58.6701 247.413 60.6803 249.889 60.6803Z" fill="#2565F4"/>
<path d="M36.7065 61.1565C33.4135 61.2503 30.1572 60.4428 27.2884 58.8209C24.6888 57.2868 22.5911 55.0282 21.2511 52.3205C19.8076 49.3359 19.0887 46.0519 19.1532 42.7362C19.0812 39.3978 19.8083 36.0907 21.2738 33.0914C22.6238 30.3927 24.7193 28.1391 27.311 26.5986C30.1571 24.9815 33.3902 24.1739 36.6612 24.263C39.4794 24.1974 42.2752 24.7792 44.8341 25.9637C47.0852 27.0128 49.0062 28.6597 50.3884 30.7256C51.7888 32.8787 52.572 35.3756 52.6523 37.9441H43.3022C43.1115 36.312 42.3778 34.7917 41.2193 33.6281C40.6325 33.0743 39.9408 32.6438 39.1852 32.3621C38.4295 32.0804 37.6252 31.9532 36.8197 31.9879C35.3822 31.9677 33.9767 32.4131 32.8124 33.2577C31.6173 34.1832 30.707 35.4277 30.1862 36.8481C29.5062 38.6848 29.181 40.6342 29.2278 42.5926C29.1787 44.5745 29.4986 46.5482 30.1712 48.4127C30.693 49.8594 31.6174 51.1262 32.8351 52.0635C34.0015 52.9078 35.411 53.3483 36.8499 53.3182C37.9108 53.3386 38.9604 53.0972 39.9062 52.6153C40.8247 52.1499 41.6053 51.4514 42.1702 50.5896C42.7952 49.6137 43.1972 48.5116 43.3474 47.362H52.6372C52.5409 49.9164 51.7758 52.4006 50.4186 54.5654C49.0737 56.6521 47.1842 58.3303 44.9549 59.418C42.3784 60.634 39.5537 61.2294 36.7065 61.1565Z" fill="#30104C"/>
<path d="M32.6238 35.9184C32.6699 32.2222 31.6534 28.5908 29.6957 25.4573C27.5673 26.2409 25.6466 27.5028 24.0811 29.1459C25.3262 29.9018 25.7941 33.1746 25.7941 33.1746C26.8657 39.1157 22.9264 41.2472 22.9264 41.2472C21.4499 42.1402 20.1855 43.3448 19.2211 44.777C19.2211 44.9433 19.2814 45.4497 19.3192 45.7445C19.5868 48.3377 20.3885 50.8471 21.6737 53.1141C22.3367 54.2784 23.1457 55.3529 24.0811 56.3114C24.2848 56.5155 24.6319 56.8556 24.8357 57.0673L24.5037 56.4853C24.1871 55.9736 23.9337 55.4254 23.749 54.8526C23.4775 54.1922 23.3564 53.4796 23.3943 52.7664C23.749 48.3749 27.9222 45.6538 27.9222 45.6538C29.3399 44.4488 30.4905 42.9603 31.3002 41.2837C32.1098 39.6072 32.5606 37.7797 32.6238 35.9184Z" fill="#2565F4"/>
</svg>
