<svg width="140" height="1264" viewBox="0 0 140 1264" fill="none" xmlns="http://www.w3.org/2000/svg">
<path fill-rule="evenodd" clip-rule="evenodd" d="M258.872 61.3975C297.867 80.0558 317.543 -27.0848 348.529 15.703C377.407 55.5785 418.553 243.474 432.467 301.108C447.132 361.85 449.717 429.928 437.744 492.714C425.55 556.658 357.538 691.219 357.538 691.219C350.656 691.144 306.822 834.218 250.273 852.88C193.663 871.563 141.886 798.053 97.4981 738.66C54.8143 681.547 8.78736 613.669 3.97138 523.315C-0.655742 436.505 56.2711 376.515 73.788 293.825C91.2076 211.595 63.1094 97.7687 105.357 44.7151C147.339 -8.00619 208.523 37.3067 258.872 61.3975Z" fill="#F5F0F9"/>
<path d="M176.846 2.18497C208.725 123.161 -19.4203 211.922 15.9535 407.637C51.3273 603.352 287.577 1313.27 245.99 1258.14" stroke="#D5C2E7" stroke-width="4" stroke-linejoin="round"/>
</svg>
