<svg width="106" height="106" viewBox="0 0 106 106" fill="none" xmlns="http://www.w3.org/2000/svg">
<mask id="mask0_16684_7494" style="mask-type:alpha" maskUnits="userSpaceOnUse" x="66" y="9" width="31" height="32">
<path d="M92.2334 14.5923C98.3072 20.6661 98.4564 30.3644 92.5667 36.2542C86.6769 42.1439 76.9786 41.9947 70.9048 35.9209C64.831 29.8471 64.6818 20.1488 70.5715 14.259C76.4613 8.36928 86.1596 8.51848 92.2334 14.5923Z" fill="black"/>
</mask>
<g mask="url(#mask0_16684_7494)">
<rect x="58.5994" y="1.97607" width="46.923" height="46.923" fill="#4780FF" fill-opacity="0.55"/>
</g>
<mask id="mask1_16684_7494" style="mask-type:alpha" maskUnits="userSpaceOnUse" x="43" y="43" width="53" height="53">
<path d="M87.9006 51.095C98.3817 61.5762 98.6392 78.3121 88.4756 88.4756C78.3121 98.6392 61.5762 98.3817 51.095 87.9006C40.6138 77.4194 40.3563 60.6835 50.5199 50.5199C60.6835 40.3563 77.4194 40.6138 87.9006 51.095Z" fill="black"/>
</mask>
<g mask="url(#mask1_16684_7494)">
<rect x="14.4337" y="42.2385" width="106" height="106" fill="#D8F3E2" fill-opacity="0.96"/>
</g>
<mask id="mask2_16684_7494" style="mask-type:alpha" maskUnits="userSpaceOnUse" x="9" y="9" width="74" height="74">
<path d="M71.9603 20.5789C86.1489 34.7675 86.1489 57.7717 71.9603 71.9603C57.7717 86.1489 34.7675 86.1489 20.5789 71.9603C6.39035 57.7717 6.39035 34.7675 20.5789 20.5789C34.7675 6.39035 57.7717 6.39035 71.9603 20.5789Z" fill="black"/>
</mask>
<g mask="url(#mask2_16684_7494)">
<rect width="106" height="106" fill="#A163D9" fill-opacity="0.3"/>
</g>
<path d="M19.875 86.125C19.875 79.0968 22.667 72.3564 27.6367 67.3867C32.6064 62.417 39.3468 59.625 46.375 59.625C53.4032 59.625 60.1436 62.417 65.1133 67.3867C70.083 72.3564 72.875 79.0968 72.875 86.125H66.25C66.25 80.8538 64.156 75.7985 60.4287 72.0713C56.7015 68.344 51.6462 66.25 46.375 66.25C41.1038 66.25 36.0485 68.344 32.3213 72.0713C28.594 75.7985 26.5 80.8538 26.5 86.125H19.875ZM46.375 56.3125C35.3941 56.3125 26.5 47.4184 26.5 36.4375C26.5 25.4566 35.3941 16.5625 46.375 16.5625C57.3559 16.5625 66.25 25.4566 66.25 36.4375C66.25 47.4184 57.3559 56.3125 46.375 56.3125ZM46.375 49.6875C53.6956 49.6875 59.625 43.7581 59.625 36.4375C59.625 29.1169 53.6956 23.1875 46.375 23.1875C39.0544 23.1875 33.125 29.1169 33.125 36.4375C33.125 43.7581 39.0544 49.6875 46.375 49.6875ZM73.8158 61.9537C78.4709 64.0503 82.4216 67.4466 85.1928 71.7345C87.9641 76.0225 89.438 81.0195 89.4375 86.125H82.8125C82.8133 82.2957 81.708 78.5476 79.6295 75.3315C77.551 72.1154 74.5878 69.568 71.0962 67.9957L73.8124 61.9537H73.8158ZM71.5368 24.5556C74.8742 25.9312 77.7277 28.2673 79.7352 31.2675C81.7428 34.2676 82.8138 37.7964 82.8125 41.4062C82.8139 45.9521 81.1155 50.3342 78.0509 53.6917C74.9863 57.0493 70.7771 59.1396 66.25 59.5521V52.8841C68.7044 52.5325 70.9814 51.4034 72.7468 49.6625C74.5122 47.9216 75.673 45.6606 76.0588 43.2113C76.4446 40.7621 76.0351 38.2537 74.8903 36.0544C73.7455 33.8551 71.9258 32.0807 69.6983 30.9917L71.5368 24.5556Z" fill="#03053D"/>
</svg>
