<svg width="380" height="34" viewBox="0 0 380 34" fill="none" xmlns="http://www.w3.org/2000/svg">
<circle cx="5.5" cy="5.5" r="5.5" transform="rotate(180 5.5 5.5)" fill="#2565F4"/>
<circle cx="36.5" cy="5.5" r="3.5" transform="rotate(180 36.5 5.5)" fill="#ACACAC"/>
<circle cx="67.5" cy="5.5" r="3.5" transform="rotate(180 67.5 5.5)" fill="#ACACAC"/>
<circle cx="98.5" cy="5.5" r="3.5" transform="rotate(180 98.5 5.5)" fill="#ACACAC"/>
<circle cx="129.5" cy="5.5" r="3.5" transform="rotate(180 129.5 5.5)" fill="#ACACAC"/>
<circle cx="160.5" cy="5.5" r="3.5" transform="rotate(180 160.5 5.5)" fill="#ACACAC"/>
<circle cx="191.5" cy="5.5" r="3.5" transform="rotate(180 191.5 5.5)" fill="#ACACAC"/>
<circle cx="222.5" cy="5.5" r="3.5" transform="rotate(180 222.5 5.5)" fill="#ACACAC"/>
<circle cx="253.5" cy="5.5" r="3.5" transform="rotate(180 253.5 5.5)" fill="#ACACAC"/>
<circle cx="129.5" cy="28.5" r="5.5" transform="rotate(180 129.5 28.5)" fill="#2565F4"/>
<circle cx="160.5" cy="28.5" r="3.5" transform="rotate(180 160.5 28.5)" fill="#ACACAC"/>
<circle cx="191.5" cy="28.5" r="3.5" transform="rotate(180 191.5 28.5)" fill="#ACACAC"/>
<circle cx="222.5" cy="28.5" r="3.5" transform="rotate(180 222.5 28.5)" fill="#ACACAC"/>
<circle cx="253.5" cy="28.5" r="3.5" transform="rotate(180 253.5 28.5)" fill="#ACACAC"/>
<circle cx="284.5" cy="5.5" r="3.5" transform="rotate(180 284.5 5.5)" fill="#ACACAC"/>
<circle cx="284.5" cy="28.5" r="3.5" transform="rotate(180 284.5 28.5)" fill="#ACACAC"/>
<circle cx="315.5" cy="5.5" r="3.5" transform="rotate(180 315.5 5.5)" fill="#ACACAC"/>
<circle cx="315.5" cy="28.5" r="3.5" transform="rotate(180 315.5 28.5)" fill="#ACACAC"/>
<circle cx="346.5" cy="5.5" r="3.5" transform="rotate(180 346.5 5.5)" fill="#ACACAC"/>
<circle cx="346.5" cy="28.5" r="3.5" transform="rotate(180 346.5 28.5)" fill="#ACACAC"/>
<circle cx="377.5" cy="5.5" r="3.5" transform="rotate(180 377.5 5.5)" fill="#ACACAC"/>
<circle cx="377.5" cy="28.5" r="3.5" transform="rotate(180 377.5 28.5)" fill="#ACACAC"/>
</svg>
