<svg width="132" height="851" viewBox="0 0 132 851" fill="none" xmlns="http://www.w3.org/2000/svg">
<path fill-rule="evenodd" clip-rule="evenodd" d="M255.872 56.3975C294.868 75.0558 314.543 -32.0848 345.53 10.703C374.407 50.5785 415.553 238.474 429.467 296.108C444.132 356.85 446.717 424.928 434.744 487.714C422.55 551.658 354.538 686.219 354.538 686.219C347.656 686.144 303.822 829.218 247.273 847.88C190.663 866.563 138.886 793.053 94.4981 733.66C51.8144 676.547 5.78742 608.669 0.971438 518.315C-3.65568 431.505 53.2712 371.515 70.788 288.825C88.2076 206.595 60.1095 92.7687 102.357 39.7151C144.339 -13.0062 205.523 32.3067 255.872 56.3975Z" fill="#F5F0F9"/>
</svg>
