<svg width="13" height="13" viewBox="0 0 13 13" fill="none" xmlns="http://www.w3.org/2000/svg">
<path d="M11.8593 2.3173L12.0346 2.14052L11.8586 1.9645L11.0355 1.1414L10.8587 0.964623L10.6819 1.1414L6.51794 5.30539L2.3173 1.14064L2.14052 0.96538L1.9645 1.1414L1.1414 1.9645L0.96538 2.14052L1.14064 2.3173L5.30539 6.51794L1.1414 10.6819L0.964623 10.8587L1.1414 11.0355L1.9645 11.8586L2.14052 12.0346L2.3173 11.8593L6.51794 7.6946L10.6819 11.8586L10.8587 12.0354L11.0355 11.8586L11.8586 11.0355L12.0354 10.8587L11.8586 10.6819L7.6946 6.51794L11.8593 2.3173Z" fill="white" stroke="white" stroke-width="0.5"/>
</svg>
