<svg width="19" height="19" viewBox="0 0 19 19" fill="none" xmlns="http://www.w3.org/2000/svg">
<path d="M14.8593 5.31724L15.0346 5.14046L14.8586 4.96444L14.0355 4.14134L13.8587 3.96456L13.6819 4.14134L9.51794 8.30533L5.3173 4.14058L5.14052 3.96532L4.9645 4.14134L4.1414 4.96444L3.96538 5.14046L4.14064 5.31724L8.30539 9.51788L4.1414 13.6819L3.96462 13.8586L4.1414 14.0354L4.9645 14.8585L5.14052 15.0345L5.3173 14.8593L9.51794 10.6945L13.6819 14.8585L13.8587 15.0353L14.0355 14.8585L14.8586 14.0354L15.0354 13.8586L14.8586 13.6819L10.6946 9.51788L14.8593 5.31724Z" fill="#ACACAC" stroke="#ACACAC" stroke-width="0.5"/>
</svg>
