<svg width="246" height="165" viewBox="0 0 246 165" fill="none" xmlns="http://www.w3.org/2000/svg">
<path d="M7.83739 105.899C7.94198 106.112 7.94198 106.326 8.04836 106.539C8.15475 106.86 8.15475 107.075 8.15475 107.289C8.15475 107.609 8.04836 107.823 8.04836 108.036C7.94198 108.25 7.94198 108.463 7.83739 108.677L7.51823 109.318C7.41184 109.531 7.30545 109.64 7.09448 109.854C6.93967 110.021 6.76103 110.165 6.56434 110.281L5.92781 110.601C5.71503 110.708 5.50226 110.815 5.29128 110.815C4.97212 110.922 4.86573 110.922 4.54837 110.922C4.23101 110.922 4.01823 110.815 3.80545 110.815C3.59448 110.706 3.3817 110.706 3.16893 110.601C2.95795 110.493 2.74518 110.388 2.5324 110.281C2.32143 110.067 2.10865 109.96 2.00226 109.854C1.83552 109.697 1.69273 109.516 1.57851 109.318L1.25935 108.677C1.15476 108.463 1.04837 108.25 1.04837 108.036C0.941986 107.716 0.941986 107.501 0.941986 107.289C0.941986 106.968 1.04837 106.753 1.04837 106.539C1.04837 106.326 1.15476 106.112 1.36574 105.899L1.6849 105.258C1.79129 105.044 1.89587 104.937 2.10865 104.724C2.21504 104.615 2.42782 104.404 2.63879 104.295L3.27532 103.975C3.48809 103.868 3.69907 103.761 3.91184 103.761C4.33559 103.654 4.86753 103.654 5.29128 103.761C5.50226 103.87 5.71503 103.87 5.92781 103.975C6.13878 104.083 6.35156 104.188 6.56434 104.295C6.77531 104.404 6.8817 104.51 7.09448 104.724C7.20086 104.831 7.41184 105.044 7.51823 105.258L7.83739 105.899ZM7.7292 142.1C7.83739 142.313 7.83739 142.527 8.04836 142.74C8.15475 143.061 8.15475 143.276 8.15475 143.49C8.15475 143.81 8.04836 144.024 8.04836 144.237C7.94198 144.451 7.94198 144.665 7.83739 144.878L7.51823 145.519C7.41184 145.732 7.30545 145.841 7.09448 146.055C6.93967 146.222 6.76103 146.366 6.56434 146.482L5.92781 146.802C5.71503 146.909 5.50226 147.016 5.29128 147.016C4.97212 147.123 4.86573 147.123 4.54837 147.123C4.23101 147.123 4.01823 147.016 3.80545 147.016C3.59448 146.907 3.3817 146.907 3.16893 146.802C2.95795 146.694 2.74518 146.589 2.5324 146.482C2.32143 146.373 2.21504 146.268 2.00226 146.055C1.83552 145.898 1.69273 145.717 1.57851 145.519L1.25935 144.878C1.15476 144.665 1.04837 144.451 1.04837 144.237C0.941986 143.917 0.941986 143.702 0.941986 143.49C0.941986 143.168 1.04837 142.954 1.04837 142.74C1.15476 142.527 1.15476 142.313 1.25935 142.1L1.57851 141.459C1.6849 141.245 1.79129 141.139 2.00226 140.925C2.11045 140.816 2.32143 140.605 2.5324 140.496L3.16893 140.176C3.3817 140.069 3.59448 139.962 3.80545 139.962C4.23101 139.855 4.76115 139.855 5.1849 139.962C5.39767 140.071 5.60865 140.071 5.82142 140.176L6.45795 140.496C6.66892 140.605 6.77531 140.711 6.98809 140.925C7.09448 141.032 7.30545 141.245 7.41184 141.459L7.731 142.1H7.7292ZM7.731 178.301C7.83739 178.514 7.83739 178.728 8.04836 178.942C8.15475 179.262 8.15475 179.477 8.15475 179.691C8.15475 180.011 8.04836 180.225 8.04836 180.438C7.94198 180.652 7.94198 180.866 7.83739 181.079L7.51823 181.72C7.41184 181.934 7.30545 182.042 7.09448 182.256C6.93967 182.424 6.76103 182.567 6.56434 182.683L5.92781 183.003C5.71503 183.11 5.50226 183.217 5.29128 183.217C4.97212 183.324 4.86573 183.324 4.54837 183.324C4.23101 183.324 4.01823 183.217 3.80545 183.217C3.59448 183.108 3.3817 183.108 3.16893 183.003C2.95795 182.895 2.74518 182.79 2.5324 182.683C2.32143 182.574 2.21504 182.469 2.00226 182.256C1.83552 182.098 1.69273 181.919 1.57851 181.72L1.25935 181.079C1.15476 180.866 1.04837 180.652 1.04837 180.438C0.941986 180.118 0.941986 179.903 0.941986 179.691C0.941986 179.369 1.04837 179.155 1.04837 178.942C1.15476 178.728 1.15476 178.514 1.25935 178.301L1.57851 177.66C1.6849 177.446 1.79129 177.34 2.00226 177.126C2.11045 177.017 2.32143 176.806 2.5324 176.697L3.16893 176.377C3.3817 176.27 3.59448 176.163 3.80545 176.163C4.23101 176.056 4.76115 176.056 5.1849 176.163C5.39767 176.272 5.60865 176.272 5.82142 176.377L6.45795 176.697C6.66892 176.806 6.77531 176.912 6.98809 177.126C7.09448 177.233 7.30545 177.446 7.41184 177.66L7.731 178.301ZM7.731 212.692C7.83739 212.905 7.83739 213.228 8.04836 213.334C8.15475 213.653 8.15475 213.868 8.15475 214.082C8.15475 214.402 8.04836 214.616 8.04836 214.829C7.94198 215.043 7.94198 215.257 7.83739 215.472L7.51823 216.111C7.41184 216.325 7.30545 216.433 7.09448 216.647C6.98628 216.755 6.77531 216.967 6.56434 217.074L5.92781 217.394C5.71503 217.503 5.50226 217.61 5.29128 217.61C4.97212 217.715 4.86573 217.715 4.54837 217.715C4.23101 217.715 4.01823 217.61 3.80545 217.61C3.59448 217.501 3.3817 217.501 3.16893 217.392L2.5324 217.074C2.32143 216.967 2.21504 216.86 2.00226 216.647C1.83526 216.491 1.69244 216.31 1.57851 216.111L1.25935 215.472C1.15476 215.257 1.04837 215.043 1.04837 214.829C0.941986 214.511 0.941986 214.295 0.941986 214.082C0.941986 213.761 1.04837 213.548 1.04837 213.334C1.15476 213.119 1.15476 212.905 1.25935 212.694L1.57851 212.051C1.6849 211.837 1.79129 211.731 2.00226 211.517C2.11045 211.41 2.32143 211.197 2.5324 211.09L3.16893 210.768C3.3817 210.663 3.59448 210.556 3.80545 210.556C4.23101 210.447 4.76115 210.447 5.1849 210.556C5.39767 210.663 5.60865 210.663 5.82142 210.768L6.45795 211.09C6.66892 211.197 6.77531 211.302 6.98809 211.517C7.09448 211.626 7.30545 211.837 7.41184 212.051C7.52003 212.265 7.62461 212.478 7.731 212.694V212.692ZM332.944 108.677C332.944 108.463 332.836 108.25 332.836 108.036C332.729 107.716 332.729 107.502 332.729 107.289C332.729 106.968 332.837 106.753 332.837 106.539C332.837 106.326 332.946 106.112 333.054 105.899C333.158 105.685 333.268 105.471 333.375 105.258C333.483 105.044 333.591 104.937 333.806 104.724C333.914 104.615 334.13 104.404 334.345 104.295L334.989 103.975C335.205 103.868 335.421 103.761 335.636 103.761C336.065 103.654 336.604 103.654 337.035 103.761C337.252 103.87 337.464 103.87 337.681 103.975L338.326 104.295C338.543 104.404 338.651 104.51 338.865 104.724C338.974 104.831 339.19 105.044 339.295 105.258L339.619 105.899C339.727 106.112 339.834 106.326 339.834 106.539C339.942 106.86 339.942 107.075 339.942 107.289C339.942 107.609 339.834 107.823 339.834 108.036C339.726 108.25 339.726 108.463 339.617 108.677L339.295 109.318C339.188 109.531 339.078 109.64 338.865 109.854C338.757 109.96 338.541 110.174 338.326 110.281L337.681 110.601C337.464 110.708 337.25 110.815 337.035 110.815C336.712 110.922 336.498 110.922 336.282 110.922C335.959 110.922 335.744 110.815 335.528 110.815C335.311 110.706 335.097 110.706 334.882 110.601L334.235 110.281C334.02 110.172 333.912 110.067 333.698 109.854C333.589 109.745 333.373 109.531 333.268 109.318L332.944 108.677ZM339.518 142.1C339.518 142.313 339.626 142.527 339.837 142.74C339.942 143.061 339.942 143.276 339.942 143.49C339.942 143.81 339.837 144.024 339.837 144.237C339.729 144.451 339.729 144.665 339.625 144.878L339.307 145.519C339.199 145.732 339.095 145.841 338.882 146.055C338.727 146.223 338.548 146.367 338.352 146.482L337.715 146.802C337.502 146.909 337.29 147.016 337.079 147.016C336.759 147.123 336.548 147.123 336.336 147.123C336.018 147.123 335.805 147.016 335.593 147.016C335.382 146.907 335.169 146.907 334.956 146.802C334.745 146.694 334.532 146.589 334.32 146.482C334.107 146.373 334.002 146.268 333.789 146.055C333.683 145.946 333.472 145.732 333.366 145.519L333.047 144.878C332.942 144.665 332.836 144.451 332.836 144.237C332.729 143.917 332.729 143.703 332.729 143.49C332.729 143.168 332.836 142.954 332.836 142.74C332.836 142.527 332.942 142.313 333.047 142.1L333.366 141.459C333.472 141.245 333.577 141.139 333.789 140.925C333.898 140.816 334.107 140.605 334.32 140.496L334.956 140.176C335.169 140.069 335.382 139.962 335.593 139.962C336.018 139.855 336.548 139.855 336.972 139.962C337.185 140.071 337.398 140.071 337.609 140.176C337.82 140.284 338.034 140.389 338.245 140.496C338.458 140.605 338.564 140.711 338.775 140.925C338.882 141.032 339.095 141.245 339.201 141.459L339.518 142.1ZM339.518 178.301C339.518 178.514 339.626 178.728 339.837 178.942C339.942 179.262 339.942 179.477 339.942 179.691C339.942 180.011 339.837 180.225 339.837 180.438C339.729 180.652 339.729 180.866 339.625 181.079L339.307 181.72C339.199 181.934 339.095 182.042 338.882 182.256C338.727 182.424 338.548 182.569 338.352 182.683L337.715 183.003C337.502 183.11 337.29 183.217 337.079 183.217C336.759 183.324 336.548 183.324 336.336 183.324C336.018 183.324 335.805 183.217 335.593 183.217C335.382 183.108 335.169 183.108 334.956 183.003C334.745 182.895 334.532 182.79 334.32 182.683C334.107 182.574 334.002 182.469 333.789 182.256C333.683 182.147 333.472 181.934 333.366 181.72L333.047 181.079C332.942 180.866 332.836 180.652 332.836 180.438C332.729 180.118 332.729 179.904 332.729 179.691C332.729 179.369 332.836 179.155 332.836 178.942C332.836 178.728 332.942 178.514 333.047 178.301L333.366 177.66C333.472 177.446 333.577 177.34 333.789 177.126C333.898 177.017 334.107 176.806 334.32 176.697L334.956 176.377C335.169 176.27 335.382 176.163 335.593 176.163C336.018 176.056 336.548 176.056 336.972 176.163C337.185 176.272 337.398 176.272 337.609 176.377C337.82 176.485 338.034 176.59 338.245 176.697C338.458 176.806 338.564 176.912 338.775 177.126C338.882 177.233 339.095 177.446 339.201 177.66L339.518 178.301ZM339.518 212.692C339.518 212.905 339.626 213.228 339.837 213.334C339.942 213.653 339.942 213.868 339.942 214.082C339.942 214.402 339.837 214.616 339.837 214.829C339.729 215.043 339.729 215.257 339.625 215.472L339.307 216.111C339.199 216.325 339.095 216.433 338.882 216.647C338.775 216.755 338.564 216.967 338.352 217.074L337.715 217.394C337.502 217.503 337.29 217.61 337.079 217.61C336.839 217.689 336.588 217.726 336.336 217.715C336.018 217.715 335.805 217.61 335.593 217.61C335.382 217.501 335.169 217.501 334.956 217.392L334.32 217.074C334.107 216.967 334.002 216.86 333.789 216.647C333.622 216.491 333.479 216.31 333.366 216.111L333.047 215.472C332.942 215.257 332.836 215.043 332.836 214.829C332.729 214.509 332.729 214.295 332.729 214.082C332.729 213.761 332.836 213.548 332.836 213.334C332.836 213.119 332.942 212.905 333.047 212.694L333.366 212.051C333.472 211.837 333.577 211.731 333.789 211.517C333.898 211.41 334.107 211.197 334.32 211.09L334.956 210.768C335.169 210.663 335.382 210.556 335.593 210.556C336.018 210.447 336.548 210.447 336.972 210.556C337.185 210.663 337.398 210.663 337.609 210.768L338.245 211.09C338.458 211.197 338.564 211.302 338.775 211.517C338.882 211.626 339.095 211.837 339.201 212.051L339.518 212.694V212.692ZM114.543 317.268C115.499 317.268 116.417 317.65 117.093 318.328C117.77 319.007 118.149 319.928 118.149 320.888C118.149 321.847 117.77 322.768 117.093 323.447C116.417 324.126 115.499 324.508 114.543 324.508C113.587 324.508 112.669 324.126 111.993 323.447C111.317 322.768 110.937 321.847 110.937 320.888C110.937 319.928 111.317 319.007 111.993 318.328C112.669 317.65 113.587 317.268 114.543 317.268ZM155.593 319.485C155.699 319.699 155.699 319.912 155.91 320.127C156.016 320.446 156.016 320.661 156.016 320.875C156.016 321.195 155.91 321.409 155.91 321.623C155.804 321.836 155.804 322.05 155.699 322.263L155.38 322.904C155.274 323.118 155.167 323.226 154.956 323.44C154.801 323.608 154.623 323.751 154.426 323.867L153.79 324.186C153.577 324.294 153.364 324.401 153.153 324.401C152.834 324.508 152.623 324.508 152.41 324.508C152.093 324.508 151.88 324.401 151.667 324.401C151.456 324.292 151.243 324.292 151.031 324.186L150.394 323.867C150.183 323.758 150.077 323.652 149.864 323.44C149.698 323.282 149.555 323.103 149.44 322.904L149.121 322.263C149.016 322.05 148.91 321.836 148.91 321.623C148.804 321.302 148.804 321.089 148.804 320.875C148.804 320.555 148.91 320.341 148.91 320.127C148.91 319.91 149.016 319.699 149.121 319.485L149.44 318.844C149.547 318.631 149.653 318.524 149.864 318.308C149.972 318.203 150.183 317.99 150.394 317.883L151.031 317.563C151.243 317.454 151.456 317.349 151.667 317.349C152.093 317.24 152.623 317.24 153.047 317.349C153.259 317.456 153.47 317.456 153.683 317.563L154.32 317.883C154.531 317.99 154.637 318.097 154.85 318.308C154.956 318.417 155.167 318.631 155.274 318.844L155.593 319.485ZM191.657 319.485C191.765 319.699 191.765 319.912 191.976 320.127C192.08 320.446 192.08 320.661 192.08 320.875C192.08 321.195 191.976 321.409 191.976 321.623C191.868 321.836 191.868 322.05 191.763 322.263C191.655 322.477 191.55 322.691 191.446 322.904C191.337 323.118 191.233 323.226 191.02 323.44C190.865 323.608 190.686 323.753 190.49 323.867L189.853 324.186C189.641 324.294 189.428 324.401 189.217 324.401C188.898 324.508 188.685 324.508 188.474 324.508C188.155 324.508 187.944 324.401 187.731 324.401C187.52 324.292 187.307 324.292 187.094 324.186L186.458 323.867C186.245 323.758 186.141 323.652 185.928 323.44C185.76 323.282 185.618 323.103 185.502 322.904L185.185 322.263C185.08 322.05 184.972 321.836 184.972 321.623C184.868 321.302 184.868 321.089 184.868 320.875C184.868 320.555 184.972 320.341 184.972 320.127C185.08 319.91 185.08 319.699 185.185 319.485L185.502 318.844C185.61 318.631 185.715 318.524 185.928 318.308C186.034 318.203 186.245 317.99 186.458 317.883L187.094 317.563C187.307 317.454 187.52 317.349 187.731 317.349C188.155 317.24 188.687 317.24 189.11 317.349C189.323 317.456 189.534 317.456 189.747 317.563C189.958 317.669 190.173 317.774 190.383 317.883C190.594 317.99 190.703 318.097 190.914 318.308C191.02 318.417 191.233 318.631 191.337 318.844L191.657 319.485ZM226.341 317.268C227.297 317.268 228.214 317.65 228.891 318.328C229.567 319.007 229.947 319.928 229.947 320.888C229.947 321.847 229.567 322.768 228.891 323.447C228.214 324.126 227.297 324.508 226.341 324.508C225.385 324.508 224.467 324.126 223.791 323.447C223.115 322.768 222.735 321.847 222.735 320.888C222.735 319.928 223.115 319.007 223.791 318.328C224.467 317.65 225.385 317.268 226.341 317.268ZM78.4792 71.1003C79.4356 71.1003 80.3529 71.4817 81.0293 72.1607C81.7057 72.8396 82.0856 73.7604 82.0856 74.7205C82.0856 75.6805 81.7057 76.6013 81.0293 77.2802C80.3529 77.9592 79.4356 78.3406 78.4792 78.3406C77.5228 78.3406 76.6055 77.9592 75.9291 77.2802C75.2528 76.6013 74.8728 75.6805 74.8728 74.7205C74.8728 73.7604 75.2528 72.8396 75.9291 72.1607C76.6055 71.4817 77.5228 71.1003 78.4792 71.1003ZM40.6122 71.1003C41.5686 71.1003 42.4859 71.4817 43.1623 72.1607C43.8386 72.8396 44.2186 73.7604 44.2186 74.7205C44.2186 75.6805 43.8386 76.6013 43.1623 77.2802C42.4859 77.9592 41.5686 78.3406 40.6122 78.3406C39.6558 78.3406 38.7385 77.9592 38.0621 77.2802C37.3857 76.6013 37.0058 75.6805 37.0058 74.7205C37.0058 73.7604 37.3857 72.8396 38.0621 72.1607C38.7385 71.4817 39.6558 71.1003 40.6122 71.1003ZM114.543 71.1003C115.499 71.1003 116.417 71.4817 117.093 72.1607C117.77 72.8396 118.149 73.7604 118.149 74.7205C118.149 75.6805 117.77 76.6013 117.093 77.2802C116.417 77.9592 115.499 78.3406 114.543 78.3406C113.587 78.3406 112.669 77.9592 111.993 77.2802C111.317 76.6013 110.937 75.6805 110.937 74.7205C110.937 73.7604 111.317 72.8396 111.993 72.1607C112.669 71.4817 113.587 71.1003 114.543 71.1003ZM155.593 73.3177C155.699 73.5312 155.699 73.7448 155.91 73.9584C156.016 74.2788 156.016 74.3874 156.016 74.7078C156.016 75.0282 155.91 75.2417 155.91 75.4553C155.804 75.6689 155.804 75.8825 155.699 76.0961L155.38 76.7368C155.274 76.9504 155.167 77.059 154.956 77.2726C154.801 77.4404 154.623 77.5843 154.426 77.6998L153.79 78.0202C153.577 78.127 153.364 78.2338 153.153 78.2338C152.834 78.3406 152.623 78.3406 152.41 78.3406C152.093 78.3406 151.88 78.2338 151.667 78.2338C151.456 78.1252 151.243 78.1252 151.031 78.0202C150.82 77.9116 150.607 77.8066 150.394 77.6998C150.183 77.5912 150.077 77.4862 149.864 77.2726C149.697 77.1159 149.554 76.9354 149.44 76.7368L149.121 76.0961C149.016 75.8825 148.91 75.6689 148.91 75.4553C148.804 75.1349 148.804 75.0282 148.804 74.7078C148.804 74.3874 148.91 74.172 148.91 73.9584C148.91 73.7448 149.016 73.5312 149.121 73.3177L149.44 72.6769C149.547 72.4633 149.653 72.3565 149.864 72.1429C149.972 72.0343 150.183 71.8226 150.394 71.714L151.031 71.3936C151.243 71.2868 151.456 71.18 151.667 71.18C152.093 71.0732 152.623 71.0732 153.047 71.18C153.259 71.2886 153.47 71.2886 153.683 71.3936L154.32 71.714C154.531 71.8226 154.637 71.9294 154.85 72.1429C154.956 72.2497 155.167 72.4633 155.274 72.6769L155.593 73.3177ZM114.543 103.681C115.499 103.681 116.417 104.063 117.093 104.742C117.77 105.421 118.149 106.341 118.149 107.301C118.149 108.261 117.77 109.182 117.093 109.861C116.417 110.54 115.499 110.922 114.543 110.922C113.587 110.922 112.669 110.54 111.993 109.861C111.317 109.182 110.937 108.261 110.937 107.301C110.937 106.341 111.317 105.421 111.993 104.742C112.669 104.063 113.587 103.681 114.543 103.681ZM40.6122 103.681C41.5686 103.681 42.4859 104.063 43.1623 104.742C43.8386 105.421 44.2186 106.341 44.2186 107.301C44.2186 108.261 43.8386 109.182 43.1623 109.861C42.4859 110.54 41.5686 110.922 40.6122 110.922C39.6558 110.922 38.7385 110.54 38.0621 109.861C37.3857 109.182 37.0058 108.261 37.0058 107.301C37.0058 106.341 37.3857 105.421 38.0621 104.742C38.7385 104.063 39.6558 103.681 40.6122 103.681ZM78.4792 103.681C79.4356 103.681 80.3529 104.063 81.0293 104.742C81.7057 105.421 82.0856 106.341 82.0856 107.301C82.0856 108.261 81.7057 109.182 81.0293 109.861C80.3529 110.54 79.4356 110.922 78.4792 110.922C77.5228 110.922 76.6055 110.54 75.9291 109.861C75.2528 109.182 74.8728 108.261 74.8728 107.301C74.8728 106.341 75.2528 105.421 75.9291 104.742C76.6055 104.063 77.5228 103.681 78.4792 103.681ZM155.593 105.899C155.699 106.112 155.699 106.326 155.91 106.539C156.016 106.86 156.016 107.075 156.016 107.289C156.016 107.609 155.91 107.823 155.91 108.036C155.804 108.25 155.804 108.463 155.699 108.677L155.38 109.318C155.274 109.531 155.167 109.64 154.956 109.854C154.801 110.021 154.623 110.165 154.426 110.281L153.79 110.601C153.577 110.708 153.364 110.815 153.153 110.815C152.834 110.922 152.623 110.922 152.41 110.922C152.093 110.922 151.88 110.815 151.667 110.815C151.456 110.706 151.243 110.706 151.031 110.601C150.82 110.493 150.607 110.388 150.394 110.281C150.183 110.172 150.077 110.067 149.864 109.854C149.697 109.697 149.554 109.516 149.44 109.318L149.121 108.677C149.016 108.463 148.91 108.25 148.91 108.036C148.804 107.716 148.804 107.501 148.804 107.289C148.804 106.968 148.91 106.753 148.91 106.539C148.91 106.326 149.016 106.112 149.121 105.899L149.44 105.258C149.547 105.044 149.653 104.937 149.864 104.724C149.972 104.615 150.183 104.404 150.394 104.295L151.031 103.975C151.243 103.868 151.456 103.761 151.667 103.761C152.093 103.654 152.623 103.654 153.047 103.761C153.259 103.87 153.47 103.87 153.683 103.975L154.32 104.295C154.531 104.404 154.637 104.51 154.85 104.724C154.956 104.831 155.167 105.044 155.274 105.258L155.593 105.899ZM114.543 139.882C115.499 139.882 116.417 140.264 117.093 140.943C117.77 141.622 118.149 142.542 118.149 143.502C118.149 144.463 117.77 145.383 117.093 146.062C116.417 146.741 115.499 147.123 114.543 147.123C113.587 147.123 112.669 146.741 111.993 146.062C111.317 145.383 110.937 144.463 110.937 143.502C110.937 142.542 111.317 141.622 111.993 140.943C112.669 140.264 113.587 139.882 114.543 139.882ZM78.4792 139.882C79.4356 139.882 80.3529 140.264 81.0293 140.943C81.7057 141.622 82.0856 142.542 82.0856 143.502C82.0856 144.463 81.7057 145.383 81.0293 146.062C80.3529 146.741 79.4356 147.123 78.4792 147.123C77.5228 147.123 76.6055 146.741 75.9291 146.062C75.2528 145.383 74.8728 144.463 74.8728 143.502C74.8728 142.542 75.2528 141.622 75.9291 140.943C76.6055 140.264 77.5228 139.882 78.4792 139.882ZM40.6122 139.882C41.5686 139.882 42.4859 140.264 43.1623 140.943C43.8386 141.622 44.2186 142.542 44.2186 143.502C44.2186 144.463 43.8386 145.383 43.1623 146.062C42.4859 146.741 41.5686 147.123 40.6122 147.123C39.6558 147.123 38.7385 146.741 38.0621 146.062C37.3857 145.383 37.0058 144.463 37.0058 143.502C37.0058 142.542 37.3857 141.622 38.0621 140.943C38.7385 140.264 39.6558 139.882 40.6122 139.882ZM155.593 142.1C155.699 142.313 155.699 142.527 155.91 142.74C156.016 143.061 156.016 143.276 156.016 143.49C156.016 143.81 155.91 144.024 155.91 144.237C155.804 144.451 155.804 144.665 155.699 144.878L155.38 145.519C155.274 145.732 155.167 145.841 154.956 146.055C154.801 146.222 154.623 146.366 154.426 146.482L153.79 146.802C153.577 146.909 153.364 147.016 153.153 147.016C152.834 147.123 152.623 147.123 152.41 147.123C152.093 147.123 151.88 147.016 151.667 147.016C151.456 146.907 151.243 146.907 151.031 146.802C150.82 146.694 150.607 146.589 150.394 146.482C150.183 146.373 150.077 146.268 149.864 146.055C149.697 145.898 149.554 145.717 149.44 145.519L149.121 144.878C149.016 144.665 148.91 144.451 148.91 144.237C148.804 143.917 148.804 143.702 148.804 143.49C148.804 143.168 148.91 142.954 148.91 142.74C148.91 142.527 149.016 142.313 149.121 142.1L149.44 141.459C149.547 141.245 149.653 141.139 149.864 140.925C149.972 140.816 150.183 140.605 150.394 140.496L151.031 140.176C151.243 140.069 151.456 139.962 151.667 139.962C152.093 139.855 152.623 139.855 153.047 139.962C153.259 140.071 153.47 140.071 153.683 140.176L154.32 140.496C154.531 140.605 154.637 140.711 154.85 140.925C154.956 141.032 155.167 141.245 155.274 141.459L155.593 142.1ZM191.657 73.3177C191.765 73.5312 191.765 73.7448 191.976 73.9584C192.08 74.2788 192.08 74.3874 192.08 74.7078C192.08 75.0282 191.976 75.2417 191.976 75.4553C191.868 75.6689 191.868 75.8825 191.763 76.0961C191.655 76.3097 191.55 76.5233 191.446 76.7368C191.337 76.9504 191.233 77.059 191.02 77.2726C190.865 77.441 190.686 77.5849 190.49 77.6998L189.853 78.0202C189.641 78.127 189.428 78.2338 189.217 78.2338C188.898 78.3406 188.685 78.3406 188.474 78.3406C188.155 78.3406 187.944 78.2338 187.731 78.2338C187.52 78.1252 187.307 78.1252 187.094 78.0202L186.458 77.6998C186.245 77.5912 186.141 77.4862 185.928 77.2726C185.76 77.1161 185.618 76.9356 185.502 76.7368L185.185 76.0961C185.08 75.8825 184.972 75.6689 184.972 75.4553C184.868 75.1349 184.868 75.0282 184.868 74.7078C184.868 74.3874 184.972 74.172 184.972 73.9584C185.08 73.7448 185.08 73.5312 185.185 73.3177L185.502 72.6769C185.61 72.4633 185.715 72.3565 185.928 72.1429C186.083 71.9741 186.261 71.8294 186.458 71.714L187.094 71.3936C187.307 71.2868 187.52 71.18 187.731 71.18C188.155 71.0732 188.687 71.0732 189.11 71.18C189.323 71.2886 189.534 71.2886 189.747 71.3936L190.383 71.714C190.594 71.8226 190.703 71.9294 190.914 72.1429C191.02 72.2497 191.233 72.4633 191.337 72.6769L191.657 73.3177ZM226.341 71.1003C227.297 71.1003 228.214 71.4817 228.891 72.1607C229.567 72.8396 229.947 73.7604 229.947 74.7205C229.947 75.6805 229.567 76.6013 228.891 77.2802C228.214 77.9592 227.297 78.3406 226.341 78.3406C225.385 78.3406 224.467 77.9592 223.791 77.2802C223.115 76.6013 222.735 75.6805 222.735 74.7205C222.735 73.7604 223.115 72.8396 223.791 72.1607C224.467 71.4817 225.385 71.1003 226.341 71.1003ZM300.272 71.1003C302.288 71.1003 303.878 72.6968 303.878 74.7205C303.878 76.7441 302.288 78.3406 300.272 78.3406C298.256 78.3406 296.665 76.7441 296.665 74.7205C296.665 72.6968 298.256 71.1003 300.272 71.1003ZM262.405 71.1003C263.36 71.1003 264.278 71.4817 264.954 72.1607C265.631 72.8396 266.011 73.7604 266.011 74.7205C266.011 75.6805 265.631 76.6013 264.954 77.2802C264.278 77.9592 263.36 78.3406 262.405 78.3406C261.449 78.3406 260.531 77.9592 259.855 77.2802C259.179 76.6013 258.798 75.6805 258.798 74.7205C258.798 73.7604 259.179 72.8396 259.855 72.1607C260.531 71.4817 261.449 71.1003 262.405 71.1003ZM191.657 105.899C191.765 106.112 191.765 106.326 191.976 106.539C192.08 106.86 192.08 107.075 192.08 107.289C192.08 107.609 191.976 107.823 191.976 108.036C191.868 108.25 191.868 108.463 191.763 108.677C191.655 108.891 191.55 109.104 191.446 109.318C191.337 109.531 191.233 109.64 191.02 109.854C190.865 110.022 190.686 110.166 190.49 110.281L189.853 110.601C189.641 110.708 189.428 110.815 189.217 110.815C188.898 110.922 188.685 110.922 188.474 110.922C188.155 110.922 187.944 110.815 187.731 110.815C187.52 110.706 187.307 110.706 187.094 110.601L186.458 110.281C186.245 110.172 186.141 110.067 185.928 109.854C185.76 109.697 185.618 109.517 185.502 109.318L185.185 108.677C185.08 108.463 184.972 108.25 184.972 108.036C184.868 107.716 184.868 107.502 184.868 107.289C184.868 106.968 184.972 106.753 184.972 106.539C185.08 106.326 185.08 106.112 185.185 105.899L185.502 105.258C185.61 105.044 185.715 104.937 185.928 104.724C186.083 104.555 186.261 104.41 186.458 104.295L187.094 103.975C187.307 103.868 187.52 103.761 187.731 103.761C188.155 103.654 188.687 103.654 189.11 103.761C189.323 103.87 189.534 103.87 189.747 103.975L190.383 104.295C190.594 104.404 190.703 104.51 190.914 104.724C191.02 104.831 191.233 105.044 191.337 105.258L191.657 105.899ZM300.272 103.681C302.288 103.681 303.878 105.278 303.878 107.301C303.878 109.325 302.288 110.922 300.272 110.922C298.256 110.922 296.665 109.325 296.665 107.301C296.665 105.278 298.256 103.681 300.272 103.681ZM226.341 103.681C227.297 103.681 228.214 104.063 228.891 104.742C229.567 105.421 229.947 106.341 229.947 107.301C229.947 108.261 229.567 109.182 228.891 109.861C228.214 110.54 227.297 110.922 226.341 110.922C225.385 110.922 224.467 110.54 223.791 109.861C223.115 109.182 222.735 108.261 222.735 107.301C222.735 106.341 223.115 105.421 223.791 104.742C224.467 104.063 225.385 103.681 226.341 103.681ZM262.405 103.681C263.36 103.681 264.278 104.063 264.954 104.742C265.631 105.421 266.011 106.341 266.011 107.301C266.011 108.261 265.631 109.182 264.954 109.861C264.278 110.54 263.36 110.922 262.405 110.922C261.449 110.922 260.531 110.54 259.855 109.861C259.179 109.182 258.798 108.261 258.798 107.301C258.798 106.341 259.179 105.421 259.855 104.742C260.531 104.063 261.449 103.681 262.405 103.681ZM191.657 142.1C191.765 142.313 191.765 142.527 191.976 142.74C192.08 143.061 192.08 143.276 192.08 143.49C192.08 143.81 191.976 144.024 191.976 144.237C191.868 144.451 191.868 144.665 191.763 144.878C191.655 145.092 191.55 145.305 191.446 145.519C191.337 145.732 191.233 145.841 191.02 146.055C190.865 146.223 190.686 146.367 190.49 146.482L189.853 146.802C189.641 146.909 189.428 147.016 189.217 147.016C188.898 147.123 188.685 147.123 188.474 147.123C188.155 147.123 187.944 147.016 187.731 147.016C187.52 146.907 187.307 146.907 187.094 146.802L186.458 146.482C186.245 146.373 186.141 146.268 185.928 146.055C185.76 145.898 185.618 145.717 185.502 145.519L185.185 144.878C185.08 144.665 184.972 144.451 184.972 144.237C184.868 143.917 184.868 143.703 184.868 143.49C184.868 143.168 184.972 142.954 184.972 142.74C185.08 142.527 185.08 142.313 185.185 142.1L185.502 141.459C185.61 141.245 185.715 141.139 185.928 140.925C186.083 140.756 186.261 140.611 186.458 140.496L187.094 140.176C187.307 140.069 187.52 139.962 187.731 139.962C188.155 139.855 188.687 139.855 189.11 139.962C189.323 140.071 189.534 140.071 189.747 140.176L190.383 140.496C190.594 140.605 190.703 140.711 190.914 140.925C191.02 141.032 191.233 141.245 191.337 141.459L191.657 142.1ZM226.341 139.882C227.297 139.882 228.214 140.264 228.891 140.943C229.567 141.622 229.947 142.542 229.947 143.502C229.947 144.463 229.567 145.383 228.891 146.062C228.214 146.741 227.297 147.123 226.341 147.123C225.385 147.123 224.467 146.741 223.791 146.062C223.115 145.383 222.735 144.463 222.735 143.502C222.735 142.542 223.115 141.622 223.791 140.943C224.467 140.264 225.385 139.882 226.341 139.882ZM262.405 139.882C263.36 139.882 264.278 140.264 264.954 140.943C265.631 141.622 266.011 142.542 266.011 143.502C266.011 144.463 265.631 145.383 264.954 146.062C264.278 146.741 263.36 147.123 262.405 147.123C261.449 147.123 260.531 146.741 259.855 146.062C259.179 145.383 258.798 144.463 258.798 143.502C258.798 142.542 259.179 141.622 259.855 140.943C260.531 140.264 261.449 139.882 262.405 139.882ZM300.272 139.882C302.288 139.882 303.878 141.479 303.878 143.502C303.878 145.526 302.288 147.123 300.272 147.123C298.256 147.123 296.665 145.526 296.665 143.502C296.665 141.479 298.256 139.882 300.272 139.882ZM40.6122 176.083C42.6282 176.083 44.2186 177.68 44.2186 179.704C44.2186 181.727 42.6282 183.324 40.6122 183.324C38.5962 183.324 37.0058 181.727 37.0058 179.704C37.0058 177.68 38.5962 176.083 40.6122 176.083ZM78.4792 176.083C80.3888 176.083 81.9792 177.68 82.0856 179.704C82.0856 181.727 80.4952 183.324 78.4792 183.324C76.4633 183.324 74.8728 181.727 74.8728 179.704C74.8728 177.68 76.4633 176.083 78.4792 176.083ZM114.543 176.083C116.559 176.083 118.149 177.68 118.149 179.704C118.149 181.727 116.559 183.324 114.543 183.324C112.527 183.324 110.937 181.727 110.937 179.704C110.937 177.68 112.527 176.083 114.543 176.083ZM155.593 178.301C155.699 178.514 155.699 178.728 155.91 178.942C156.016 179.262 156.016 179.477 156.016 179.691C156.016 180.011 155.91 180.225 155.91 180.438C155.804 180.652 155.804 180.866 155.699 181.079L155.38 181.72C155.274 181.934 155.167 182.042 154.956 182.256C154.801 182.424 154.623 182.567 154.426 182.683L153.79 183.003C153.577 183.11 153.364 183.217 153.153 183.217C152.834 183.324 152.623 183.324 152.41 183.324C152.093 183.324 151.88 183.217 151.667 183.217C151.456 183.108 151.243 183.108 151.031 183.003C150.82 182.895 150.607 182.79 150.394 182.683C150.183 182.574 150.077 182.469 149.864 182.256C149.697 182.098 149.554 181.919 149.44 181.72L149.121 181.079C149.016 180.866 148.91 180.652 148.91 180.438C148.804 180.118 148.804 179.903 148.804 179.691C148.804 179.369 148.91 179.155 148.91 178.942C148.91 178.728 149.016 178.514 149.121 178.301L149.44 177.66C149.547 177.446 149.653 177.34 149.864 177.126C149.972 177.017 150.183 176.806 150.394 176.697L151.031 176.377C151.243 176.27 151.456 176.163 151.667 176.163C152.093 176.056 152.623 176.056 153.047 176.163C153.259 176.272 153.47 176.272 153.683 176.377L154.32 176.697C154.531 176.806 154.637 176.912 154.85 177.126C154.956 177.233 155.167 177.446 155.274 177.66L155.593 178.301ZM40.6122 210.474C41.5686 210.474 42.4859 210.856 43.1623 211.535C43.8386 212.214 44.2186 213.135 44.2186 214.095C44.2186 215.054 43.8386 215.975 43.1623 216.654C42.4859 217.333 41.5686 217.715 40.6122 217.715C39.6558 217.715 38.7385 217.333 38.0621 216.654C37.3857 215.975 37.0058 215.054 37.0058 214.095C37.0058 213.135 37.3857 212.214 38.0621 211.535C38.7385 210.856 39.6558 210.474 40.6122 210.474ZM114.543 210.474C115.499 210.474 116.417 210.856 117.093 211.535C117.77 212.214 118.149 213.135 118.149 214.095C118.149 215.054 117.77 215.975 117.093 216.654C116.417 217.333 115.499 217.715 114.543 217.715C113.587 217.715 112.669 217.333 111.993 216.654C111.317 215.975 110.937 215.054 110.937 214.095C110.937 213.135 111.317 212.214 111.993 211.535C112.669 210.856 113.587 210.474 114.543 210.474ZM78.4792 210.474C79.4356 210.474 80.3529 210.856 81.0293 211.535C81.7057 212.214 82.0856 213.135 82.0856 214.095C82.0856 215.054 81.7057 215.975 81.0293 216.654C80.3529 217.333 79.4356 217.715 78.4792 217.715C77.5228 217.715 76.6055 217.333 75.9291 216.654C75.2528 215.975 74.8728 215.054 74.8728 214.095C74.8728 213.135 75.2528 212.214 75.9291 211.535C76.6055 210.856 77.5228 210.474 78.4792 210.474ZM155.593 212.694C155.699 212.905 155.699 213.228 155.91 213.334C156.016 213.653 156.016 213.868 156.016 214.082C156.016 214.402 155.91 214.616 155.91 214.829C155.804 215.043 155.804 215.257 155.699 215.472L155.38 216.111C155.274 216.325 155.167 216.433 154.956 216.647C154.848 216.755 154.637 216.967 154.426 217.074L153.79 217.394C153.577 217.503 153.364 217.61 153.153 217.61C152.834 217.715 152.623 217.715 152.41 217.715C152.093 217.715 151.88 217.61 151.667 217.61C151.456 217.501 151.243 217.501 151.031 217.392L150.394 217.074C150.183 216.967 150.077 216.86 149.864 216.647C149.697 216.491 149.554 216.31 149.44 216.111L149.121 215.472C149.016 215.257 148.91 215.043 148.91 214.829C148.804 214.509 148.804 214.295 148.804 214.082C148.804 213.761 148.91 213.548 148.91 213.334C148.91 213.119 149.016 212.905 149.121 212.694L149.44 212.051C149.547 211.837 149.653 211.731 149.864 211.517C149.972 211.41 150.183 211.197 150.394 211.09L151.031 210.768C151.243 210.663 151.456 210.556 151.667 210.556C152.093 210.447 152.623 210.447 153.047 210.556C153.259 210.663 153.47 210.663 153.683 210.768L154.32 211.09C154.531 211.197 154.637 211.302 154.85 211.517C154.956 211.626 155.167 211.837 155.274 212.051C155.382 212.265 155.486 212.478 155.593 212.694ZM114.543 244.865C115.499 244.865 116.417 245.247 117.093 245.926C117.77 246.605 118.149 247.526 118.149 248.486C118.149 249.445 117.77 250.366 117.093 251.045C116.417 251.724 115.499 252.106 114.543 252.106C113.587 252.106 112.669 251.724 111.993 251.045C111.317 250.366 110.937 249.445 110.937 248.486C110.937 247.526 111.317 246.605 111.993 245.926C112.669 245.247 113.587 244.865 114.543 244.865ZM40.6122 244.865C41.5686 244.865 42.4859 245.247 43.1623 245.926C43.8386 246.605 44.2186 247.526 44.2186 248.486C44.2186 249.445 43.8386 250.366 43.1623 251.045C42.4859 251.724 41.5686 252.106 40.6122 252.106C39.6558 252.106 38.7385 251.724 38.0621 251.045C37.3857 250.366 37.0058 249.445 37.0058 248.486C37.0058 247.526 37.3857 246.605 38.0621 245.926C38.7385 245.247 39.6558 244.865 40.6122 244.865ZM78.4792 244.865C79.4356 244.865 80.3529 245.247 81.0293 245.926C81.7057 246.605 82.0856 247.526 82.0856 248.486C82.0856 249.445 81.7057 250.366 81.0293 251.045C80.3529 251.724 79.4356 252.106 78.4792 252.106C77.5228 252.106 76.6055 251.724 75.9291 251.045C75.2528 250.366 74.8728 249.445 74.8728 248.486C74.8728 247.526 75.2528 246.605 75.9291 245.926C76.6055 245.247 77.5228 244.865 78.4792 244.865ZM155.593 247.085C155.699 247.296 155.699 247.51 155.91 247.725C156.016 248.044 156.016 248.259 156.016 248.473C156.016 248.793 155.91 249.007 155.91 249.22C155.804 249.434 155.804 249.648 155.699 249.863L155.38 250.502C155.274 250.716 155.167 250.824 154.956 251.038C154.848 251.146 154.637 251.358 154.426 251.465L153.79 251.785C153.577 251.894 153.364 252.001 153.153 252.001C152.834 252.106 152.623 252.106 152.41 252.106C152.093 252.106 151.88 252.001 151.667 252.001C151.456 251.892 151.243 251.892 151.031 251.784L150.394 251.465C150.183 251.358 150.077 251.251 149.864 251.038C149.697 250.882 149.554 250.701 149.44 250.502L149.121 249.863C149.016 249.648 148.91 249.434 148.91 249.22C148.804 248.9 148.804 248.686 148.804 248.473C148.804 248.153 148.91 247.939 148.91 247.725C148.91 247.51 149.016 247.296 149.121 247.085L149.44 246.442C149.547 246.228 149.653 246.122 149.864 245.908C149.972 245.801 150.183 245.588 150.394 245.481L151.031 245.159C151.243 245.054 151.456 244.947 151.667 244.947C152.093 244.838 152.623 244.838 153.047 244.947C153.259 245.054 153.47 245.054 153.683 245.159L154.32 245.481C154.531 245.588 154.637 245.693 154.85 245.908C154.956 246.017 155.167 246.228 155.274 246.442C155.382 246.656 155.486 246.869 155.593 247.085ZM191.657 178.303C191.765 178.514 191.765 178.728 191.976 178.942C192.08 179.262 192.08 179.477 192.08 179.691C192.08 180.011 191.976 180.225 191.976 180.438C191.868 180.652 191.868 180.866 191.763 181.079C191.655 181.293 191.55 181.506 191.446 181.72C191.337 181.934 191.233 182.042 191.02 182.256C190.865 182.424 190.686 182.569 190.49 182.683L189.853 183.003C189.641 183.11 189.428 183.217 189.217 183.217C188.898 183.324 188.685 183.324 188.474 183.324C188.155 183.324 187.944 183.217 187.731 183.217C187.52 183.108 187.307 183.108 187.094 183.003L186.458 182.683C186.245 182.574 186.141 182.469 185.928 182.256C185.76 182.1 185.618 181.919 185.502 181.72L185.185 181.079C185.08 180.866 184.972 180.652 184.972 180.438C184.868 180.118 184.868 179.904 184.868 179.691C184.868 179.369 184.972 179.155 184.972 178.942C185.08 178.728 185.08 178.514 185.185 178.301L185.502 177.66C185.61 177.446 185.715 177.34 185.928 177.126C186.083 176.957 186.261 176.813 186.458 176.697L187.094 176.377C187.307 176.27 187.52 176.163 187.731 176.163C188.155 176.056 188.687 176.056 189.11 176.163C189.323 176.272 189.534 176.272 189.747 176.377C189.958 176.485 190.173 176.59 190.383 176.697C190.594 176.806 190.703 176.912 190.914 177.126C191.02 177.233 191.233 177.446 191.337 177.66L191.657 178.301V178.303ZM300.272 176.083C302.288 176.083 303.878 177.68 303.878 179.704C303.878 181.727 302.288 183.324 300.272 183.324C298.256 183.324 296.665 181.727 296.665 179.704C296.665 177.68 298.256 176.083 300.272 176.083ZM262.405 176.083C264.314 176.083 265.905 177.68 266.011 179.704C266.011 181.727 264.421 183.324 262.405 183.324C260.389 183.324 258.798 181.727 258.798 179.704C258.798 177.68 260.389 176.083 262.405 176.083ZM226.341 176.083C228.357 176.083 229.947 177.68 229.947 179.704C229.947 181.727 228.357 183.324 226.341 183.324C224.325 183.324 222.735 181.727 222.735 179.704C222.735 177.68 224.325 176.083 226.341 176.083ZM191.657 212.694C191.765 212.905 191.765 213.228 191.976 213.334C192.08 213.653 192.08 213.868 192.08 214.082C192.08 214.402 191.976 214.616 191.976 214.829C191.868 215.043 191.868 215.257 191.763 215.472C191.655 215.686 191.55 215.899 191.446 216.111C191.337 216.325 191.233 216.433 191.02 216.647C190.914 216.755 190.703 216.967 190.49 217.074L189.853 217.394C189.641 217.503 189.428 217.61 189.217 217.61C188.898 217.715 188.685 217.715 188.474 217.715C188.155 217.715 187.944 217.61 187.731 217.61C187.52 217.501 187.307 217.501 187.094 217.392L186.458 217.074C186.245 216.967 186.141 216.86 185.928 216.647C185.76 216.491 185.616 216.31 185.502 216.111L185.185 215.472C185.08 215.257 184.972 215.043 184.972 214.829C184.868 214.509 184.868 214.295 184.868 214.082C184.868 213.761 184.972 213.548 184.972 213.334C185.08 213.119 185.08 212.905 185.185 212.694L185.502 212.051C185.61 211.837 185.715 211.731 185.928 211.517C186.034 211.41 186.245 211.197 186.458 211.09L187.094 210.768C187.307 210.663 187.52 210.556 187.731 210.556C188.155 210.447 188.687 210.447 189.11 210.556C189.323 210.663 189.534 210.663 189.747 210.768L190.383 211.09C190.594 211.197 190.703 211.302 190.914 211.517C191.02 211.626 191.233 211.837 191.337 212.051C191.446 212.265 191.55 212.478 191.657 212.694ZM300.272 210.474C302.288 210.474 303.878 212.071 303.878 214.095C303.878 216.118 302.288 217.715 300.272 217.715C298.256 217.715 296.665 216.118 296.665 214.095C296.665 212.071 298.256 210.474 300.272 210.474ZM262.405 210.474C263.36 210.474 264.278 210.856 264.954 211.535C265.631 212.214 266.011 213.135 266.011 214.095C266.011 215.054 265.631 215.975 264.954 216.654C264.278 217.333 263.36 217.715 262.405 217.715C261.449 217.715 260.531 217.333 259.855 216.654C259.179 215.975 258.798 215.054 258.798 214.095C258.798 213.135 259.179 212.214 259.855 211.535C260.531 210.856 261.449 210.474 262.405 210.474ZM226.341 210.474C227.297 210.474 228.214 210.856 228.891 211.535C229.567 212.214 229.947 213.135 229.947 214.095C229.947 215.054 229.567 215.975 228.891 216.654C228.214 217.333 227.297 217.715 226.341 217.715C225.385 217.715 224.467 217.333 223.791 216.654C223.115 215.975 222.735 215.054 222.735 214.095C222.735 213.135 223.115 212.214 223.791 211.535C224.467 210.856 225.385 210.474 226.341 210.474ZM191.657 247.085C191.765 247.296 191.765 247.51 191.976 247.725C192.08 248.044 192.08 248.259 192.08 248.473C192.08 248.793 191.976 249.007 191.976 249.22C191.868 249.434 191.868 249.648 191.763 249.863C191.655 250.077 191.55 250.29 191.446 250.502C191.337 250.716 191.233 250.824 191.02 251.038C190.914 251.146 190.703 251.358 190.49 251.465L189.853 251.785C189.641 251.894 189.428 252.001 189.217 252.001C188.898 252.106 188.685 252.106 188.474 252.106C188.155 252.106 187.944 252.001 187.731 252.001C187.52 251.892 187.307 251.892 187.094 251.784L186.458 251.465C186.245 251.358 186.141 251.251 185.928 251.038C185.76 250.882 185.616 250.701 185.502 250.502L185.185 249.863C185.08 249.648 184.972 249.434 184.972 249.22C184.868 248.9 184.868 248.686 184.868 248.473C184.868 248.153 184.972 247.939 184.972 247.725C185.08 247.51 185.08 247.296 185.185 247.085L185.502 246.442C185.61 246.228 185.715 246.122 185.928 245.908C186.034 245.801 186.245 245.588 186.458 245.481L187.094 245.159C187.307 245.054 187.52 244.947 187.731 244.947C188.155 244.838 188.687 244.838 189.11 244.947C189.323 245.054 189.534 245.054 189.747 245.159L190.383 245.481C190.594 245.588 190.703 245.693 190.914 245.908C191.02 246.017 191.233 246.228 191.337 246.442C191.446 246.656 191.55 246.869 191.657 247.085ZM300.272 244.865C302.288 244.865 303.878 246.462 303.878 248.486C303.878 250.509 302.288 252.106 300.272 252.106C298.256 252.106 296.665 250.509 296.665 248.486C296.665 246.462 298.256 244.865 300.272 244.865ZM262.405 244.865C263.36 244.865 264.278 245.247 264.954 245.926C265.631 246.605 266.011 247.526 266.011 248.486C266.011 249.445 265.631 250.366 264.954 251.045C264.278 251.724 263.36 252.106 262.405 252.106C261.449 252.106 260.531 251.724 259.855 251.045C259.179 250.366 258.798 249.445 258.798 248.486C258.798 247.526 259.179 246.605 259.855 245.926C260.531 245.247 261.449 244.865 262.405 244.865ZM226.341 244.865C227.297 244.865 228.214 245.247 228.891 245.926C229.567 246.605 229.947 247.526 229.947 248.486C229.947 249.445 229.567 250.366 228.891 251.045C228.214 251.724 227.297 252.106 226.341 252.106C225.385 252.106 224.467 251.724 223.791 251.045C223.115 250.366 222.735 249.445 222.735 248.486C222.735 247.526 223.115 246.605 223.791 245.926C224.467 245.247 225.385 244.865 226.341 244.865ZM114.543 36.7093C115.499 36.7093 116.417 37.0907 117.093 37.7697C117.77 38.4486 118.149 39.3694 118.149 40.3294C118.149 41.2895 117.77 42.2103 117.093 42.8892C116.417 43.5682 115.499 43.9495 114.543 43.9495C113.587 43.9495 112.669 43.5682 111.993 42.8892C111.317 42.2103 110.937 41.2895 110.937 40.3294C110.937 39.3694 111.317 38.4486 111.993 37.7697C112.669 37.0907 113.587 36.7093 114.543 36.7093ZM78.4792 36.7093C79.4356 36.7093 80.3529 37.0907 81.0293 37.7697C81.7057 38.4486 82.0856 39.3694 82.0856 40.3294C82.0856 41.2895 81.7057 42.2103 81.0293 42.8892C80.3529 43.5682 79.4356 43.9495 78.4792 43.9495C77.5228 43.9495 76.6055 43.5682 75.9291 42.8892C75.2528 42.2103 74.8728 41.2895 74.8728 40.3294C74.8728 39.3694 75.2528 38.4486 75.9291 37.7697C76.6055 37.0907 77.5228 36.7093 78.4792 36.7093ZM155.593 38.9266C155.699 39.1402 155.699 39.3538 155.91 39.5674C156.016 39.8878 156.016 39.9964 156.016 40.3168C156.016 40.6371 155.91 40.8507 155.91 41.0643C155.804 41.2779 155.804 41.4915 155.699 41.7051L155.38 42.3458C155.274 42.5594 155.167 42.668 154.956 42.8816C154.801 43.0494 154.623 43.1933 154.426 43.3088L153.79 43.6292C153.577 43.736 153.364 43.8428 153.153 43.8428C152.834 43.9495 152.623 43.9495 152.41 43.9495C152.093 43.9495 151.88 43.8428 151.667 43.8428C151.456 43.7341 151.243 43.7341 151.031 43.6292C150.82 43.5206 150.607 43.4156 150.394 43.3088C150.183 43.2002 150.077 43.0952 149.864 42.8816C149.697 42.7249 149.554 42.5444 149.44 42.3458L149.121 41.7051C149.016 41.4915 148.91 41.2779 148.91 41.0643C148.804 40.7439 148.804 40.6371 148.804 40.3168C148.804 39.9964 148.91 39.781 148.91 39.5674C148.91 39.3538 149.016 39.1402 149.121 38.9266L149.44 38.2859C149.547 38.0723 149.653 37.9655 149.864 37.7519C149.972 37.6433 150.183 37.4315 150.394 37.3229L151.031 37.0026C151.243 36.8958 151.456 36.789 151.667 36.789C152.093 36.6822 152.623 36.6822 153.047 36.789C153.259 36.8976 153.47 36.8976 153.683 37.0026L154.32 37.3229C154.531 37.4315 154.637 37.5383 154.85 37.7519C154.956 37.8587 155.167 38.0723 155.274 38.2859L155.593 38.9266ZM191.657 38.9266C191.765 39.1402 191.765 39.3538 191.976 39.5674C192.08 39.8878 192.08 39.9964 192.08 40.3168C192.08 40.6371 191.976 40.8507 191.976 41.0643C191.868 41.2779 191.868 41.4915 191.763 41.7051C191.655 41.9187 191.55 42.1323 191.446 42.3458C191.337 42.5594 191.233 42.668 191.02 42.8816C190.865 43.0499 190.686 43.1938 190.49 43.3088L189.853 43.6292C189.641 43.736 189.428 43.8428 189.217 43.8428C188.898 43.9495 188.685 43.9495 188.474 43.9495C188.155 43.9495 187.944 43.8428 187.731 43.8428C187.52 43.7341 187.307 43.7341 187.094 43.6292L186.458 43.3088C186.245 43.2002 186.141 43.0952 185.928 42.8816C185.76 42.725 185.618 42.5446 185.502 42.3458L185.185 41.7051C185.08 41.4915 184.972 41.2779 184.972 41.0643C184.868 40.7439 184.868 40.6371 184.868 40.3168C184.868 39.9964 184.972 39.781 184.972 39.5674C185.08 39.3538 185.08 39.1402 185.185 38.9266L185.502 38.2859C185.61 38.0723 185.715 37.9655 185.928 37.7519C186.083 37.583 186.261 37.4384 186.458 37.3229L187.094 37.0026C187.307 36.8958 187.52 36.789 187.731 36.789C188.155 36.6822 188.687 36.6822 189.11 36.789C189.323 36.8976 189.534 36.8976 189.747 37.0026L190.383 37.3229C190.594 37.4315 190.703 37.5383 190.914 37.7519C191.02 37.8587 191.233 38.0723 191.337 38.2859L191.657 38.9266ZM262.405 36.7093C263.36 36.7093 264.278 37.0907 264.954 37.7697C265.631 38.4486 266.011 39.3694 266.011 40.3294C266.011 41.2895 265.631 42.2103 264.954 42.8892C264.278 43.5682 263.36 43.9495 262.405 43.9495C261.449 43.9495 260.531 43.5682 259.855 42.8892C259.179 42.2103 258.798 41.2895 258.798 40.3294C258.798 39.3694 259.179 38.4486 259.855 37.7697C260.531 37.0907 261.449 36.7093 262.405 36.7093ZM226.341 36.7093C227.297 36.7093 228.214 37.0907 228.891 37.7697C229.567 38.4486 229.947 39.3694 229.947 40.3294C229.947 41.2895 229.567 42.2103 228.891 42.8892C228.214 43.5682 227.297 43.9495 226.341 43.9495C225.385 43.9495 224.467 43.5682 223.791 42.8892C223.115 42.2103 222.735 41.2895 222.735 40.3294C222.735 39.3694 223.115 38.4486 223.791 37.7697C224.467 37.0907 225.385 36.7093 226.341 36.7093ZM114.543 0.508265C115.499 0.508265 116.417 0.889668 117.093 1.56857C117.77 2.24747 118.149 3.16827 118.149 4.12837C118.149 5.08848 117.77 6.00927 117.093 6.68817C116.417 7.36707 115.499 7.74848 114.543 7.74848C113.587 7.74848 112.669 7.36707 111.993 6.68817C111.317 6.00927 110.937 5.08848 110.937 4.12837C110.937 3.16827 111.317 2.24747 111.993 1.56857C112.669 0.889668 113.587 0.508265 114.543 0.508265ZM155.593 2.72558C155.699 2.93917 155.699 3.15276 155.91 3.36634C156.016 3.68672 156.016 3.90212 156.016 4.1157C156.016 4.43608 155.91 4.64967 155.91 4.86326C155.804 5.07684 155.804 5.29043 155.699 5.50401L155.38 6.14477C155.274 6.35836 155.167 6.46696 154.956 6.68055C154.801 6.84834 154.623 6.99229 154.426 7.10772L153.79 7.4281C153.577 7.53489 153.364 7.64169 153.153 7.64169C152.834 7.74848 152.623 7.74848 152.41 7.74848C152.093 7.74848 151.88 7.64169 151.667 7.64169C151.456 7.53308 151.243 7.53308 151.031 7.4281C150.82 7.3195 150.607 7.21452 150.394 7.10772C150.183 6.99912 150.077 6.89414 149.864 6.68055C149.697 6.52385 149.554 6.34332 149.44 6.14477L149.121 5.50401C149.016 5.29043 148.91 5.07684 148.91 4.86326C148.804 4.54288 148.804 4.32748 148.804 4.1157C148.804 3.79351 148.91 3.57993 148.91 3.36634C148.91 3.15276 149.016 2.93917 149.121 2.72558L149.44 2.08482C149.547 1.87123 149.653 1.76444 149.864 1.55086C149.972 1.44225 150.183 1.23048 150.394 1.12187L151.031 0.801493C151.243 0.6947 151.456 0.587907 151.667 0.587907C152.093 0.481114 152.623 0.481114 153.047 0.587907C153.259 0.69651 153.47 0.69651 153.683 0.801493L154.32 1.12187C154.531 1.23048 154.637 1.33727 154.85 1.55086C154.956 1.65765 155.167 1.87123 155.274 2.08482L155.593 2.72558ZM191.657 2.72558C191.765 2.93917 191.765 3.15276 191.976 3.36634C192.08 3.68672 192.08 3.90212 192.08 4.1157C192.08 4.43608 191.976 4.64967 191.976 4.86326C191.868 5.07684 191.868 5.29043 191.763 5.50401C191.655 5.7176 191.55 5.93119 191.446 6.14477C191.337 6.35836 191.233 6.46696 191.02 6.68055C190.865 6.84881 190.686 6.99282 190.49 7.10772L189.853 7.4281C189.641 7.53489 189.428 7.64169 189.217 7.64169C188.898 7.74848 188.685 7.74848 188.474 7.74848C188.155 7.74848 187.944 7.64169 187.731 7.64169C187.52 7.53308 187.307 7.53308 187.094 7.4281L186.458 7.10772C186.245 6.99912 186.141 6.89414 185.928 6.68055C185.76 6.52396 185.618 6.34343 185.502 6.14477L185.185 5.50401C185.08 5.29043 184.972 5.07684 184.972 4.86326C184.868 4.54288 184.868 4.32748 184.868 4.1157C184.868 3.79351 184.972 3.57993 184.972 3.36634C185.08 3.15276 185.08 2.93917 185.185 2.72558L185.502 2.08482C185.61 1.87123 185.715 1.76444 185.928 1.55086C186.083 1.38194 186.261 1.23732 186.458 1.12187L187.094 0.801493C187.307 0.6947 187.52 0.587907 187.731 0.587907C188.155 0.481114 188.687 0.481114 189.11 0.587907C189.323 0.69651 189.534 0.69651 189.747 0.801493C189.958 0.910096 190.173 1.01508 190.383 1.12187C190.594 1.23048 190.703 1.33727 190.914 1.55086C191.02 1.65765 191.233 1.87123 191.337 2.08482L191.657 2.72558ZM226.341 0.508265C227.297 0.508265 228.214 0.889668 228.891 1.56857C229.567 2.24747 229.947 3.16827 229.947 4.12837C229.947 5.08848 229.567 6.00927 228.891 6.68817C228.214 7.36707 227.297 7.74848 226.341 7.74848C225.385 7.74848 224.467 7.36707 223.791 6.68817C223.115 6.00927 222.735 5.08848 222.735 4.12837C222.735 3.16827 223.115 2.24747 223.791 1.56857C224.467 0.889668 225.385 0.508265 226.341 0.508265ZM114.543 281.067C115.499 281.067 116.417 281.448 117.093 282.127C117.77 282.806 118.149 283.727 118.149 284.687C118.149 285.646 117.77 286.567 117.093 287.246C116.417 287.925 115.499 288.307 114.543 288.307C113.587 288.307 112.669 287.925 111.993 287.246C111.317 286.567 110.937 285.646 110.937 284.687C110.937 283.727 111.317 282.806 111.993 282.127C112.669 281.448 113.587 281.067 114.543 281.067ZM78.4792 281.067C79.4356 281.067 80.3529 281.448 81.0293 282.127C81.7057 282.806 82.0856 283.727 82.0856 284.687C82.0856 285.646 81.7057 286.567 81.0293 287.246C80.3529 287.925 79.4356 288.307 78.4792 288.307C77.5228 288.307 76.6055 287.925 75.9291 287.246C75.2528 286.567 74.8728 285.646 74.8728 284.687C74.8728 283.727 75.2528 282.806 75.9291 282.127C76.6055 281.448 77.5228 281.067 78.4792 281.067ZM155.593 283.286C155.699 283.497 155.699 283.711 155.91 283.926C156.016 284.245 156.016 284.354 156.016 284.674C156.016 284.994 155.91 285.208 155.91 285.422C155.804 285.635 155.804 285.849 155.699 286.064L155.38 286.703C155.274 286.917 155.167 287.025 154.956 287.239C154.848 287.347 154.637 287.559 154.426 287.666L153.79 287.986C153.577 288.095 153.364 288.202 153.153 288.202C152.834 288.307 152.623 288.307 152.41 288.307C152.093 288.307 151.88 288.202 151.667 288.202C151.456 288.093 151.243 288.093 151.031 287.985L150.394 287.666C150.183 287.559 150.077 287.452 149.864 287.239C149.697 287.083 149.554 286.902 149.44 286.703L149.121 286.064C149.016 285.849 148.91 285.635 148.91 285.422C148.804 285.101 148.804 284.994 148.804 284.674C148.804 284.354 148.91 284.14 148.91 283.926C148.91 283.711 149.016 283.497 149.121 283.286L149.44 282.643C149.547 282.43 149.653 282.323 149.864 282.109C149.972 282.002 150.183 281.789 150.394 281.682L151.031 281.36C151.243 281.255 151.456 281.148 151.667 281.148C152.093 281.039 152.623 281.039 153.047 281.148C153.259 281.255 153.47 281.255 153.683 281.36L154.32 281.682C154.531 281.789 154.637 281.894 154.85 282.109C154.956 282.218 155.167 282.43 155.274 282.643C155.382 282.857 155.486 283.07 155.593 283.286ZM191.657 283.286C191.765 283.497 191.765 283.711 191.976 283.926C192.08 284.245 192.08 284.354 192.08 284.674C192.08 284.994 191.976 285.208 191.976 285.422C191.868 285.635 191.868 285.849 191.763 286.064C191.655 286.278 191.55 286.491 191.446 286.703C191.337 286.917 191.233 287.025 191.02 287.239C190.914 287.347 190.703 287.559 190.49 287.666L189.853 287.986C189.641 288.095 189.428 288.202 189.217 288.202C188.898 288.307 188.685 288.307 188.474 288.307C188.155 288.307 187.944 288.202 187.731 288.202C187.52 288.093 187.307 288.093 187.094 287.985L186.458 287.666C186.245 287.559 186.141 287.452 185.928 287.239C185.76 287.083 185.616 286.902 185.502 286.703L185.185 286.064C185.08 285.849 184.972 285.635 184.972 285.422C184.868 285.101 184.868 284.994 184.868 284.674C184.868 284.354 184.972 284.14 184.972 283.926C185.08 283.711 185.08 283.497 185.185 283.286L185.502 282.643C185.61 282.43 185.715 282.323 185.928 282.109C186.034 282.002 186.245 281.789 186.458 281.682L187.094 281.36C187.307 281.255 187.52 281.148 187.731 281.148C188.155 281.039 188.687 281.039 189.11 281.148C189.323 281.255 189.534 281.255 189.747 281.36L190.383 281.682C190.594 281.789 190.703 281.894 190.914 282.109C191.02 282.218 191.233 282.43 191.337 282.643C191.446 282.857 191.55 283.07 191.657 283.286ZM262.405 281.067C263.36 281.067 264.278 281.448 264.954 282.127C265.631 282.806 266.011 283.727 266.011 284.687C266.011 285.646 265.631 286.567 264.954 287.246C264.278 287.925 263.36 288.307 262.405 288.307C261.449 288.307 260.531 287.925 259.855 287.246C259.179 286.567 258.798 285.646 258.798 284.687C258.798 283.727 259.179 282.806 259.855 282.127C260.531 281.448 261.449 281.067 262.405 281.067ZM226.341 281.067C227.297 281.067 228.214 281.448 228.891 282.127C229.567 282.806 229.947 283.727 229.947 284.687C229.947 285.646 229.567 286.567 228.891 287.246C228.214 287.925 227.297 288.307 226.341 288.307C225.385 288.307 224.467 287.925 223.791 287.246C223.115 286.567 222.735 285.646 222.735 284.687C222.735 283.727 223.115 282.806 223.791 282.127C224.467 281.448 225.385 281.067 226.341 281.067Z" fill="#E5E5E5"/>
</svg>
