<svg width="271" height="333" viewBox="0 0 271 333" fill="none" xmlns="http://www.w3.org/2000/svg">
<path d="M6.36514 211.931C6.57229 212.048 6.69325 212.224 6.90189 212.34C7.171 212.544 7.29298 212.721 7.41393 212.898C7.59536 213.162 7.62862 213.398 7.74957 213.574C7.78284 213.81 7.90379 213.986 7.93855 214.221L8.03834 214.93C8.07161 215.167 8.04543 215.316 7.9925 215.612C7.95992 215.838 7.89418 216.058 7.79746 216.264L7.45426 216.889C7.33936 217.097 7.22447 217.306 7.05058 217.425C6.848 217.694 6.76031 217.754 6.49874 217.934C6.23717 218.114 6.00133 218.146 5.82595 218.267C5.59057 218.297 5.4152 218.417 5.18037 218.451C4.94499 218.481 4.71016 218.515 4.47431 218.547C4.17948 218.491 3.94363 218.523 3.79547 218.496C3.56927 218.461 3.34938 218.393 3.1428 218.294L2.51689 217.947C2.30974 217.83 2.1011 217.714 1.98015 217.538C1.71103 217.334 1.58906 217.157 1.46913 216.982C1.2877 216.718 1.25341 216.48 1.13246 216.304C1.01151 216.128 0.978239 215.892 1.03117 215.596L0.931376 214.887C0.898106 214.651 0.923832 214.504 0.978252 214.207C1.00444 214.058 1.05988 213.763 1.17227 213.554L1.51546 212.929C1.63036 212.721 1.74377 212.513 1.91914 212.393C2.20792 212.065 2.64635 211.763 3.05608 211.611C3.29147 211.581 3.46684 211.461 3.70166 211.427C3.93705 211.397 4.17188 211.363 4.40772 211.331C4.64311 211.301 4.79127 211.328 5.08759 211.384C5.23576 211.412 5.53059 211.468 5.73923 211.584L6.36514 211.931ZM26.7763 241.83C26.9864 241.945 27.1074 242.121 27.4022 242.177C27.6714 242.381 27.7933 242.559 27.9143 242.735C28.0957 242.999 28.129 243.235 28.2499 243.411C28.2832 243.647 28.4042 243.823 28.4389 244.059L28.5387 244.767C28.572 245.004 28.5458 245.153 28.4929 245.449C28.4603 245.675 28.3945 245.895 28.2978 246.101L27.9546 246.726C27.8397 246.934 27.7248 247.143 27.5509 247.262C27.3484 247.531 27.2607 247.591 26.9991 247.771C26.7375 247.951 26.5017 247.983 26.3263 248.104C26.0909 248.134 25.9155 248.254 25.6807 248.288C25.4453 248.318 25.2105 248.352 24.9747 248.385C24.7393 248.415 24.5921 248.388 24.2958 248.333C24.0696 248.298 23.8497 248.23 23.6432 248.131L23.0172 247.784C22.8101 247.667 22.6015 247.551 22.4805 247.375C22.2114 247.171 22.0894 246.994 21.9695 246.819C21.787 246.554 21.7538 246.317 21.6328 246.141C21.5995 245.905 21.4786 245.729 21.4438 245.494L21.344 244.785C21.3108 244.549 21.338 244.4 21.3909 244.105C21.4186 243.954 21.4725 243.66 21.5849 243.451L21.9281 242.826C22.043 242.618 22.1579 242.409 22.3318 242.29C22.6221 241.961 23.059 241.661 23.4688 241.509C23.7056 241.478 23.8795 241.358 24.1143 241.324L24.8204 241.228C25.0558 241.198 25.2039 241.226 25.5003 241.281C25.6484 241.309 25.9433 241.366 26.1519 241.481L26.7778 241.829L26.7763 241.83ZM47.2782 271.666C47.4868 271.782 47.6078 271.958 47.9026 272.014C48.1717 272.218 48.2937 272.396 48.4146 272.572C48.5961 272.836 48.6293 273.072 48.7503 273.248C48.7836 273.484 48.9045 273.66 48.9393 273.896L49.0391 274.605C49.0723 274.841 49.0461 274.991 48.9932 275.286C48.9609 275.513 48.8947 275.732 48.7982 275.938L48.455 276.563C48.3401 276.771 48.2252 276.98 48.0513 277.099C47.8487 277.368 47.761 277.428 47.4994 277.608C47.2379 277.788 47.002 277.82 46.8267 277.941C46.5913 277.971 46.4159 278.091 46.1811 278.125C45.9457 278.155 45.7109 278.189 45.475 278.222C45.2396 278.252 45.0925 278.225 44.7962 278.17C44.5696 278.134 44.3504 278.068 44.1435 277.968L43.5176 277.621C43.3105 277.504 43.1018 277.388 42.9809 277.212C42.7117 277.008 42.5898 276.831 42.4698 276.656C42.2874 276.391 42.2541 276.154 42.1332 275.978C42.0999 275.742 41.979 275.566 41.9442 275.331L41.8444 274.622C41.8111 274.386 41.8383 274.237 41.8913 273.942C41.9189 273.791 41.9729 273.497 42.0853 273.288L42.4285 272.664C42.5434 272.455 42.6583 272.247 42.8322 272.127C43.1224 271.798 43.5594 271.498 43.9691 271.346C44.206 271.315 44.3799 271.195 44.6147 271.161L45.3207 271.065C45.5561 271.035 45.7043 271.063 46.0006 271.118C46.1488 271.146 46.4436 271.203 46.6523 271.319L47.2782 271.666ZM66.7535 300.011C66.9621 300.127 67.1446 300.393 67.379 300.361C67.647 300.563 67.769 300.741 67.89 300.917C68.0714 301.181 68.1047 301.417 68.2256 301.593C68.2589 301.83 68.3798 302.006 68.4156 302.242L68.5144 302.95C68.5477 303.186 68.5215 303.336 68.4685 303.631C68.4409 303.782 68.3869 304.076 68.2735 304.284L67.9303 304.908C67.8164 305.118 67.7015 305.327 67.5277 305.446C67.324 305.713 67.2364 305.774 66.9748 305.953C66.7132 306.133 66.4784 306.167 66.303 306.288C66.0676 306.318 65.8923 306.438 65.6554 306.469L64.9504 306.567C64.716 306.598 64.5678 306.571 64.2715 306.515C64.0457 306.481 63.8255 306.413 63.6189 306.313L62.994 305.968C62.7858 305.849 62.5771 305.733 62.4562 305.557C62.1881 305.355 62.0661 305.178 61.9452 305.001C61.7637 304.737 61.7305 304.501 61.6095 304.325C61.5752 304.087 61.4543 303.911 61.4206 303.677L61.3197 302.967C61.2865 302.731 61.3137 302.583 61.3666 302.287C61.3953 302.138 61.4482 301.842 61.5617 301.635L61.9038 301.009C62.0198 300.802 62.1346 300.593 62.3085 300.474C62.5978 300.143 63.0347 299.843 63.4455 299.693C63.6813 299.66 63.8552 299.541 64.09 299.507L64.7971 299.412C65.0315 299.38 65.1786 299.407 65.476 299.464C65.6251 299.493 65.919 299.548 66.1276 299.664C66.3377 299.779 66.5449 299.895 66.7545 300.013L66.7535 300.011ZM275.893 30.1165C275.772 29.9404 275.562 29.8256 275.441 29.6496C275.172 29.4458 275.051 29.2698 274.93 29.0937C274.748 28.8297 274.716 28.5909 274.595 28.4148C274.474 28.2388 274.442 28.0015 274.41 27.7642C274.375 27.5289 274.345 27.2906 274.312 27.0543C274.28 26.817 274.309 26.6677 274.365 26.3702C274.392 26.2194 274.451 25.9223 274.566 25.7113L274.915 25.0827C275.033 24.8721 275.151 24.6616 275.328 24.54C275.621 24.209 276.065 23.9037 276.481 23.7476C276.721 23.7146 276.896 23.5941 277.134 23.5581L277.848 23.4566C278.087 23.4236 278.237 23.4503 278.535 23.5049C278.685 23.5316 278.984 23.5851 279.191 23.7019L279.821 24.0462C280.032 24.161 280.24 24.2768 280.361 24.4528C280.632 24.6556 280.754 24.8332 280.875 25.0092C281.056 25.2733 281.088 25.5106 281.209 25.6866C281.241 25.9239 281.362 26.1 281.393 26.3373L281.49 27.0482C281.523 27.2844 281.494 27.4362 281.44 27.7328C281.411 27.8821 281.354 28.1806 281.237 28.3902L280.887 29.0198C280.769 29.2304 280.652 29.4399 280.476 29.5614C280.27 29.8322 280.093 29.9537 279.915 30.0763C279.649 30.259 279.412 30.2925 279.233 30.4151C278.993 30.4481 278.816 30.5696 278.58 30.6046L277.865 30.7071C277.627 30.7391 277.478 30.7139 277.18 30.6593C277.03 30.6311 276.73 30.5776 276.523 30.4608L275.893 30.1165ZM300.239 53.9405C300.359 54.1166 300.57 54.2313 300.864 54.2879C301.132 54.4927 301.254 54.6703 301.375 54.8463C301.556 55.1104 301.591 55.3456 301.712 55.5217C301.744 55.759 301.865 55.935 301.9 56.1703L302.001 56.8781C302.033 57.1154 302.008 57.2641 301.954 57.5607C301.921 57.7873 301.855 58.0069 301.759 58.213L301.415 58.8375C301.3 59.046 301.186 59.2545 301.012 59.374C300.809 59.6428 300.635 59.7622 300.46 59.8827C300.198 60.0624 299.962 60.0949 299.787 60.2154C299.552 60.2454 299.376 60.3659 299.141 60.3998C298.906 60.4298 298.671 60.4638 298.435 60.4962C298.199 60.5272 298.053 60.4999 297.757 60.4444C297.607 60.4151 297.313 60.3585 297.104 60.2427L296.478 59.8954C296.271 59.7786 296.062 59.6628 295.941 59.4867C295.672 59.2829 295.551 59.1069 295.43 58.9308C295.248 58.6653 295.214 58.429 295.094 58.253C294.973 58.0769 294.939 57.8406 294.905 57.6054L294.805 56.8965C294.771 56.6602 294.797 56.513 294.852 56.2165C294.879 56.0657 294.932 55.7727 295.046 55.5627L295.389 54.9381C295.504 54.7296 295.619 54.5211 295.793 54.4017C296.083 54.0726 296.52 53.7724 296.929 53.6205C297.166 53.5895 297.342 53.469 297.575 53.4361C297.81 53.4061 298.047 53.3711 298.281 53.3397C298.518 53.3087 298.666 53.3364 298.961 53.393C299.109 53.4208 299.405 53.4763 299.614 53.5921L300.239 53.9405ZM320.739 83.7776C320.86 83.9537 321.07 84.0684 321.365 84.125C321.632 84.3298 321.754 84.5074 321.875 84.6834C322.057 84.9475 322.092 85.1827 322.212 85.3588C322.244 85.5961 322.365 85.7721 322.4 86.0074L322.501 86.7152C322.533 86.9525 322.508 87.1013 322.454 87.3978C322.421 87.6244 322.356 87.8448 322.259 88.0501L321.916 88.6746C321.801 88.8831 321.686 89.0916 321.512 89.2111C321.309 89.4799 321.136 89.5993 320.96 89.7198C320.699 89.8995 320.463 89.932 320.287 90.0525C320.052 90.0825 319.877 90.203 319.642 90.2369C319.406 90.2669 319.172 90.3009 318.936 90.3333C318.699 90.3643 318.553 90.337 318.257 90.2815C318.108 90.2522 317.813 90.1956 317.604 90.0798L316.978 89.7325C316.771 89.6157 316.563 89.4999 316.442 89.3238C316.172 89.12 316.052 88.944 315.931 88.7679C315.748 88.5024 315.715 88.2661 315.594 88.0901C315.473 87.914 315.44 87.6777 315.405 87.4425L315.305 86.7336C315.272 86.4973 315.298 86.3501 315.352 86.0536C315.38 85.9028 315.432 85.6098 315.546 85.3998L315.889 84.7752C316.004 84.5667 316.119 84.3582 316.293 84.2388C316.583 83.9097 317.02 83.6095 317.43 83.4576C317.667 83.4266 317.842 83.3061 318.075 83.2732C318.311 83.2432 318.547 83.2082 318.781 83.1768C319.018 83.1458 319.167 83.1735 319.461 83.2301C319.609 83.2579 319.906 83.3134 320.114 83.4292L320.739 83.7776ZM340.214 112.123C340.335 112.299 340.607 112.503 340.841 112.472C341.108 112.675 341.23 112.853 341.351 113.029C341.532 113.293 341.567 113.528 341.688 113.704C341.72 113.941 341.841 114.117 341.876 114.354L341.977 115.06C342.008 115.298 341.984 115.447 341.929 115.743C341.903 115.893 341.849 116.187 341.734 116.395L341.391 117.02C341.277 117.23 341.162 117.438 340.988 117.558C340.836 117.759 340.65 117.931 340.436 118.065C340.174 118.245 339.939 118.279 339.764 118.399C339.528 118.429 339.353 118.55 339.116 118.581L338.411 118.679C338.175 118.711 338.029 118.682 337.732 118.627C337.506 118.593 337.286 118.525 337.08 118.425L336.455 118.079C336.246 117.961 336.038 117.845 335.917 117.669C335.648 117.465 335.527 117.289 335.406 117.113C335.224 116.849 335.191 116.613 335.07 116.437C334.948 116.259 334.915 116.023 334.881 115.789L334.78 115.079C334.747 114.843 334.773 114.695 334.827 114.399C334.856 114.249 334.907 113.955 335.022 113.747L335.365 113.12C335.48 112.913 335.595 112.705 335.769 112.585C336.058 112.255 336.495 111.955 336.906 111.804C337.142 111.772 337.317 111.651 337.551 111.618L338.258 111.523C338.494 111.491 338.641 111.517 338.937 111.575C339.086 111.605 339.381 111.659 339.59 111.774L340.215 112.124L340.214 112.123ZM214.009 325.716C214.797 325.175 215.77 324.97 216.711 325.146C217.653 325.323 218.488 325.867 219.031 326.658C219.575 327.448 219.783 328.423 219.61 329.365C219.437 330.308 218.897 331.142 218.109 331.684C217.321 332.225 216.348 332.43 215.407 332.254C214.465 332.077 213.63 331.533 213.087 330.742C212.543 329.952 212.335 328.977 212.508 328.035C212.681 327.092 213.221 326.258 214.009 325.716ZM249.098 304.298C249.307 304.414 249.428 304.59 249.723 304.648C249.991 304.85 250.113 305.028 250.234 305.204C250.416 305.468 250.449 305.704 250.57 305.88C250.603 306.116 250.724 306.292 250.759 306.528L250.859 307.236C250.892 307.473 250.866 307.622 250.813 307.918C250.781 308.144 250.714 308.363 250.618 308.57L250.274 309.193C250.16 309.403 250.045 309.612 249.871 309.731C249.668 310 249.495 310.12 249.319 310.24C249.058 310.42 248.822 310.452 248.646 310.573C248.411 310.603 248.236 310.723 248 310.756L247.295 310.853C247.059 310.883 246.911 310.856 246.616 310.802C246.39 310.766 246.17 310.699 245.963 310.6L245.337 310.253C245.13 310.136 244.922 310.02 244.801 309.844C244.532 309.64 244.411 309.464 244.29 309.288C244.108 309.024 244.075 308.788 243.954 308.612C243.831 308.433 243.799 308.198 243.764 307.963L243.664 307.254C243.631 307.018 243.658 306.869 243.71 306.572C243.74 306.424 243.793 306.129 243.906 305.921L244.249 305.297C244.363 305.087 244.479 304.88 244.653 304.76C244.942 304.43 245.379 304.13 245.79 303.979C246.026 303.947 246.2 303.827 246.435 303.795L247.142 303.698C247.376 303.667 247.524 303.695 247.819 303.749C247.969 303.778 248.263 303.835 248.472 303.95L249.098 304.298ZM278.822 283.875C279.032 283.99 279.153 284.166 279.449 284.224C279.715 284.427 279.837 284.605 279.958 284.781C280.14 285.045 280.175 285.28 280.296 285.456C280.327 285.694 280.448 285.87 280.483 286.105C280.515 286.342 280.55 286.577 280.584 286.813C280.616 287.05 280.591 287.199 280.537 287.495C280.504 287.722 280.439 287.942 280.342 288.148L279.998 288.771C279.884 288.981 279.769 289.189 279.595 289.309C279.392 289.577 279.217 289.698 279.043 289.817C278.78 289.998 278.546 290.03 278.37 290.15C278.135 290.18 277.96 290.301 277.724 290.333L277.019 290.431C276.782 290.462 276.635 290.433 276.34 290.379C276.113 290.344 275.894 290.277 275.686 290.178L275.061 289.83C274.854 289.713 274.644 289.598 274.523 289.422C274.256 289.218 274.135 289.042 274.014 288.865C273.832 288.601 273.797 288.366 273.676 288.19C273.643 287.95 273.523 287.775 273.488 287.54L273.387 286.832C273.355 286.595 273.381 286.448 273.434 286.15C273.462 286.003 273.515 285.707 273.63 285.499L273.973 284.874C274.087 284.664 274.203 284.457 274.377 284.338C274.665 284.008 275.103 283.707 275.514 283.557C275.75 283.524 275.924 283.405 276.159 283.372C276.394 283.341 276.63 283.306 276.866 283.276C277.1 283.244 277.25 283.271 277.543 283.326C277.693 283.355 277.989 283.411 278.196 283.528L278.822 283.875ZM306.153 262.406C306.941 261.865 307.914 261.66 308.855 261.836C309.797 262.013 310.632 262.557 311.176 263.348C311.719 264.138 311.927 265.113 311.754 266.055C311.581 266.998 311.041 267.832 310.253 268.374C309.466 268.915 308.493 269.12 307.551 268.943C306.61 268.767 305.774 268.223 305.231 267.432C304.688 266.641 304.48 265.667 304.652 264.724C304.825 263.782 305.366 262.947 306.153 262.406ZM44.8825 143.247C45.6708 142.705 46.6428 142.5 47.5848 142.677C48.5267 142.853 49.3613 143.397 49.905 144.188C50.4486 144.979 50.6569 145.953 50.4839 146.896C50.3109 147.839 49.7709 148.673 48.9826 149.214C48.1943 149.756 47.2223 149.961 46.2804 149.784C45.3384 149.608 44.5038 149.064 43.9602 148.273C43.4165 147.481 43.2082 146.507 43.3812 145.565C43.5542 144.622 44.0943 143.788 44.8825 143.247ZM13.6723 164.69C14.4606 164.149 15.4326 163.944 16.3746 164.12C17.3165 164.297 18.1511 164.841 18.6948 165.632C19.2384 166.423 19.4467 167.397 19.2737 168.34C19.1008 169.282 18.5607 170.116 17.7724 170.658C16.9841 171.199 16.0121 171.405 15.0702 171.228C14.1282 171.051 13.2936 170.508 12.75 169.716C12.2063 168.925 11.998 167.951 12.171 167.008C12.344 166.066 12.8841 165.232 13.6723 164.69ZM74.6065 122.824C75.3948 122.282 76.3668 122.077 77.3088 122.254C78.2507 122.43 79.0853 122.974 79.629 123.766C80.1726 124.557 80.3809 125.531 80.2079 126.473C80.0349 127.416 79.4949 128.25 78.7066 128.791C77.9183 129.333 76.9463 129.538 76.0044 129.362C75.0624 129.185 74.2278 128.641 73.6842 127.85C73.1405 127.059 72.9322 126.085 73.1052 125.142C73.2782 124.199 73.8182 123.366 74.6065 122.824ZM109.696 101.406C109.904 101.521 110.025 101.697 110.32 101.754C110.589 101.958 110.651 102.047 110.832 102.311C111.013 102.575 111.047 102.812 111.168 102.988C111.201 103.224 111.322 103.4 111.357 103.635L111.456 104.344C111.49 104.58 111.463 104.73 111.411 105.026C111.378 105.252 111.312 105.471 111.215 105.678L110.872 106.302C110.757 106.511 110.643 106.72 110.469 106.839C110.266 107.108 110.092 107.227 109.917 107.348C109.655 107.527 109.419 107.56 109.244 107.68C109.009 107.71 108.833 107.831 108.598 107.865C108.363 107.895 108.128 107.929 107.892 107.961C107.657 107.991 107.51 107.965 107.214 107.909C106.987 107.875 106.767 107.807 106.561 107.708L105.935 107.36C105.728 107.244 105.519 107.128 105.398 106.952C105.129 106.748 105.069 106.66 104.887 106.396C104.706 106.132 104.671 105.894 104.55 105.718C104.43 105.542 104.396 105.306 104.362 105.07L104.262 104.361C104.228 104.125 104.256 103.977 104.309 103.681C104.336 103.531 104.39 103.237 104.503 103.028L104.846 102.403C104.961 102.195 105.076 101.986 105.249 101.867C105.54 101.538 105.977 101.237 106.386 101.085C106.623 101.054 106.797 100.935 107.032 100.901L107.738 100.805C107.973 100.775 108.122 100.802 108.418 100.858C108.566 100.886 108.861 100.942 109.07 101.058L109.696 101.406ZM93.0568 149.677C93.8451 149.136 94.8171 148.931 95.7591 149.107C96.701 149.284 97.5356 149.828 98.0793 150.619C98.6229 151.41 98.8312 152.384 98.6582 153.327C98.4853 154.269 97.9452 155.103 97.1569 155.645C96.3686 156.186 95.3966 156.392 94.4547 156.215C93.5127 156.038 92.6781 155.495 92.1345 154.703C91.5908 153.912 91.3825 152.938 91.5555 151.995C91.7285 151.053 92.2686 150.219 93.0568 149.677ZM32.1227 191.544C32.9109 191.002 33.8829 190.797 34.8249 190.974C35.7669 191.15 36.6014 191.694 37.1451 192.485C37.6888 193.277 37.897 194.251 37.7241 195.193C37.5511 196.136 37.011 196.97 36.2227 197.511C35.4345 198.053 34.4625 198.258 33.5205 198.081C32.5785 197.905 31.744 197.361 31.2003 196.57C30.6566 195.779 30.4483 194.804 30.6213 193.862C30.7943 192.919 31.3344 192.085 32.1227 191.544ZM63.3329 170.1C64.1211 169.558 65.0931 169.353 66.0351 169.53C66.9771 169.707 67.8116 170.25 68.3553 171.042C68.899 171.833 69.1072 172.807 68.9343 173.749C68.7613 174.692 68.2212 175.526 67.4329 176.068C66.6446 176.609 65.6726 176.814 64.7307 176.638C63.7887 176.461 62.9542 175.917 62.4105 175.126C61.8668 174.335 61.6585 173.361 61.8315 172.418C62.0045 171.475 62.5446 170.642 63.3329 170.1ZM128.146 128.259C128.354 128.375 128.475 128.551 128.77 128.607C129.039 128.811 129.161 128.989 129.282 129.165C129.464 129.429 129.497 129.665 129.618 129.841C129.651 130.077 129.772 130.253 129.807 130.489L129.907 131.197C129.94 131.434 129.914 131.584 129.861 131.879C129.828 132.105 129.763 132.325 129.666 132.531L129.323 133.156C129.208 133.364 129.093 133.573 128.919 133.692C128.716 133.961 128.542 134.081 128.367 134.201C128.106 134.381 127.87 134.413 127.694 134.534C127.459 134.564 127.284 134.684 127.049 134.718C126.813 134.748 126.579 134.782 126.343 134.815C126.107 134.845 125.96 134.818 125.664 134.763C125.438 134.728 125.218 134.66 125.011 134.561L124.385 134.214C124.178 134.097 123.969 133.981 123.849 133.805C123.579 133.601 123.457 133.424 123.338 133.249C123.156 132.985 123.122 132.747 123.001 132.571C122.88 132.395 122.847 132.159 122.812 131.924L122.712 131.215C122.679 130.979 122.706 130.83 122.759 130.535C122.787 130.384 122.841 130.09 122.953 129.881L123.296 129.257C123.411 129.048 123.526 128.839 123.7 128.72C123.99 128.391 124.427 128.091 124.837 127.939C125.074 127.908 125.248 127.788 125.482 127.754L126.188 127.658C126.424 127.628 126.572 127.656 126.868 127.711C127.016 127.739 127.311 127.796 127.52 127.912L128.146 128.259ZM113.557 179.515C114.345 178.973 115.317 178.768 116.259 178.944C117.201 179.121 118.036 179.665 118.58 180.456C119.123 181.247 119.332 182.221 119.159 183.164C118.986 184.107 118.446 184.94 117.657 185.482C116.869 186.024 115.897 186.229 114.955 186.052C114.013 185.876 113.179 185.332 112.635 184.541C112.091 183.749 111.883 182.775 112.056 181.833C112.229 180.89 112.769 180.056 113.557 179.515ZM83.8332 199.937C84.6215 199.396 85.5935 199.19 86.5355 199.367C87.4774 199.544 88.312 200.087 88.8556 200.879C89.3993 201.67 89.6076 202.644 89.4346 203.587C89.2616 204.529 88.7216 205.363 87.9333 205.905C87.145 206.446 86.173 206.651 85.231 206.475C84.2891 206.298 83.4545 205.754 82.9108 204.963C82.3672 204.172 82.1589 203.198 82.3319 202.255C82.5049 201.313 83.0449 200.479 83.8332 199.937ZM52.623 221.381C53.4113 220.839 54.3833 220.634 55.3253 220.811C56.2672 220.987 57.1018 221.531 57.6455 222.322C58.1891 223.114 58.3974 224.088 58.2244 225.03C58.0514 225.973 57.5114 226.807 56.7231 227.348C55.9348 227.89 54.9628 228.095 54.0209 227.919C53.0789 227.742 52.2443 227.198 51.7007 226.407C51.157 225.616 50.9487 224.642 51.1217 223.699C51.2947 222.756 51.8347 221.923 52.623 221.381ZM148.646 158.096C148.855 158.212 148.976 158.388 149.271 158.444C149.54 158.648 149.662 158.826 149.783 159.002C149.964 159.266 149.997 159.502 150.118 159.678C150.152 159.914 150.273 160.09 150.307 160.326L150.407 161.035C150.44 161.271 150.414 161.421 150.361 161.716C150.329 161.942 150.263 162.162 150.166 162.368L149.823 162.993C149.708 163.201 149.593 163.41 149.419 163.529C149.217 163.798 149.043 163.918 148.867 164.038C148.606 164.218 148.37 164.25 148.195 164.371C147.959 164.401 147.784 164.521 147.549 164.555C147.314 164.585 147.079 164.619 146.843 164.652C146.608 164.682 146.461 164.655 146.164 164.6C145.938 164.565 145.718 164.497 145.512 164.398L144.886 164.051C144.678 163.934 144.47 163.818 144.349 163.642C144.08 163.438 143.958 163.261 143.838 163.086C143.655 162.821 143.622 162.584 143.501 162.408C143.38 162.232 143.347 161.996 143.312 161.761L143.212 161.052C143.179 160.816 143.206 160.667 143.259 160.372C143.287 160.221 143.341 159.927 143.453 159.718L143.797 159.094C143.911 158.885 144.026 158.677 144.2 158.557C144.49 158.228 144.927 157.928 145.337 157.776C145.574 157.745 145.748 157.626 145.983 157.592L146.689 157.495C146.924 157.465 147.072 157.493 147.369 157.548C147.517 157.576 147.812 157.633 148.02 157.749L148.646 158.096ZM139.419 80.9829C139.63 81.0976 139.751 81.2737 140.045 81.3302C140.313 81.5351 140.375 81.6246 140.556 81.8886C140.737 82.1527 140.772 82.388 140.893 82.564C140.925 82.8013 141.046 82.9774 141.081 83.2126C141.112 83.4499 141.147 83.6852 141.182 83.9204C141.214 84.1578 141.189 84.3065 141.135 84.603C141.102 84.8296 141.036 85.0493 140.939 85.2553L140.596 85.8798C140.481 86.0884 140.367 86.2969 140.193 86.4163C139.99 86.6851 139.815 86.8056 139.641 86.9251C139.378 87.1058 139.143 87.1373 138.968 87.2578C138.733 87.2877 138.557 87.4082 138.322 87.4422L137.616 87.5386C137.379 87.5696 137.234 87.5423 136.938 87.4867C136.711 87.4526 136.491 87.3846 136.283 87.2861L135.659 86.9377C135.452 86.8209 135.242 86.7061 135.121 86.5301C134.853 86.3252 134.793 86.2372 134.611 85.9732C134.43 85.7091 134.394 85.4724 134.273 85.2963C134.241 85.059 134.12 84.883 134.086 84.6477L133.984 83.9399C133.952 83.7026 133.978 83.5553 134.033 83.2588C134.065 83.0318 134.13 82.8115 134.227 82.605L134.57 81.9805C134.685 81.772 134.8 81.5635 134.973 81.444C135.262 81.116 135.701 80.8148 136.11 80.6628C136.347 80.6318 136.521 80.5124 136.756 80.4784L137.462 80.382C137.697 80.352 137.847 80.3788 138.142 80.4354C138.29 80.4631 138.586 80.5187 138.794 80.6355L139.419 80.9829ZM166.751 59.5139C167.539 58.9727 168.511 58.7672 169.453 58.9439C170.395 59.1206 171.23 59.664 171.773 60.4553C172.317 61.2466 172.525 62.221 172.352 63.1635C172.179 64.106 171.639 64.9401 170.851 65.4813C170.063 66.0225 169.091 66.2279 168.149 66.0512C167.207 65.8746 166.372 65.3311 165.829 64.5398C165.285 63.7486 165.077 62.7742 165.25 61.8317C165.423 60.8892 165.963 60.0551 166.751 59.5139ZM227.685 17.6474C229.347 16.5058 231.562 16.921 232.708 18.5889C233.853 20.2568 233.447 22.4732 231.785 23.6149C230.124 24.7565 227.909 24.3413 226.763 22.6734C225.617 21.0055 226.024 18.7891 227.685 17.6474ZM196.475 39.0912C197.263 38.55 198.235 38.3446 199.177 38.5213C200.119 38.6979 200.954 39.2414 201.497 40.0327C202.041 40.824 202.249 41.7983 202.076 42.7408C201.903 43.6833 201.363 44.5174 200.575 45.0586C199.787 45.5998 198.815 45.8053 197.873 45.6286C196.931 45.4519 196.096 44.9085 195.553 44.1172C195.009 43.3259 194.801 42.3516 194.974 41.409C195.147 40.4665 195.687 39.6324 196.475 39.0912ZM157.87 107.836C158.08 107.951 158.201 108.127 158.496 108.184C158.763 108.388 158.885 108.566 159.006 108.742C159.188 109.006 159.222 109.241 159.343 109.417C159.375 109.655 159.496 109.831 159.531 110.066C159.563 110.303 159.597 110.539 159.632 110.774C159.664 111.011 159.639 111.16 159.585 111.456C159.552 111.683 159.487 111.903 159.39 112.109L159.047 112.733C158.932 112.942 158.817 113.15 158.643 113.27C158.44 113.538 158.265 113.659 158.091 113.778C157.828 113.959 157.594 113.991 157.418 114.111C157.183 114.141 157.008 114.262 156.773 114.296L156.067 114.392C155.83 114.423 155.684 114.396 155.388 114.34C155.161 114.306 154.941 114.238 154.734 114.139L154.109 113.791C153.902 113.674 153.692 113.56 153.571 113.383C153.303 113.179 153.182 113.003 153.061 112.827C152.88 112.563 152.844 112.326 152.723 112.15C152.692 111.912 152.571 111.736 152.536 111.501L152.435 110.793C152.403 110.556 152.428 110.409 152.483 110.112C152.515 109.885 152.58 109.665 152.677 109.458L153.02 108.834C153.135 108.625 153.25 108.417 153.424 108.297C153.713 107.969 154.151 107.668 154.561 107.516C154.798 107.485 154.972 107.366 155.206 107.332L155.912 107.235C156.148 107.205 156.297 107.232 156.592 107.289C156.74 107.317 157.037 107.372 157.244 107.489L157.87 107.836ZM246.135 44.5008C247.797 43.3592 250.012 43.7744 251.158 45.4423C252.304 47.1102 251.897 49.3266 250.235 50.4683C248.574 51.6099 246.359 51.1947 245.213 49.5268C244.067 47.8589 244.474 45.6425 246.135 44.5008ZM185.201 86.3673C185.989 85.8261 186.961 85.6206 187.903 85.7973C188.845 85.974 189.68 86.5174 190.224 87.3087C190.767 88.1 190.975 89.0743 190.802 90.0169C190.629 90.9594 190.089 91.7935 189.301 92.3347C188.514 92.8759 187.541 93.0813 186.599 92.9046C185.658 92.728 184.823 92.1845 184.279 91.3932C183.735 90.602 183.527 89.6276 183.7 88.6851C183.873 87.7426 184.414 86.9085 185.201 86.3673ZM214.925 65.9446C215.713 65.4034 216.685 65.198 217.627 65.3747C218.569 65.5513 219.404 66.0948 219.948 66.8861C220.491 67.6773 220.699 68.6517 220.526 69.5942C220.353 70.5367 219.813 71.3708 219.025 71.912C218.238 72.4532 217.265 72.6587 216.323 72.482C215.382 72.3053 214.547 71.7619 214.003 70.9706C213.459 70.1793 213.251 69.205 213.424 68.2624C213.597 67.3199 214.138 66.4858 214.925 65.9446ZM178.37 137.673C178.58 137.788 178.701 137.964 178.996 138.021C179.264 138.226 179.386 138.403 179.507 138.579C179.688 138.843 179.723 139.078 179.844 139.254C179.876 139.492 179.997 139.668 180.031 139.903C180.063 140.14 180.098 140.376 180.133 140.611C180.164 140.848 180.14 140.997 180.085 141.294C180.053 141.52 179.987 141.74 179.89 141.946L179.547 142.57C179.432 142.779 179.317 142.987 179.143 143.107C178.941 143.376 178.765 143.496 178.591 143.616C178.328 143.796 178.094 143.828 177.919 143.948C177.683 143.978 177.508 144.099 177.273 144.133L176.567 144.229C176.33 144.26 176.185 144.233 175.888 144.177C175.661 144.143 175.442 144.075 175.234 143.977L174.61 143.628C174.402 143.511 174.192 143.397 174.071 143.221C173.804 143.016 173.683 142.84 173.562 142.664C173.379 142.398 173.345 142.163 173.224 141.987C173.192 141.75 173.071 141.573 173.036 141.338L172.935 140.63C172.903 140.393 172.929 140.246 172.983 139.949C173.015 139.722 173.081 139.502 173.177 139.295L173.52 138.671C173.635 138.462 173.75 138.254 173.924 138.134C174.213 137.806 174.651 137.505 175.061 137.353C175.298 137.322 175.472 137.203 175.707 137.169L176.413 137.072C176.648 137.043 176.798 137.069 177.093 137.126C177.241 137.154 177.537 137.209 177.744 137.326L178.37 137.673ZM205.702 116.204C206.489 115.663 207.462 115.458 208.404 115.634C209.345 115.811 210.18 116.355 210.724 117.146C211.268 117.937 211.476 118.911 211.303 119.854C211.13 120.796 210.589 121.631 209.802 122.172C209.014 122.713 208.042 122.918 207.1 122.742C206.158 122.565 205.323 122.022 204.779 121.23C204.236 120.439 204.028 119.465 204.201 118.522C204.373 117.58 204.914 116.746 205.702 116.204ZM235.426 95.7817C236.213 95.2405 237.186 95.0351 238.128 95.2118C239.069 95.3884 239.904 95.9319 240.448 96.7232C240.992 97.5144 241.2 98.4888 241.027 99.4313C240.854 100.374 240.313 101.208 239.526 101.749C238.738 102.29 237.766 102.496 236.824 102.319C235.882 102.142 235.047 101.599 234.503 100.808C233.96 100.016 233.752 99.0421 233.925 98.0995C234.097 97.157 234.638 96.3229 235.426 95.7817ZM266.636 74.3379C268.297 73.1963 270.512 73.6115 271.658 75.2794C272.804 76.9473 272.397 79.1637 270.736 80.3054C269.074 81.447 266.859 81.0318 265.713 79.3639C264.567 77.696 264.974 75.4796 266.636 74.3379ZM73.1234 251.218C74.7849 250.076 76.9998 250.492 78.1458 252.16C79.2918 253.827 78.885 256.044 77.2234 257.185C75.5619 258.327 73.347 257.912 72.201 256.244C71.055 254.576 71.4618 252.36 73.1234 251.218ZM104.334 229.774C105.907 228.693 108.122 229.108 109.356 230.716C110.502 232.384 110.095 234.6 108.434 235.742C106.772 236.883 104.557 236.468 103.411 234.8C102.265 233.132 102.672 230.916 104.334 229.774ZM134.058 209.352C135.719 208.21 137.934 208.625 139.08 210.293C140.226 211.961 139.819 214.177 138.158 215.319C136.496 216.461 134.281 216.046 133.135 214.378C131.989 212.71 132.396 210.493 134.058 209.352ZM169.147 187.933C169.355 188.049 169.476 188.225 169.771 188.281C170.04 188.485 170.162 188.663 170.283 188.839C170.464 189.103 170.498 189.339 170.619 189.515C170.652 189.752 170.773 189.928 170.808 190.163L170.907 190.872C170.941 191.108 170.915 191.258 170.862 191.553C170.829 191.78 170.763 191.999 170.667 192.206L170.323 192.83C170.208 193.039 170.094 193.247 169.92 193.367C169.717 193.635 169.543 193.755 169.368 193.875C169.106 194.055 168.87 194.087 168.695 194.208C168.46 194.238 168.284 194.358 168.049 194.392C167.814 194.422 167.579 194.456 167.343 194.489C167.108 194.519 166.961 194.492 166.665 194.437C166.438 194.402 166.219 194.335 166.012 194.235L165.386 193.888C165.179 193.771 164.97 193.655 164.849 193.479C164.58 193.275 164.458 193.098 164.338 192.923C164.156 192.658 164.122 192.422 164.002 192.246C163.881 192.069 163.847 191.833 163.813 191.598L163.713 190.889C163.679 190.653 163.707 190.505 163.76 190.209C163.787 190.058 163.841 189.764 163.954 189.555L164.297 188.931C164.412 188.722 164.527 188.514 164.701 188.394C164.991 188.065 165.428 187.765 165.837 187.613C166.074 187.582 166.248 187.463 166.483 187.429L167.189 187.332C167.424 187.302 167.573 187.33 167.869 187.386C168.017 187.413 168.312 187.47 168.521 187.586L169.147 187.933ZM92.5987 279.563C93.387 279.022 94.3593 278.817 95.3011 278.993C96.243 279.17 97.0779 279.714 97.6211 280.505C98.1644 281.295 98.373 282.27 98.1999 283.212C98.0268 284.155 97.4871 284.989 96.6988 285.531C95.9105 286.072 94.9382 286.277 93.9963 286.101C93.0545 285.924 92.2196 285.38 91.6763 284.589C91.1331 283.799 90.9245 282.824 91.0976 281.882C91.2707 280.939 91.8104 280.105 92.5987 279.563ZM153.533 237.697C154.321 237.155 155.293 236.951 156.235 237.127C157.177 237.303 158.012 237.848 158.555 238.638C159.099 239.429 159.307 240.404 159.134 241.346C158.961 242.288 158.421 243.123 157.633 243.664C156.845 244.206 155.872 244.411 154.931 244.234C153.989 244.058 153.154 243.514 152.611 242.723C152.067 241.932 151.859 240.958 152.032 240.015C152.205 239.073 152.745 238.238 153.533 237.697ZM123.809 258.12C124.597 257.578 125.569 257.373 126.511 257.55C127.453 257.726 128.288 258.27 128.831 259.061C129.375 259.852 129.583 260.826 129.41 261.769C129.237 262.711 128.697 263.545 127.909 264.087C127.121 264.629 126.148 264.833 125.207 264.657C124.265 264.48 123.43 263.936 122.887 263.146C122.343 262.355 122.135 261.38 122.308 260.438C122.481 259.495 123.021 258.661 123.809 258.12ZM188.623 216.28C188.831 216.394 189.013 216.66 189.247 216.628C189.515 216.831 189.637 217.008 189.758 217.184C189.94 217.448 189.973 217.684 190.094 217.86C190.127 218.097 190.248 218.273 190.284 218.51L190.383 219.217C190.416 219.453 190.39 219.603 190.337 219.899C190.309 220.049 190.255 220.343 190.142 220.551L189.799 221.175C189.685 221.385 189.57 221.594 189.396 221.713C189.192 221.981 189.019 222.1 188.843 222.221C188.582 222.4 188.347 222.434 188.171 222.555C187.936 222.585 187.761 222.705 187.524 222.736L186.819 222.834C186.584 222.866 186.436 222.838 186.14 222.782C185.914 222.748 185.694 222.68 185.487 222.581L184.862 222.235C184.654 222.116 184.446 222.001 184.325 221.825C184.055 221.621 183.934 221.445 183.814 221.269C183.632 221.005 183.599 220.768 183.478 220.592C183.356 220.415 183.323 220.178 183.289 219.945L183.188 219.234C183.155 218.998 183.182 218.85 183.235 218.554C183.264 218.405 183.317 218.109 183.43 217.902L183.772 217.276C183.888 217.069 184.003 216.86 184.177 216.741C184.466 216.41 184.903 216.11 185.314 215.96C185.55 215.927 185.724 215.808 185.958 215.774L186.665 215.679C186.9 215.648 187.047 215.674 187.344 215.731C187.493 215.76 187.787 215.815 187.996 215.931C188.206 216.046 188.413 216.163 188.623 216.28ZM173.008 266.042C173.797 265.501 174.769 265.296 175.711 265.472C176.653 265.649 177.487 266.193 178.031 266.984C178.574 267.774 178.783 268.749 178.609 269.691C178.436 270.634 177.897 271.468 177.108 272.01C176.32 272.551 175.348 272.756 174.406 272.579C173.464 272.403 172.629 271.859 172.086 271.068C171.543 270.277 171.334 269.303 171.507 268.36C171.68 267.418 172.22 266.584 173.008 266.042ZM112.074 307.909C112.862 307.367 113.835 307.162 114.777 307.339C115.718 307.515 116.553 308.059 117.096 308.85C117.64 309.641 117.848 310.615 117.675 311.558C117.502 312.5 116.962 313.334 116.174 313.876C115.386 314.418 114.414 314.622 113.472 314.446C112.53 314.269 111.695 313.725 111.152 312.935C110.608 312.144 110.4 311.169 110.573 310.227C110.746 309.284 111.286 308.45 112.074 307.909ZM143.284 286.465C144.073 285.923 145.045 285.719 145.987 285.895C146.929 286.071 147.763 286.616 148.307 287.406C148.85 288.197 149.059 289.171 148.885 290.114C148.712 291.056 148.173 291.891 147.384 292.432C146.596 292.974 145.624 293.178 144.682 293.002C143.74 292.826 142.905 292.281 142.362 291.491C141.819 290.7 141.61 289.726 141.783 288.783C141.956 287.841 142.496 287.006 143.284 286.465ZM208.098 244.625C208.306 244.739 208.427 244.915 208.723 244.973C208.991 245.176 209.113 245.353 209.234 245.529C209.415 245.793 209.448 246.03 209.569 246.206C209.603 246.442 209.724 246.618 209.759 246.855L209.858 247.562C209.891 247.798 209.865 247.948 209.812 248.244C209.785 248.395 209.731 248.689 209.617 248.896L209.274 249.521C209.16 249.731 209.045 249.939 208.871 250.059C208.668 250.326 208.494 250.445 208.319 250.566C208.057 250.746 207.822 250.779 207.647 250.9C207.411 250.93 207.236 251.05 206.999 251.081L206.294 251.179C206.06 251.211 205.912 251.183 205.615 251.127C205.389 251.094 205.169 251.025 204.963 250.926L204.338 250.58C204.13 250.462 203.921 250.346 203.8 250.17C203.531 249.966 203.41 249.79 203.289 249.614C203.107 249.35 203.074 249.114 202.953 248.938C202.831 248.76 202.798 248.524 202.764 248.29L202.663 247.58C202.63 247.343 202.657 247.195 202.71 246.9C202.739 246.75 202.792 246.455 202.905 246.247L203.248 245.621C203.363 245.414 203.478 245.206 203.652 245.086C203.941 244.756 204.378 244.456 204.789 244.305C205.025 244.273 205.199 244.153 205.434 244.119L206.141 244.024C206.375 243.993 206.522 244.019 206.82 244.076C206.969 244.105 207.263 244.16 207.471 244.276C207.681 244.391 207.889 244.508 208.098 244.625ZM198.872 167.512C199.081 167.625 199.202 167.801 199.496 167.858C199.764 168.063 199.886 168.24 200.007 168.416C200.188 168.68 200.223 168.916 200.344 169.092C200.376 169.329 200.497 169.505 200.532 169.74C200.563 169.978 200.598 170.213 200.633 170.448C200.665 170.685 200.64 170.834 200.586 171.131C200.553 171.357 200.488 171.578 200.391 171.783L200.047 172.407C199.932 172.616 199.818 172.824 199.644 172.944C199.441 173.213 199.266 173.333 199.092 173.453C198.829 173.633 198.594 173.665 198.419 173.785C198.184 173.815 198.008 173.936 197.773 173.97L197.067 174.066C196.831 174.097 196.685 174.07 196.389 174.014C196.162 173.981 195.942 173.912 195.734 173.814L195.11 173.465C194.903 173.348 194.693 173.234 194.572 173.058C194.304 172.853 194.183 172.677 194.062 172.501C193.88 172.235 193.845 172 193.724 171.824C193.692 171.587 193.571 171.411 193.537 171.175L193.435 170.467C193.403 170.23 193.429 170.083 193.484 169.786C193.516 169.559 193.581 169.339 193.678 169.133L194.021 168.508C194.136 168.3 194.251 168.091 194.425 167.972C194.713 167.644 195.152 167.342 195.561 167.19C195.798 167.159 195.972 167.04 196.207 167.006C196.442 166.976 196.679 166.941 196.913 166.91C197.148 166.88 197.298 166.906 197.593 166.963C197.741 166.991 198.037 167.046 198.245 167.163L198.871 167.51L198.872 167.512ZM287.136 104.175C288.798 103.033 291.013 103.449 292.159 105.116C293.305 106.784 292.898 109.001 291.236 110.142C289.575 111.284 287.36 110.869 286.214 109.201C285.068 107.533 285.475 105.317 287.136 104.175ZM255.926 125.619C257.5 124.537 259.715 124.953 260.948 126.56C262.094 128.228 261.688 130.445 260.026 131.586C258.364 132.728 256.15 132.313 255.004 130.645C253.858 128.977 254.264 126.76 255.926 125.619ZM226.202 146.041C227.864 144.9 230.078 145.315 231.224 146.983C232.37 148.651 231.964 150.867 230.302 152.009C228.64 153.15 226.426 152.735 225.28 151.067C224.134 149.4 224.54 147.183 226.202 146.041ZM218.347 195.857C218.556 195.97 218.738 196.236 218.973 196.205C219.239 196.408 219.361 196.585 219.482 196.761C219.664 197.026 219.699 197.261 219.819 197.437C219.851 197.674 219.972 197.85 220.008 198.087C220.04 198.324 220.075 198.56 220.108 198.793C220.14 199.031 220.115 199.179 220.061 199.476C220.035 199.626 219.981 199.92 219.866 200.128L219.523 200.753C219.409 200.963 219.294 201.171 219.12 201.291C218.916 201.558 218.741 201.678 218.567 201.798C218.304 201.979 218.071 202.012 217.895 202.132C217.66 202.162 217.485 202.283 217.248 202.314L216.543 202.411C216.307 202.444 216.16 202.415 215.864 202.36C215.638 202.326 215.416 202.259 215.21 202.159L214.586 201.812C214.378 201.694 214.168 201.579 214.047 201.403C213.779 201.198 213.658 201.022 213.538 200.846C213.356 200.582 213.321 200.347 213.2 200.171C213.168 199.932 213.047 199.756 213.013 199.522L212.911 198.813C212.879 198.575 212.905 198.428 212.959 198.132C212.986 197.983 213.039 197.688 213.154 197.479L213.496 196.853C213.612 196.646 213.727 196.438 213.901 196.318C214.189 195.989 214.627 195.688 215.038 195.537C215.274 195.505 215.448 195.385 215.682 195.351L216.389 195.256C216.624 195.225 216.772 195.25 217.068 195.308C217.217 195.337 217.513 195.392 217.72 195.508C217.93 195.623 218.137 195.74 218.347 195.857ZM306.611 132.52C308.273 131.379 310.488 131.794 311.634 133.462C312.78 135.13 312.373 137.346 310.712 138.488C309.05 139.629 306.835 139.214 305.689 137.546C304.543 135.878 304.95 133.662 306.611 132.52ZM275.401 153.964C276.189 153.423 277.162 153.218 278.103 153.394C279.045 153.571 279.88 154.115 280.424 154.906C280.967 155.696 281.175 156.671 281.002 157.613C280.829 158.556 280.289 159.39 279.501 159.931C278.714 160.473 277.741 160.678 276.799 160.501C275.857 160.325 275.022 159.781 274.479 158.99C273.936 158.199 273.727 157.225 273.9 156.282C274.073 155.34 274.614 154.505 275.401 153.964ZM245.677 174.387C246.465 173.846 247.438 173.641 248.379 173.817C249.321 173.994 250.156 174.537 250.7 175.328C251.243 176.119 251.451 177.094 251.278 178.036C251.105 178.978 250.565 179.813 249.777 180.354C248.99 180.895 248.017 181.1 247.075 180.924C246.133 180.747 245.298 180.203 244.755 179.413C244.212 178.622 244.003 177.647 244.176 176.705C244.349 175.762 244.89 174.928 245.677 174.387ZM237.822 224.202C238.031 224.316 238.152 224.492 238.448 224.55C238.715 224.753 238.837 224.931 238.958 225.107C239.139 225.371 239.174 225.606 239.295 225.782C239.327 226.019 239.448 226.195 239.483 226.432C239.515 226.67 239.55 226.905 239.584 227.139C239.615 227.376 239.591 227.525 239.536 227.821C239.51 227.971 239.456 228.265 239.341 228.473L238.998 229.098C238.884 229.308 238.769 229.516 238.595 229.636C238.392 229.903 238.216 230.024 238.042 230.143C237.779 230.324 237.546 230.357 237.371 230.477C237.135 230.507 236.96 230.628 236.723 230.659L236.018 230.757C235.782 230.789 235.636 230.76 235.339 230.705C235.113 230.671 234.891 230.604 234.685 230.504L234.062 230.157C233.853 230.039 233.643 229.924 233.522 229.748C233.255 229.543 233.134 229.367 233.013 229.191C232.831 228.927 232.797 228.692 232.676 228.516C232.643 228.277 232.522 228.101 232.488 227.867L232.386 227.158C232.354 226.921 232.38 226.773 232.434 226.477C232.462 226.329 232.514 226.033 232.629 225.825L232.972 225.199C233.087 224.992 233.202 224.783 233.376 224.664C233.664 224.334 234.102 224.033 234.513 223.882C234.749 223.85 234.923 223.73 235.158 223.697L235.865 223.602C236.099 223.57 236.248 223.595 236.544 223.653C236.693 223.683 236.988 223.737 237.195 223.854C237.405 223.968 237.613 224.085 237.822 224.202ZM326.087 160.866C327.748 159.724 329.963 160.139 331.109 161.807C332.255 163.475 331.848 165.691 330.187 166.833C328.525 167.975 326.31 167.559 325.164 165.892C324.018 164.224 324.425 162.007 326.087 160.866ZM294.877 182.309C295.664 181.768 296.637 181.563 297.579 181.74C298.52 181.916 299.356 182.46 299.899 183.251C300.442 184.041 300.65 185.016 300.477 185.959C300.305 186.901 299.764 187.736 298.977 188.277C298.189 188.818 297.216 189.023 296.275 188.846C295.333 188.67 294.497 188.126 293.954 187.335C293.411 186.545 293.203 185.57 293.376 184.627C293.549 183.685 294.089 182.851 294.877 182.309ZM265.153 202.732C265.94 202.191 266.913 201.986 267.855 202.162C268.796 202.339 269.632 202.883 270.175 203.673C270.718 204.464 270.926 205.439 270.754 206.381C270.581 207.324 270.04 208.158 269.253 208.699C268.465 209.241 267.492 209.446 266.551 209.269C265.609 209.093 264.774 208.549 264.23 207.758C263.687 206.967 263.479 205.992 263.652 205.05C263.825 204.108 264.365 203.273 265.153 202.732ZM55.1312 94.4788C55.9195 93.9372 56.8915 93.7321 57.8334 93.9087C58.7754 94.0852 59.61 94.629 60.1536 95.4203C60.6973 96.2115 60.9056 97.1856 60.7326 98.1282C60.5596 99.0708 60.0195 99.9046 59.2313 100.446C58.443 100.988 57.471 101.193 56.529 101.016C55.5871 100.84 54.7525 100.296 54.2088 99.5048C53.6652 98.7135 53.4569 97.7394 53.6299 96.7968C53.8028 95.8542 54.3429 95.0204 55.1312 94.4788ZM25.4072 114.901C26.1955 114.36 27.1675 114.155 28.1094 114.331C29.0514 114.508 29.886 115.052 30.4296 115.843C30.9733 116.634 31.1816 117.608 31.0086 118.551C30.8356 119.493 30.2955 120.327 29.5073 120.869C28.719 121.41 27.747 121.616 26.805 121.439C25.8631 121.262 25.0285 120.719 24.4848 119.927C23.9412 119.136 23.7329 118.162 23.9059 117.219C24.0789 116.277 24.6189 115.443 25.4072 114.901ZM90.2202 73.0603C90.4288 73.1761 90.5498 73.3521 90.8446 73.4087C91.1137 73.6125 91.1752 73.702 91.3566 73.966C91.5381 74.2301 91.5713 74.4664 91.6923 74.6424C91.7255 74.8787 91.8465 75.0547 91.8813 75.29L91.9811 75.9989C92.0143 76.2352 91.9881 76.3849 91.9352 76.6804C91.9026 76.9064 91.8369 77.1261 91.7402 77.3327L91.397 77.9572C91.2821 78.1657 91.1672 78.3743 90.9933 78.4937C90.7907 78.7625 90.6168 78.882 90.4415 79.0025C90.1799 79.1822 89.944 79.2147 89.7687 79.3351C89.5333 79.3651 89.3579 79.4856 89.1231 79.5196C88.8877 79.5495 88.6529 79.5835 88.417 79.616C88.1816 79.6459 88.0345 79.6197 87.7382 79.5641C87.5119 79.5294 87.292 79.4615 87.0855 79.3625L86.4596 79.0151C86.2525 78.8983 86.0438 78.7825 85.9229 78.6065C85.6537 78.4026 85.5933 78.3146 85.4118 78.0506C85.2304 77.7865 85.1961 77.5487 85.0752 77.3727C84.9542 77.1967 84.921 76.9604 84.8862 76.7251L84.7864 76.0163C84.7531 75.78 84.7803 75.6317 84.8333 75.3362C84.8609 75.1854 84.9149 74.8914 85.0273 74.6824L85.3705 74.0579C85.4854 73.8494 85.6003 73.6409 85.7742 73.5214C86.0644 73.1924 86.5014 72.8922 86.9111 72.7402C87.148 72.7092 87.3219 72.5898 87.5567 72.5558L88.2627 72.4594C88.4981 72.4294 88.6463 72.4572 88.9426 72.5128C89.0908 72.5405 89.3856 72.5971 89.5943 72.7129L90.2202 73.0603ZM119.944 52.6376C120.154 52.7524 120.275 52.9284 120.57 52.985C120.838 53.1898 120.899 53.2793 121.081 53.5434C121.262 53.8075 121.297 54.0427 121.418 54.2188C121.45 54.4561 121.57 54.6321 121.605 54.8674C121.637 55.1047 121.672 55.3399 121.707 55.5752C121.738 55.8125 121.714 55.9613 121.659 56.2578C121.627 56.4843 121.561 56.704 121.464 56.9101L121.121 57.5346C121.006 57.7431 120.891 57.9516 120.717 58.0711C120.515 58.3399 120.339 58.4603 120.165 58.5798C119.902 58.7606 119.668 58.792 119.493 58.9125C119.257 58.9425 119.082 59.063 118.847 59.0969L118.141 59.1933C117.904 59.2243 117.758 59.197 117.462 59.1415C117.235 59.1074 117.016 59.0393 116.808 58.9409L116.184 58.5925C115.976 58.4756 115.766 58.3609 115.645 58.1848C115.378 57.98 115.317 57.892 115.136 57.6279C114.954 57.3639 114.919 57.1271 114.798 56.9511C114.766 56.7138 114.645 56.5377 114.61 56.3025L114.509 55.5946C114.477 55.3573 114.503 55.2101 114.557 54.9135C114.589 54.6865 114.655 54.4662 114.751 54.2598L115.094 53.6352C115.209 53.4267 115.324 53.2182 115.498 53.0987C115.787 52.7708 116.225 52.4695 116.635 52.3176C116.872 52.2866 117.046 52.1671 117.281 52.1332L117.987 52.0368C118.222 52.0068 118.372 52.0335 118.667 52.0901C118.815 52.1179 119.111 52.1734 119.318 52.2902L119.944 52.6376ZM177 10.746C177.787 10.2048 178.76 9.99935 179.701 10.176C180.643 10.3527 181.478 10.8962 182.022 11.6874C182.566 12.4787 182.773 13.4531 182.601 14.3956C182.428 15.3381 181.887 16.1722 181.1 16.7134C180.312 17.2546 179.339 17.46 178.398 17.2834C177.456 17.1067 176.621 16.5632 176.077 15.772C175.534 14.9807 175.326 14.0063 175.499 13.0638C175.671 12.1213 176.212 11.2872 177 10.746ZM147.276 31.1686C148.063 30.6274 149.036 30.422 149.977 30.5987C150.919 30.7753 151.754 31.3188 152.298 32.1101C152.842 32.9013 153.05 33.8757 152.877 34.8182C152.704 35.7608 152.163 36.5948 151.376 37.136C150.588 37.6772 149.615 37.8827 148.674 37.706C147.732 37.5293 146.897 36.9859 146.353 36.1946C145.81 35.4033 145.602 34.429 145.775 33.4864C145.947 32.5439 146.488 31.7098 147.276 31.1686ZM34.6308 64.6417C35.4191 64.1001 36.3911 63.895 37.3331 64.0715C38.275 64.2481 39.1096 64.7918 39.6533 65.5832C40.197 66.3745 40.4053 67.3486 40.2322 68.2911C40.0592 69.2337 39.5192 70.0675 38.7309 70.6091C37.9426 71.1507 36.9706 71.3558 36.0287 71.1793C35.0867 71.0028 34.2522 70.459 33.7085 69.6677C33.1648 68.8764 32.9565 67.9023 33.1295 66.9597C33.3025 66.0171 33.8425 65.1833 34.6308 64.6417ZM69.7198 43.2232C69.9284 43.339 70.0494 43.515 70.3442 43.5716C70.6134 43.7754 70.7353 43.9529 70.8563 44.1289C71.0377 44.393 71.071 44.6293 71.1919 44.8053C71.2252 45.0416 71.3461 45.2176 71.3809 45.4529L71.4807 46.1618C71.514 46.3981 71.4878 46.5478 71.4349 46.8433C71.4022 47.0693 71.3366 47.2891 71.2398 47.4956L70.8966 48.1201C70.7817 48.3286 70.6668 48.5372 70.4929 48.6566C70.2904 48.9254 70.1165 49.0449 69.9411 49.1654C69.6795 49.3451 69.4437 49.3776 69.2683 49.498C69.0329 49.528 68.8575 49.6485 68.6227 49.6825C68.3873 49.7124 68.1525 49.7464 67.9167 49.7789C67.6813 49.8088 67.5341 49.7826 67.2378 49.727C67.0116 49.6923 66.7917 49.6244 66.5852 49.5254L65.9592 49.178C65.7521 49.0612 65.5435 48.9454 65.4225 48.7694C65.1534 48.5655 65.0314 48.388 64.9115 48.2135C64.729 47.9479 64.6958 47.7116 64.5748 47.5356C64.4539 47.3596 64.4206 47.1233 64.3858 46.888L64.286 46.1791C64.2528 45.9429 64.28 45.7946 64.3329 45.4991C64.3606 45.3483 64.4145 45.0543 64.5269 44.8453L64.8701 44.2208C64.985 44.0123 65.0999 43.8038 65.2738 43.6843C65.5641 43.3553 66.001 43.0551 66.4107 42.9031C66.6476 42.8721 66.8215 42.7527 67.0563 42.7187L67.7624 42.6223C67.9978 42.5923 68.1459 42.6201 68.4423 42.6757C68.5904 42.7034 68.8852 42.76 69.0939 42.8758L69.7198 43.2232ZM99.4438 22.8005C99.6539 22.9153 99.7749 23.0913 100.07 23.1479C100.337 23.3527 100.459 23.5303 100.58 23.7063C100.762 23.9704 100.796 24.2056 100.917 24.3817C100.949 24.619 101.07 24.795 101.105 25.0303C101.137 25.2676 101.171 25.5028 101.206 25.7381C101.238 25.9754 101.213 26.1242 101.159 26.4207C101.126 26.6472 101.061 26.867 100.964 27.073L100.621 27.6975C100.506 27.906 100.391 28.1145 100.217 28.234C100.014 28.5027 99.839 28.6232 99.6651 28.7427C99.402 28.9235 99.1677 28.9549 98.9923 29.0754C98.7569 29.1054 98.5815 29.2259 98.3467 29.2598L97.6407 29.3562C97.4038 29.3872 97.2581 29.3599 96.9618 29.3044C96.7349 29.2703 96.5153 29.2021 96.3077 29.1038L95.6832 28.7554C95.4761 28.6385 95.266 28.5238 95.145 28.3477C94.8774 28.1429 94.7554 27.9654 94.6355 27.7908C94.453 27.5253 94.4183 27.29 94.2973 27.114C94.2655 26.8767 94.1446 26.7006 94.1098 26.4654L94.0085 25.7575C93.9768 25.5202 94.0025 25.373 94.0569 25.0764C94.0891 24.8494 94.1543 24.6291 94.2509 24.4227L94.5941 23.7981C94.709 23.5896 94.8239 23.3811 94.9978 23.2616C95.2866 22.9337 95.725 22.6324 96.1347 22.4805C96.3716 22.4495 96.5455 22.33 96.7803 22.2961C97.0157 22.2661 97.252 22.2311 97.4864 22.1997C97.7218 22.1697 97.8714 22.1964 98.1662 22.253C98.3144 22.2808 98.6107 22.3363 98.8179 22.4531L99.4438 22.8005ZM126.775 1.33152C127.563 0.790324 128.535 0.584918 129.477 0.76155C130.419 0.938172 131.254 1.48165 131.798 2.27297C132.341 3.06429 132.549 4.03867 132.376 4.98115C132.203 5.92362 131.663 6.75775 130.875 7.29895C130.088 7.84014 129.115 8.04554 128.173 7.86891C127.232 7.69228 126.397 7.14882 125.853 6.3575C125.309 5.56618 125.101 4.59179 125.274 3.64931C125.447 2.70684 125.988 1.87272 126.775 1.33152ZM193.509 295.879C194.297 295.338 195.269 295.133 196.211 295.309C197.153 295.486 197.988 296.03 198.531 296.821C199.074 297.611 199.283 298.586 199.11 299.528C198.937 300.471 198.397 301.305 197.609 301.847C196.82 302.388 195.848 302.593 194.906 302.417C193.964 302.24 193.129 301.696 192.586 300.905C192.043 300.115 191.834 299.14 192.007 298.198C192.181 297.255 192.72 296.421 193.509 295.879ZM163.785 316.302C164.573 315.76 165.545 315.556 166.487 315.732C167.429 315.908 168.264 316.453 168.807 317.243C169.35 318.034 169.559 319.009 169.386 319.951C169.213 320.893 168.673 321.728 167.885 322.269C167.096 322.811 166.124 323.016 165.182 322.839C164.24 322.663 163.405 322.119 162.862 321.328C162.319 320.537 162.11 319.563 162.283 318.62C162.457 317.678 162.996 316.843 163.785 316.302ZM228.599 274.462C228.806 274.576 228.927 274.753 229.223 274.811C229.491 275.013 229.553 275.102 229.734 275.366C229.915 275.631 229.949 275.867 230.07 276.043C230.103 276.279 230.224 276.455 230.26 276.692L230.358 277.399C230.392 277.636 230.366 277.785 230.313 278.081C230.285 278.232 230.231 278.526 230.118 278.733L229.774 279.358C229.66 279.568 229.546 279.776 229.372 279.896C229.168 280.163 228.994 280.282 228.819 280.403C228.557 280.583 228.322 280.617 228.147 280.737C227.912 280.767 227.736 280.888 227.499 280.919L226.794 281.016C226.56 281.048 226.412 281.02 226.116 280.965C225.89 280.931 225.67 280.862 225.463 280.763L224.838 280.417C224.63 280.299 224.421 280.183 224.3 280.007C224.031 279.803 223.971 279.715 223.789 279.451C223.608 279.187 223.575 278.951 223.454 278.775C223.332 278.597 223.298 278.361 223.265 278.127L223.164 277.417C223.131 277.18 223.158 277.032 223.211 276.737C223.239 276.587 223.292 276.292 223.406 276.084L223.748 275.458C223.864 275.251 223.979 275.043 224.153 274.923C224.442 274.593 224.879 274.293 225.29 274.142C225.525 274.11 225.699 273.99 225.934 273.956L226.641 273.861C226.876 273.83 227.023 273.856 227.32 273.913C227.469 273.942 227.763 273.998 227.972 274.113C228.182 274.228 228.389 274.345 228.599 274.462ZM258.323 254.04C258.532 254.153 258.653 254.329 258.949 254.387C259.215 254.59 259.277 254.68 259.458 254.944C259.639 255.208 259.674 255.443 259.795 255.619C259.827 255.857 259.948 256.033 259.984 256.269C260.015 256.507 260.05 256.742 260.084 256.976C260.116 257.213 260.091 257.362 260.037 257.658C260.01 257.808 259.956 258.102 259.842 258.311L259.498 258.935C259.384 259.145 259.27 259.354 259.096 259.473C258.892 259.74 258.717 259.861 258.543 259.98C258.28 260.161 258.046 260.194 257.871 260.314C257.636 260.344 257.46 260.465 257.223 260.496L256.518 260.594C256.283 260.626 256.136 260.597 255.84 260.542C255.613 260.509 255.392 260.441 255.185 260.341L254.562 259.994C254.354 259.876 254.144 259.761 254.023 259.585C253.755 259.38 253.695 259.292 253.513 259.028C253.332 258.764 253.297 258.529 253.176 258.353C253.143 258.114 253.022 257.938 252.989 257.704L252.886 256.995C252.855 256.758 252.88 256.611 252.935 256.314C252.962 256.166 253.015 255.87 253.13 255.662L253.472 255.036C253.588 254.829 253.703 254.62 253.877 254.501C254.164 254.171 254.603 253.87 255.014 253.72C255.249 253.687 255.423 253.568 255.658 253.534L256.365 253.439C256.6 253.407 256.748 253.433 257.044 253.491C257.193 253.52 257.488 253.574 257.696 253.691C257.906 253.805 258.113 253.922 258.323 254.04ZM315.377 212.146C316.165 211.605 317.137 211.4 318.079 211.577C319.021 211.753 319.856 212.297 320.399 213.088C320.943 213.879 321.151 214.853 320.978 215.796C320.805 216.738 320.265 217.573 319.477 218.114C318.689 218.655 317.717 218.86 316.775 218.684C315.833 218.507 314.998 217.963 314.455 217.172C313.911 216.382 313.703 215.407 313.876 214.465C314.049 213.522 314.589 212.688 315.377 212.146ZM285.653 232.569C286.441 232.028 287.413 231.823 288.355 231.999C289.297 232.176 290.132 232.72 290.675 233.511C291.219 234.301 291.427 235.276 291.254 236.218C291.081 237.161 290.541 237.995 289.753 238.536C288.965 239.078 287.993 239.283 287.051 239.106C286.109 238.93 285.274 238.386 284.731 237.595C284.187 236.804 283.979 235.83 284.152 234.887C284.325 233.945 284.865 233.11 285.653 232.569Z" fill="#E5E5E5"/>
</svg>
