<svg width="28" height="28" viewBox="0 0 28 28" fill="none" xmlns="http://www.w3.org/2000/svg">
<g id="Hand wave">
<g id="Group">
<g id="Group_2">
<g id="Group_3">
<g id="Group_4">
<g id="Group_5">
<path id="Vector" d="M7.70435 22.3507L0.806421 13.3923C0.155467 12.5501 0.308632 11.3305 1.14557 10.6742C1.98251 10.0179 3.19143 10.1656 3.84238 11.0133L8.63975 17.2426L7.70435 22.3507Z" fill="#A2BBF7"/>
<path id="Vector_2" d="M8.64097 17.2435L1.73757 8.28509C1.08662 7.44285 1.23979 6.22324 2.07673 5.56695C2.91367 4.91066 4.12258 5.05832 4.77354 5.90603L11.6715 14.8644L8.64097 17.2435Z" fill="#A2BBF7"/>
<path id="Vector_3" d="M14.7136 12.4868L9.21609 5.34411C8.56513 4.50187 8.7183 3.28226 9.55524 2.62597C10.3922 1.96968 11.6011 2.11734 12.2521 2.96505L19.4618 12.3227L14.7136 12.4868Z" fill="#A2BBF7"/>
<path id="Vector_4" d="M10.2772 13.0438L3.3738 4.09088C2.72285 3.24864 2.87602 2.02903 3.71296 1.37273C4.5499 0.716443 5.75881 0.864108 6.40977 1.71182L13.3077 10.6702L10.2772 13.0438Z" fill="#A2BBF7"/>
<path id="Vector_5" d="M6.29395 20.5265L9.34085 24.4862C12.0431 27.9918 17.0593 28.6208 20.5438 25.8917C22.3271 24.4971 23.4376 22.4079 23.6126 20.1382L24.4496 9.16174C24.5808 7.47178 23.3063 6.01153 21.6269 5.91856C21.2221 5.89668 20.8556 6.17561 20.7736 6.58032L19.7178 11.6447C19.6084 12.1643 19.324 12.6291 18.9082 12.9518C16.8186 14.5926 15.5988 17.1138 15.6042 19.7773V19.9632L19.4553 12.3229L13.3067 9.55551L8.27963 14.0949L6.29395 20.5265Z" fill="#A2BBF7"/>
</g>
</g>
</g>
<path id="Vector_6" d="M6.62576 26.3641C5.11598 26.1727 3.77031 25.4016 2.83491 24.1874C1.8995 22.9733 1.48924 21.4638 1.68069 19.9379C1.70805 19.7137 1.54941 19.5059 1.32513 19.4785C1.10085 19.4512 0.892986 19.6098 0.865635 19.834C0.646826 21.5732 1.11726 23.3014 2.18395 24.6851C3.25611 26.0743 4.79324 26.9603 6.5273 27.1736C6.7461 27.2009 6.95944 27.0423 6.98679 26.8181C7.00867 26.5938 6.85004 26.3915 6.62576 26.3641ZM23.8022 17.6628C23.5779 17.6464 23.381 17.8159 23.3646 18.0402L23.206 20.1075C23.0418 22.2568 21.9806 24.2476 20.2903 25.5711C18.693 26.8235 16.7073 27.3759 14.6998 27.1243C12.6922 26.8727 10.9035 25.85 9.66719 24.2366L4.011 16.8916C3.87425 16.7112 3.61715 16.6783 3.43663 16.8151C3.25611 16.9518 3.22329 17.2089 3.36005 17.3893L9.01624 24.7343C10.3893 26.5173 12.3749 27.6548 14.5958 27.9338C16.8003 28.2127 19.0212 27.6056 20.7936 26.211C22.6644 24.7453 23.835 22.5412 24.021 20.1676L24.1796 18.1003C24.1961 17.8761 24.0265 17.6792 23.8022 17.6628ZM6.86645 24.4226C4.80418 24.1655 3.33817 22.2568 3.59527 20.1731C3.62262 19.9489 3.46398 19.741 3.2397 19.7137C3.01542 19.6864 2.80756 19.845 2.78021 20.0692C2.46293 22.6014 4.24622 24.9203 6.76252 25.232C6.98132 25.2594 7.19466 25.1008 7.22201 24.8765C7.25483 24.6578 7.09073 24.4499 6.86645 24.4226ZM22.287 0.00306567C22.0627 -0.0242798 21.8548 0.134324 21.8275 0.358557C21.8001 0.58279 21.9587 0.790616 22.183 0.817962C25.3065 1.21174 27.5274 4.09395 27.1336 7.24415C27.1062 7.46839 27.2648 7.67621 27.4891 7.70356C27.7079 7.7309 27.9213 7.5723 27.9486 7.34807C28.3972 3.74393 25.859 0.451532 22.287 0.00306567ZM21.6469 5.51045C21.0343 5.47763 20.4982 5.89328 20.3724 6.50036L19.333 11.4936L12.5719 2.71574C11.7951 1.69302 10.3017 1.51801 9.30069 2.30556C8.84666 2.66105 8.55674 3.15327 8.45281 3.68377L6.74063 1.45785C5.96387 0.435124 4.4705 0.260113 3.46945 1.04766C2.45746 1.84068 2.27148 3.31734 3.05919 4.34006L3.37646 4.75571C2.8185 4.72837 2.27695 4.89791 1.83386 5.24793C0.821873 6.04095 0.635886 7.51761 1.4236 8.54033L2.44105 9.86385C1.88309 9.83651 1.34154 10.006 0.898456 10.3561C-0.113532 11.1491 -0.299519 12.6257 0.48819 13.6485L2.20036 15.8744C2.33712 16.0549 2.59422 16.0877 2.77474 15.951C2.95525 15.8142 2.98807 15.5572 2.85132 15.3767L1.13914 13.1508C0.624946 12.4836 0.74529 11.521 1.40718 11.0069C2.05267 10.4983 3.0209 10.6131 3.52415 11.2749L8.31058 17.4987C8.44734 17.6792 8.70991 17.712 8.88496 17.5753C9.06547 17.4386 9.09829 17.1815 8.96154 17.001L2.06361 8.04264C1.54941 7.37541 1.66975 6.41285 2.33165 5.89875C2.97713 5.39013 3.94536 5.50498 4.44862 6.16674L11.3465 15.1251C11.4833 15.3056 11.7404 15.3384 11.9209 15.2017C12.1014 15.065 12.1343 14.8079 11.9975 14.6274L10.5971 12.7953L5.09957 5.65811L3.6992 3.8369C3.185 3.16967 3.30535 2.20711 3.96724 1.69302C4.61272 1.18439 5.58095 1.29924 6.08421 1.961L12.9821 10.9194L14.3825 12.7406C14.5193 12.9211 14.7818 12.9539 14.9569 12.8172C15.1374 12.6804 15.1702 12.4234 15.0335 12.2429L9.53591 5.10027C9.02171 4.43304 9.14205 3.47047 9.80395 2.95638C10.4494 2.44775 11.4177 2.5626 11.9209 3.22436L18.9501 12.3468C18.8626 12.4562 18.7641 12.5546 18.6547 12.6367C17.5826 13.4789 16.6964 14.5782 16.1002 15.8088C15.5039 17.0393 15.1921 18.4175 15.1921 19.7903V19.9762C15.1921 20.2004 15.3781 20.3864 15.6024 20.3864C15.8266 20.3864 16.0126 20.2004 16.0126 19.9762V19.7903C16.0072 18.5433 16.2971 17.2909 16.8386 16.1697C17.3802 15.0486 18.1843 14.0532 19.1635 13.2875C19.6558 12.9047 19.9949 12.3523 20.1262 11.7398L21.182 6.67537C21.2257 6.46754 21.4063 6.33081 21.6141 6.34175C22.3088 6.38004 22.9488 6.6863 23.4083 7.21134C23.8788 7.74184 24.1031 8.43095 24.0484 9.14193L23.5177 16.1369C23.5013 16.3611 23.6709 16.558 23.8952 16.5744C24.1195 16.5908 24.3164 16.4213 24.3328 16.1971L24.8634 9.20209C24.9345 8.26687 24.6337 7.36994 24.021 6.6699C23.4083 5.96438 22.5659 5.55967 21.6469 5.51045ZM22.0408 1.93913C21.8165 1.91178 21.6087 2.07039 21.5813 2.29462C21.5539 2.51885 21.7126 2.72668 21.9369 2.75402C23.9991 3.01107 25.4651 4.91979 25.208 7.00351C25.1807 7.22775 25.3393 7.43557 25.5636 7.46292C25.7824 7.49026 25.9958 7.33166 26.0231 7.10743C26.3404 4.56976 24.5516 2.25633 22.0408 1.93913Z" fill="#30104C"/>
</g>
</g>
</g>
</svg>
