<svg xmlns="http://www.w3.org/2000/svg" width="22" height="22" viewBox="0 0 22 22" fill="none">
  <path d="M2.2959 6.78825C1.63702 6.96361 1.05504 7.34847 0.640015 7.8833C0.224987 8.41812 4.71158e-05 9.07308 0 9.74683V13.0886C0 13.901 0.326876 14.6802 0.90872 15.2547C1.49056 15.8292 2.27971 16.1519 3.10256 16.1519H5.92308C6.14749 16.1519 6.36271 16.0639 6.5214 15.9072C6.68008 15.7505 6.76923 15.538 6.76923 15.3165V7.51899C6.76923 7.29741 6.68008 7.08491 6.5214 6.92824C6.36271 6.77156 6.14749 6.68354 5.92308 6.68354H4.02205C4.50605 3.93215 7.34349 1.67089 11 1.67089C14.6565 1.67089 17.4939 3.93215 17.9779 6.68354H16.0769C15.8525 6.68354 15.6373 6.77156 15.4786 6.92824C15.3199 7.08491 15.2308 7.29741 15.2308 7.51899V15.3165C15.2308 15.7776 15.6098 16.1519 16.0769 16.1519H17.9531C17.7625 16.9448 17.3065 17.6511 16.6589 18.1564C16.0113 18.6618 15.21 18.9367 14.3846 18.9367H13.0928C12.8965 18.4574 12.5374 18.0605 12.0771 17.8139C11.6168 17.5674 11.0841 17.4866 10.5701 17.5853C10.0561 17.6841 9.59285 17.9563 9.25982 18.3552C8.92679 18.7542 8.74466 19.2551 8.74466 19.7721C8.74466 20.2892 8.92679 20.7901 9.25982 21.1891C9.59285 21.588 10.0561 21.8602 10.5701 21.959C11.0841 22.0577 11.6168 21.9769 12.0771 21.7304C12.5374 21.4838 12.8965 21.0869 13.0928 20.6076H14.3846C17.0923 20.6076 19.3307 18.6248 19.6928 16.0505C20.3544 15.8771 20.9393 15.4926 21.3565 14.9569C21.7738 14.4212 22 13.7644 22 13.0886V9.74683C22 9.07308 21.775 8.41812 21.36 7.8833C20.945 7.34847 20.363 6.96361 19.7041 6.78825C19.2731 2.88506 15.4293 0 11 0C6.57067 0 2.72687 2.88506 2.2959 6.78825Z" fill="#ACACAC"/>
</svg>