<svg width="65" height="65" viewBox="0 0 65 65" fill="none" xmlns="http://www.w3.org/2000/svg">
<path d="M32.5 65C50.4493 65 65 50.4493 65 32.5C65 14.5507 50.4493 0 32.5 0C14.5507 0 0 14.5507 0 32.5C0 50.4493 14.5507 65 32.5 65Z" fill="#30104C"/>
<path d="M32.644 51.5031C29.2455 51.6004 25.8851 50.7665 22.9264 49.0917C20.2382 47.5183 18.0707 45.1907 16.6927 42.3973C15.2016 39.3226 14.4615 35.9378 14.5332 32.5214C14.4481 29.0851 15.1887 25.6786 16.6927 22.5878C18.0912 19.8059 20.26 17.4846 22.9408 15.9007C25.8704 14.2315 29.2015 13.3975 32.572 13.4893C35.4792 13.4211 38.3639 14.0143 41.0083 15.224C43.3388 16.3094 45.3296 18.009 46.7669 20.1404C48.1991 22.364 48.9911 24.9392 49.0559 27.5834H39.4247C39.2252 25.9021 38.4644 24.3373 37.2652 23.1421C36.6597 22.5708 35.9457 22.1267 35.1655 21.8362C34.3854 21.5456 33.5549 21.4145 32.7232 21.4505C31.2431 21.4161 29.7923 21.866 28.5914 22.7318C27.3368 23.6859 26.3825 24.98 25.8416 26.4605C25.139 28.3519 24.8042 30.3603 24.8555 32.3774C24.8038 34.4191 25.1334 36.4526 25.8272 38.3735C26.3678 39.864 27.3216 41.1698 28.577 42.1382C29.7835 43.0043 31.2382 43.4564 32.7232 43.4267C33.8168 43.4445 34.8985 43.1976 35.876 42.7069C36.8198 42.2225 37.6212 41.5006 38.201 40.6122C38.8442 39.6089 39.2572 38.4757 39.4103 37.2938H49.0559C48.9582 39.9315 48.1715 42.4975 46.7741 44.7368C45.3896 46.9039 43.4344 48.6474 41.1235 49.7755C38.469 51.0006 35.5661 51.592 32.644 51.5031Z" fill="#2565F4"/>
<path d="M28.4042 25.5034C28.399 21.5719 27.2836 17.7219 25.1866 14.3965C22.9535 15.2436 20.953 16.6077 19.3488 18.3771C20.6373 19.1473 21.3571 22.696 21.3571 22.696C22.4657 28.8145 18.4131 31.0316 18.4131 31.0316C16.8404 32.0071 15.4854 33.2959 14.4324 34.8179C14.4324 34.9906 14.4324 35.5377 14.4972 35.8112C14.7493 38.4666 15.5509 41.0404 16.8511 43.3694C17.5322 44.6029 18.3773 45.7386 19.3632 46.7453C19.572 46.9469 20.155 47.278 20.3782 47.4651C20.5653 47.5227 20.2774 47.206 20.2198 47.1484C19.4579 46.2057 18.9921 45.0586 18.881 43.8516C18.629 38.7049 23.5238 35.5449 23.5238 35.5449C24.9943 34.3055 26.1885 32.7715 27.0292 31.0418C27.8698 29.3121 28.3383 27.4254 28.4042 25.5034Z" fill="#30104C"/>
</svg>
