<svg xmlns="http://www.w3.org/2000/svg" width="48" height="53" viewBox="0 0 48 53" fill="none">
  <path d="M25.2457 52.9878C20.5343 53.1234 15.8756 51.9613 11.7738 49.6272C8.04703 47.4344 5.04224 44.1905 3.1318 40.2975C1.06464 36.0124 0.0386024 31.2952 0.138036 26.5338C0.0200706 21.7448 1.04672 16.9973 3.1318 12.6898C5.07063 8.81271 8.07736 5.57769 11.7938 3.3702C15.8552 1.044 20.4733 -0.118351 25.1459 0.00952026C29.1763 -0.0854701 33.1755 0.741226 36.8416 2.4272C40.0724 3.93978 42.8323 6.30849 44.8249 9.27897C46.8105 12.3779 47.9085 15.9669 47.9983 19.6519H34.6461C34.3696 17.3088 33.3148 15.128 31.6524 13.4623C30.8129 12.6661 29.8231 12.0472 28.7415 11.6423C27.6599 11.2374 26.5086 11.0546 25.3555 11.1048C23.3036 11.0568 21.2923 11.6838 19.6274 12.8904C17.8882 14.2202 16.5652 16.0237 15.8154 18.087C14.8412 20.723 14.3772 23.522 14.4482 26.3332C14.3766 29.1786 14.8335 32.0126 15.7954 34.6897C16.5448 36.767 17.867 38.5868 19.6075 39.9364C21.2802 41.1435 23.2968 41.7735 25.3555 41.7321C26.8716 41.757 28.3712 41.4128 29.7264 40.7289C31.0349 40.0539 32.1458 39.0477 32.9497 37.8096C33.8414 36.4114 34.4139 34.832 34.6262 33.1849H47.9983C47.8628 36.8609 46.7721 40.4372 44.8349 43.5579C42.9155 46.5781 40.205 49.0079 37.0012 50.5802C33.3212 52.2875 29.2969 53.1117 25.2457 52.9878Z" fill="#2565F4"/>
  <path d="M19.3696 16.7527C19.3624 11.2737 17.8161 5.90808 14.9089 1.27356C11.8132 2.45408 9.03968 4.35523 6.8158 6.82119C8.60208 7.8946 9.6 12.8403 9.6 12.8403C11.1368 21.3674 5.5185 24.4572 5.5185 24.4572C3.33824 25.8167 1.45975 27.613 0 29.734C0 29.9747 1.48702e-07 30.7372 0.089813 31.1184C0.439238 34.819 1.55051 38.4061 3.35301 41.6518C4.2973 43.371 5.46886 44.9537 6.83576 46.3568C7.12515 46.6377 7.93347 47.0992 8.24282 47.36C8.50228 47.4402 8.10312 46.9988 8.02328 46.9186C6.96701 45.6048 6.32118 44.0061 6.16715 42.324C5.81788 35.1512 12.6037 30.7472 12.6037 30.7472C14.6424 29.02 16.2979 26.882 17.4634 24.4715C18.6288 22.0609 19.2782 19.4314 19.3696 16.7527Z" fill="#30104C"/>
</svg>