<svg xmlns="http://www.w3.org/2000/svg" width="40" height="44" viewBox="0 0 40 44" fill="none">
  <path d="M27.2962 31.3878C26.5746 32.4671 25.6748 33.2787 24.5969 33.8228C23.5189 34.3669 22.343 34.6345 20.9889 34.6345C19.1893 34.6345 17.5679 34.0904 16.2138 33.1003C14.8597 32.1103 13.7817 30.6653 13.0601 28.7744C12.3385 26.8834 11.9822 24.5376 11.9822 21.8261C11.9822 19.1145 12.4365 16.8668 13.1492 14.967C13.8708 13.076 14.9488 11.6311 16.3029 10.641C17.657 9.74012 19.2784 9.19603 21.0779 9.19603C23.2428 9.19603 24.9532 9.82931 26.3073 11.1762C27.6615 12.4427 28.5612 14.1553 28.8285 16.3138H40C39.8218 13.0671 38.922 10.1772 37.3007 7.74215C35.6793 5.30712 33.4254 3.41618 30.637 2.06041C27.8396 0.633286 24.5969 0 20.8998 0C17.8263 0 15.0824 0.463815 12.6147 1.40928C11.608 1.79282 10.6459 2.24772 9.72828 2.80073C8.26726 3.68376 6.98441 4.70059 5.85301 5.86905C4.54343 7.21589 3.43875 8.76789 2.52116 10.5518C0.81069 13.8877 0 17.7677 0 22.0937C0 22.8964 0.0356347 23.6724 0.0890869 24.4306C0.0890869 24.4841 0.0979954 24.5287 0.0979954 24.5822C0.124721 24.9925 0.169265 25.3939 0.222717 25.7953C0.249443 26.0361 0.276169 26.2769 0.311804 26.5177C0.347439 26.7853 0.400891 27.0351 0.445434 27.2937C0.489978 27.5524 0.534521 27.8111 0.587973 28.0697C0.650334 28.3641 0.721604 28.6495 0.801782 28.926C0.846325 29.1133 0.890868 29.3096 0.944321 29.4969C1.03341 29.8001 1.12249 30.0855 1.22049 30.371C1.27394 30.5494 1.32739 30.7278 1.38975 30.8972C1.40757 30.9507 1.4343 30.9953 1.45212 31.0489C1.75501 31.8784 2.11136 32.6811 2.51225 33.4482C3.47439 35.3213 4.63252 36.9268 6.02227 38.3183C7.10913 39.4154 8.32962 40.3787 9.71938 41.2082C12.8731 43.0991 16.6592 44 20.98 44C24.7661 44 28.0089 43.3667 30.7973 41.8326C33.4967 40.4768 35.6615 38.4967 37.2829 36.0616C38.8151 33.6266 39.7149 30.7367 39.8931 27.49H28.7394C28.4722 29.042 28.0178 30.3085 27.2962 31.3878Z" fill="white"/>
  <path d="M16.1244 13.9764C16.16 11.5057 15.7413 9.22232 15.1712 7.28679C14.3248 4.42362 13.1311 2.2651 12.6144 1.3999C11.6077 1.78344 10.6455 2.23834 9.72795 2.79135C8.26692 3.67438 6.98407 4.69121 5.85267 5.85966C7.18897 7.05488 7.92839 10.6405 7.92839 10.6405C9.19342 17.7672 4.50746 20.2915 4.50746 20.2915C3.25133 21.1923 1.71904 22.1824 0.0976562 24.439C0.0976562 24.4925 0.106565 24.5371 0.106565 24.5907C0.133291 25.001 0.177834 25.4023 0.231287 25.8037C0.258013 26.0445 0.284739 26.2854 0.320373 26.5262C0.356008 26.7938 0.40946 27.0435 0.454004 27.3022C0.498547 27.5609 0.543091 27.8195 0.596543 28.0782C0.658904 28.3725 0.730173 28.658 0.810351 28.9345C0.854895 29.1218 0.899438 29.318 0.95289 29.5053C1.04198 29.8086 1.13106 30.094 1.22906 30.3794C1.28251 30.5578 1.33596 30.7362 1.39832 30.9057C1.41614 30.9592 1.44287 31.0038 1.46069 31.0573C1.76358 31.8868 2.11993 32.6896 2.52082 33.4567C3.48296 35.3298 4.64109 36.9353 6.03084 38.3267C5.17561 36.9353 5.04198 35.2673 5.04198 35.2673C4.77472 29.318 10.4495 25.6164 10.4495 25.6164C16.3026 20.6572 16.1244 13.9764 16.1244 13.9764Z" fill="#2565F2"/>
</svg>