<svg width="91" height="91" viewBox="0 0 91 91" fill="none" xmlns="http://www.w3.org/2000/svg">
<path d="M45.15 90.3C70.0857 90.3 90.3 70.0857 90.3 45.15C90.3 20.2143 70.0857 0 45.15 0C20.2143 0 0 20.2143 0 45.15C0 70.0857 20.2143 90.3 45.15 90.3Z" fill="#30104C"/>
<path d="M45.35 71.55C40.6287 71.6851 35.9604 70.5267 31.85 68.2C28.1155 66.0142 25.1044 62.7806 23.19 58.9C21.1185 54.6284 20.0904 49.9262 20.19 45.18C20.0718 40.4062 21.1006 35.6738 23.19 31.38C25.1329 27.5152 28.1459 24.2904 31.87 22.09C35.9399 19.7712 40.5676 18.6125 45.25 18.74C49.2888 18.6453 53.2963 19.4693 56.97 21.15C60.2075 22.6577 62.9732 25.0189 64.97 27.98C66.9597 31.0691 68.06 34.6466 68.15 38.32H54.77C54.4929 35.9843 53.4359 33.8104 51.77 32.15C50.9287 31.3563 49.9369 30.7394 48.853 30.3358C47.7692 29.9321 46.6155 29.7499 45.46 29.8C43.4038 29.7522 41.3883 30.3772 39.72 31.58C37.9772 32.9055 36.6514 34.7033 35.9 36.76C34.9238 39.3877 34.4588 42.1777 34.53 44.98C34.4582 47.8164 34.916 50.6414 35.88 53.31C36.631 55.3806 37.9559 57.1947 39.7 58.54C41.3762 59.7432 43.397 60.3712 45.46 60.33C46.9793 60.3548 48.482 60.0117 49.84 59.33C51.1512 58.6571 52.2645 57.6542 53.07 56.42C53.9635 55.0262 54.5373 53.4518 54.75 51.81H68.15C68.0142 55.4743 66.9213 59.0392 64.98 62.15C63.0566 65.1606 60.3404 67.5827 57.13 69.15C53.4423 70.8519 49.4096 71.6735 45.35 71.55Z" fill="#2565F4"/>
<path d="M39.46 35.43C39.4527 29.9684 37.9032 24.6198 34.99 20C31.8878 21.1768 29.1085 23.0719 26.88 25.53C28.67 26.6 29.67 31.53 29.67 31.53C31.21 40.03 25.58 43.11 25.58 43.11C23.3952 44.4652 21.5128 46.2557 20.05 48.37C20.05 48.61 20.05 49.37 20.14 49.75C20.4901 53.4389 21.6037 57.0146 23.41 60.25C24.3562 61.9637 25.5302 63.5414 26.9 64.94C27.19 65.22 28 65.68 28.31 65.94C28.57 66.02 28.17 65.58 28.09 65.5C27.0315 64.1904 26.3843 62.5968 26.23 60.92C25.88 53.77 32.68 49.38 32.68 49.38C34.7229 47.6583 36.3819 45.5271 37.5498 43.1242C38.7176 40.7213 39.3684 38.1001 39.46 35.43Z" fill="#30104C"/>
</svg>
