<svg xmlns="http://www.w3.org/2000/svg" width="22" height="22" viewBox="0 0 22 22" fill="none">
  <path fill-rule="evenodd" clip-rule="evenodd" d="M13.9777 11.0315L21.9969 2.94316L19.0538 0L11.0315 8.02227L2.94316 0.00305196L0.00305196 2.94316L8.02227 11.0315L0 19.0538L2.94316 21.9969L11.0315 13.9777L19.0538 22L22 19.0538L13.9777 11.0315ZM1.4259 2.94564L9.44448 11.0333L9.4439 11.0339L1.42533 2.94622L1.4259 2.94564ZM1.42591 19.0532L1.42533 19.0538L2.94622 20.5747L11.0346 12.5555L19.0538 20.5747L20.5747 19.0538L20.574 19.0531L19.0537 20.5734L11.0345 12.5542L2.94614 20.5734L1.42591 19.0532ZM12.556 11.034L12.5554 11.0333L20.574 2.94557L20.5747 2.94622L12.556 11.034Z" fill="#C24664"/>
</svg>