<svg xmlns="http://www.w3.org/2000/svg" width="12" height="12" viewBox="0 0 12 12" fill="none">
  <path d="M6.47228 0.835835C6.40239 0.634771 6.21286 0.5 6 0.5C5.78714 0.5 5.59761 0.634771 5.52772 0.835835L4.46638 3.88916L1.23453 3.95502C1.02171 3.95936 0.834968 4.09796 0.769189 4.30041C0.70341 4.50285 0.773018 4.72475 0.942644 4.85335L3.51856 6.80627L2.5825 9.9003C2.52086 10.104 2.59497 10.3245 2.76718 10.4496C2.93939 10.5747 3.17194 10.5771 3.34666 10.4555L6 8.60914L8.65334 10.4555C8.82806 10.5771 9.06061 10.5747 9.23282 10.4496C9.40503 10.3245 9.47914 10.104 9.4175 9.9003L8.48144 6.80627L11.0574 4.85335C11.227 4.72475 11.2966 4.50285 11.2308 4.30041C11.165 4.09796 10.9783 3.95936 10.7655 3.95502L7.53362 3.88916L6.47228 0.835835Z" fill="#4F3467" stroke="#4F3467" stroke-linejoin="round"/>
</svg>