<svg width="147" height="129" viewBox="0 0 147 129" fill="none" xmlns="http://www.w3.org/2000/svg">
<path fill-rule="evenodd" clip-rule="evenodd" d="M62.5345 23.3666C69.4335 23.3666 75.0263 18.1358 75.0263 11.6833C75.0263 5.2308 69.4335 0 62.5345 0C55.6355 0 50.0428 5.2308 50.0428 11.6833C50.0428 18.1358 55.6355 23.3666 62.5345 23.3666ZM62.5201 25.2134C51.6955 25.2134 42.8901 33.8587 42.6321 44.6212C39.295 42.0912 35.135 40.59 30.6244 40.59C19.6374 40.59 10.7306 49.4967 10.7306 60.4838V66.5382C10.7306 69.192 12.882 71.3434 15.5358 71.3434H45.713C48.3668 71.3434 50.5182 69.192 50.5182 66.5382V64.269H76.3115C79.6817 64.269 82.4139 61.5368 82.4139 58.1665V45.1072C82.4139 34.1201 73.5071 25.2134 62.5201 25.2134ZM30.6389 38.7433C37.5379 38.7433 43.1306 33.5125 43.1306 27.0599C43.1306 20.6074 37.5379 15.3766 30.6389 15.3766C23.7399 15.3766 18.1471 20.6074 18.1471 27.0599C18.1471 33.5125 23.7399 38.7433 30.6389 38.7433Z" fill="white"/>
<g filter="url(#filter0_ii_14812_31386)">
<path d="M42.6252 45.1072C42.6252 34.1201 51.532 25.2134 62.519 25.2134C73.506 25.2134 82.4128 34.1201 82.4128 45.1072V58.1665C82.4128 61.5368 79.6807 64.269 76.3104 64.269H48.7276C45.3573 64.269 42.6252 61.5368 42.6252 58.1665V45.1072Z" fill="url(#paint0_linear_14812_31386)" fill-opacity="0.65"/>
<ellipse cx="62.5335" cy="11.6833" rx="12.4918" ry="11.6833" fill="url(#paint1_linear_14812_31386)" fill-opacity="0.65"/>
</g>
<g filter="url(#filter1_ii_14812_31386)">
<path d="M10.7314 60.4836C10.7314 49.4966 19.6382 40.5898 30.6253 40.5898C41.6123 40.5898 50.5191 49.4966 50.5191 60.4836V66.538C50.5191 69.1919 48.3677 71.3432 45.7139 71.3432H15.5367C12.8828 71.3432 10.7314 69.1919 10.7314 66.538V60.4836Z" fill="url(#paint2_linear_14812_31386)" fill-opacity="0.65"/>
<ellipse cx="30.6397" cy="27.0598" rx="12.4918" ry="11.6833" fill="url(#paint3_linear_14812_31386)" fill-opacity="0.65"/>
</g>
<g filter="url(#filter2_d_14812_31386)">
<ellipse cx="33.658" cy="31.4786" rx="33.658" ry="31.4786" transform="matrix(-1 0 0 1 124.623 19.9619)" fill="url(#paint4_linear_14812_31386)"/>
<g filter="url(#filter3_i_14812_31386)">
<ellipse cx="32.7483" cy="30.6278" rx="32.7483" ry="30.6278" transform="matrix(-1 0 0 1 121.712 19.6191)" fill="url(#paint5_linear_14812_31386)"/>
</g>
<path d="M57.2153 50.2469C57.2153 66.5479 71.3654 79.8747 88.9636 79.8747C106.562 79.8747 120.712 66.5479 120.712 50.2469C120.712 33.946 106.562 20.6191 88.9636 20.6191C71.3654 20.6191 57.2153 33.946 57.2153 50.2469Z" stroke="#E7EEFD" stroke-width="2"/>
<ellipse cx="25.8348" cy="24.1619" rx="25.8348" ry="24.1619" transform="matrix(-1 0 0 1 114.797 26.083)" fill="url(#paint6_linear_14812_31386)"/>
<ellipse cx="18.0118" cy="17.0153" rx="18.0118" ry="17.0153" transform="matrix(-1 0 0 1 106.792 33.2285)" fill="url(#paint7_linear_14812_31386)"/>
<ellipse cx="11.2801" cy="10.5501" rx="11.2801" ry="10.5501" transform="matrix(-1 0 0 1 100.243 39.6963)" fill="url(#paint8_linear_14812_31386)"/>
</g>
<mask id="mask0_14812_31386" style="mask-type:alpha" maskUnits="userSpaceOnUse" x="87" y="4" width="60" height="62">
<path d="M147 4.81836H87.871L87.3252 49.0585L90.782 52.6317L147 65.9038V4.81836Z" fill="#D9D9D9"/>
</mask>
<g mask="url(#mask0_14812_31386)">
<g filter="url(#filter4_bd_14812_31386)">
<g filter="url(#filter5_i_14812_31386)">
<path d="M135.627 7.32818C135.614 6.20188 134.176 5.59716 133.235 6.32207L122.174 14.8406C121.841 15.0971 121.65 15.4766 121.655 15.8752L121.731 22.3487C121.734 22.6837 121.864 22.9726 122.07 23.194L135.587 12.7835C135.621 12.7578 135.655 12.7334 135.689 12.7103L135.627 7.32818Z" fill="url(#paint9_linear_14812_31386)" fill-opacity="0.65"/>
</g>
<g filter="url(#filter6_ii_14812_31386)">
<path d="M138.372 14.8262L144.2 15.9631C145.385 16.1943 145.761 17.5731 144.833 18.2873L133.307 27.1642C132.964 27.4288 132.506 27.5334 132.067 27.4478L124.398 25.9516C124.331 25.9385 124.266 25.9216 124.204 25.9015L137.929 15.3313C138.117 15.1864 138.265 15.0141 138.372 14.8262Z" fill="url(#paint10_linear_14812_31386)" fill-opacity="0.65"/>
<path d="M138.372 14.8262L144.2 15.9631C145.385 16.1943 145.761 17.5731 144.833 18.2873L133.307 27.1642C132.964 27.4288 132.506 27.5334 132.067 27.4478L124.398 25.9516C124.331 25.9385 124.266 25.9216 124.204 25.9015L137.929 15.3313C138.117 15.1864 138.265 15.0141 138.372 14.8262Z" fill="url(#paint11_linear_14812_31386)"/>
</g>
<mask id="mask1_14812_31386" style="mask-type:alpha" maskUnits="userSpaceOnUse" x="125" y="8" width="16" height="18">
<path d="M129.829 8.50049L130.081 17.0796L125.058 20.9398L125.058 12.1665L129.829 8.50049Z" fill="white" fill-opacity="0.5"/>
<path d="M127.857 23.1384L132.677 19.4265L140.927 21.3457L136.159 25.018L127.857 23.1384Z" fill="white" fill-opacity="0.5"/>
</mask>
<g mask="url(#mask1_14812_31386)">
<g filter="url(#filter7_i_14812_31386)">
<path d="M135.628 7.32476C135.615 6.19846 134.177 5.59375 133.236 6.31865L122.175 14.8372C121.842 15.0937 121.652 15.4732 121.656 15.8717L121.732 22.3453C121.736 22.6803 121.866 22.9692 122.071 23.1906L135.589 12.7801C135.622 12.7544 135.656 12.73 135.691 12.7068L135.628 7.32476Z" fill="white" fill-opacity="0.5"/>
<path d="M138.373 14.8258L144.201 15.9628C145.386 16.194 145.762 17.5727 144.835 18.2869L133.308 27.1639C132.965 27.4284 132.507 27.533 132.069 27.4474L124.4 25.9512C124.332 25.9381 124.268 25.9213 124.206 25.9011L137.93 15.3309C138.119 15.186 138.267 15.0138 138.373 14.8258Z" fill="white" fill-opacity="0.5"/>
</g>
</g>
<g filter="url(#filter8_ii_14812_31386)">
<path d="M88.5695 48.8822C87.8118 50.3593 89.3132 51.9947 91.0321 51.5645L95.9766 50.327C97.8716 49.8527 98.0198 47.4416 96.1981 46.7243L95.9532 46.6279C95.3365 46.385 94.8795 45.8872 94.7241 45.2891L94.6624 45.0516C94.2034 43.2848 91.5845 43.0048 90.7492 44.6332L88.5695 48.8822Z" fill="#EDE8F2"/>
</g>
<g filter="url(#filter9_ii_14812_31386)">
<path d="M95.0853 46.2397L87.3797 52.0515C87.5483 52.2515 87.837 52.3658 88.1483 52.2879L99.6974 49.3974C100.362 49.2312 100.426 48.3912 99.793 48.1421L95.3066 46.3755C95.2232 46.3427 95.1485 46.2964 95.0853 46.2397Z" fill="#D5C2E7"/>
</g>
<g filter="url(#filter10_i_14812_31386)">
<path d="M135.587 12.7831C136.356 12.1908 137.504 12.2817 138.151 12.986C138.797 13.6904 138.698 14.7415 137.929 15.3338L96.8412 46.9759L95.3066 46.3716C95.0953 46.2884 94.9393 46.1185 94.8861 45.9136L94.4994 44.4252L135.587 12.7831Z" fill="url(#paint12_linear_14812_31386)" fill-opacity="0.5"/>
</g>
<g filter="url(#filter11_i_14812_31386)">
<path d="M138.186 13.022C138.793 13.7256 138.684 14.7488 137.929 15.3301L96.8412 46.9722L95.3066 46.3679C95.2082 46.3292 95.1217 46.2716 95.0521 46.2005L138.186 13.022Z" fill="url(#paint13_linear_14812_31386)" fill-opacity="0.5"/>
</g>
</g>
</g>
<g filter="url(#filter12_d_14812_31386)">
<path fill-rule="evenodd" clip-rule="evenodd" d="M69.5519 111.742C76.0526 111.742 81.3225 97.0636 81.3225 78.9564C81.3225 60.8492 76.0526 46.1704 69.5519 46.1704C68.8261 46.1704 68.1157 46.3534 67.4263 46.7036L67.4332 46.6987C67.4574 46.6864 67.4817 46.6744 67.506 46.6625V46.647L67.4332 46.6987C66.9022 46.9677 66.3837 47.3358 65.8802 47.7961C60.9662 51.2588 46.3202 61.5012 41.6618 63.8776C36.0324 66.7494 25.0294 69.6212 25.0294 69.6212C25.0294 69.6212 23.4941 73.9288 23.4941 79.1937C23.4941 84.4586 25.0294 88.7663 25.0294 88.7663C25.0294 88.7663 31.6824 89.7235 42.1736 95.4671C50.7546 100.165 62.2458 107.744 66.1458 110.349C66.5659 110.702 66.9958 110.991 67.4343 111.213L67.506 111.262V111.249C68.1704 111.573 68.8541 111.742 69.5519 111.742ZM65.8802 47.7961L65.8845 47.793C65.1003 48.5086 64.3523 49.4475 63.6504 50.5827C64.351 49.4493 65.0975 48.5114 65.8802 47.7961ZM5.73808 84.9427C3.66435 84.8939 2 83.3702 2 81.4977V76.9028C2 75.0311 3.66279 73.508 5.73516 73.4579C6.57664 71.2242 8.85291 69.6234 11.529 69.6234H25.0283C24.9917 69.7268 23.4937 73.9934 23.4937 79.194C23.4937 84.3089 24.9427 88.5203 25.0253 88.7562L25.029 88.7692L11.529 88.7695C8.856 88.7695 6.58189 87.1723 5.73808 84.9427ZM10.6982 116.651C10.6982 118.501 12.302 120.002 14.2807 120.002H21.4455C23.4241 120.002 25.0279 118.501 25.0279 116.651V88.7704H11.9777C11.9777 88.7704 10.6982 113.326 10.6982 116.651Z" fill="white"/>
<g filter="url(#filter13_iii_14812_31386)">
<path d="M10.6982 116.651C10.6982 118.502 12.302 120.002 14.2807 120.002H21.4455C23.4241 120.002 25.0279 118.502 25.0279 116.651V88.7705L11.9777 88.7705C11.9777 88.7705 10.6982 113.326 10.6982 116.651Z" fill="url(#paint14_linear_14812_31386)" fill-opacity="0.65"/>
</g>
<g filter="url(#filter14_ii_14812_31386)">
<path fill-rule="evenodd" clip-rule="evenodd" d="M6.02833 84.9439C5.80222 84.3453 5.6792 83.7011 5.6792 83.0301V75.3717C5.6792 74.7002 5.80241 74.0555 6.02885 73.4565H5.84064C3.7195 73.4565 2 74.9994 2 76.9028V81.4976C2 83.4009 3.7195 84.9439 5.84064 84.9439H6.02833Z" fill="url(#paint15_linear_14812_31386)" fill-opacity="0.65"/>
</g>
<g filter="url(#filter15_ii_14812_31386)">
<ellipse cx="69.5519" cy="78.9564" rx="11.7706" ry="32.786" fill="url(#paint16_linear_14812_31386)"/>
</g>
<ellipse cx="68.5302" cy="79.4344" rx="9.72355" ry="28.4783" fill="url(#paint17_linear_14812_31386)"/>
<g filter="url(#filter16_ii_14812_31386)">
<path fill-rule="evenodd" clip-rule="evenodd" d="M58.9916 84.2533C58.8698 82.3122 58.8062 80.3111 58.8062 78.2663C58.8062 76.3919 58.8596 74.5541 58.9624 72.7656H66.6949C68.3908 72.7656 69.7655 74.0514 69.7655 75.6375V81.3814C69.7655 82.9675 68.3908 84.2533 66.6949 84.2533H58.9916Z" fill="url(#paint18_linear_14812_31386)"/>
</g>
<g filter="url(#filter17_ii_14812_31386)">
<path d="M67.506 111.246C61.9811 108.548 57.7825 95.1167 57.7825 78.9543C57.7825 62.792 61.9811 49.3611 67.506 46.6624V46.647C67.506 46.647 47.2913 61.0058 41.6618 63.8776C36.0324 66.7493 25.0294 69.6211 25.0294 69.6211C25.0294 69.6211 23.4941 73.9288 23.4941 79.1937C23.4941 84.4586 25.0294 88.7662 25.0294 88.7662C25.0294 88.7662 31.6824 89.7235 42.1736 95.467C52.6648 101.211 67.506 111.262 67.506 111.262V111.246Z" fill="url(#paint19_linear_14812_31386)" fill-opacity="0.65"/>
</g>
<g filter="url(#filter18_ii_14812_31386)">
<path fill-rule="evenodd" clip-rule="evenodd" d="M25.0283 69.6235C24.9917 69.7269 23.4937 73.9935 23.4937 79.1942C23.4937 84.309 24.9427 88.5204 25.0253 88.7563C25.0277 88.765 25.029 88.7694 25.029 88.7694L11.529 88.7697C8.13723 88.7697 5.3877 86.198 5.3877 83.0258V75.3674C5.3877 72.1951 8.13723 69.6235 11.529 69.6235H25.0283Z" fill="url(#paint20_linear_14812_31386)"/>
</g>
</g>
<defs>
<filter id="filter0_ii_14812_31386" x="42.6252" y="-4" width="39.7876" height="68.269" filterUnits="userSpaceOnUse" color-interpolation-filters="sRGB">
<feFlood flood-opacity="0" result="BackgroundImageFix"/>
<feBlend mode="normal" in="SourceGraphic" in2="BackgroundImageFix" result="shape"/>
<feColorMatrix in="SourceAlpha" type="matrix" values="0 0 0 0 0 0 0 0 0 0 0 0 0 0 0 0 0 0 127 0" result="hardAlpha"/>
<feOffset/>
<feGaussianBlur stdDeviation="5"/>
<feComposite in2="hardAlpha" operator="arithmetic" k2="-1" k3="1"/>
<feColorMatrix type="matrix" values="0 0 0 0 0.835294 0 0 0 0 0.760784 0 0 0 0 0.905882 0 0 0 1 0"/>
<feBlend mode="normal" in2="shape" result="effect1_innerShadow_14812_31386"/>
<feColorMatrix in="SourceAlpha" type="matrix" values="0 0 0 0 0 0 0 0 0 0 0 0 0 0 0 0 0 0 127 0" result="hardAlpha"/>
<feOffset dy="-4"/>
<feGaussianBlur stdDeviation="3"/>
<feComposite in2="hardAlpha" operator="arithmetic" k2="-1" k3="1"/>
<feColorMatrix type="matrix" values="0 0 0 0 0.14902 0 0 0 0 0.4 0 0 0 0 0.960784 0 0 0 0.5 0"/>
<feBlend mode="normal" in2="effect1_innerShadow_14812_31386" result="effect2_innerShadow_14812_31386"/>
</filter>
<filter id="filter1_ii_14812_31386" x="10.7314" y="11.3765" width="39.7876" height="59.9668" filterUnits="userSpaceOnUse" color-interpolation-filters="sRGB">
<feFlood flood-opacity="0" result="BackgroundImageFix"/>
<feBlend mode="normal" in="SourceGraphic" in2="BackgroundImageFix" result="shape"/>
<feColorMatrix in="SourceAlpha" type="matrix" values="0 0 0 0 0 0 0 0 0 0 0 0 0 0 0 0 0 0 127 0" result="hardAlpha"/>
<feOffset/>
<feGaussianBlur stdDeviation="5"/>
<feComposite in2="hardAlpha" operator="arithmetic" k2="-1" k3="1"/>
<feColorMatrix type="matrix" values="0 0 0 0 0.835294 0 0 0 0 0.760784 0 0 0 0 0.905882 0 0 0 1 0"/>
<feBlend mode="normal" in2="shape" result="effect1_innerShadow_14812_31386"/>
<feColorMatrix in="SourceAlpha" type="matrix" values="0 0 0 0 0 0 0 0 0 0 0 0 0 0 0 0 0 0 127 0" result="hardAlpha"/>
<feOffset dy="-4"/>
<feGaussianBlur stdDeviation="3"/>
<feComposite in2="hardAlpha" operator="arithmetic" k2="-1" k3="1"/>
<feColorMatrix type="matrix" values="0 0 0 0 0.14902 0 0 0 0 0.4 0 0 0 0 0.960784 0 0 0 0.5 0"/>
<feBlend mode="normal" in2="effect1_innerShadow_14812_31386" result="effect2_innerShadow_14812_31386"/>
</filter>
<filter id="filter2_d_14812_31386" x="54.2153" y="19.6191" width="76.4078" height="71.2998" filterUnits="userSpaceOnUse" color-interpolation-filters="sRGB">
<feFlood flood-opacity="0" result="BackgroundImageFix"/>
<feColorMatrix in="SourceAlpha" type="matrix" values="0 0 0 0 0 0 0 0 0 0 0 0 0 0 0 0 0 0 127 0" result="hardAlpha"/>
<feOffset dx="2" dy="4"/>
<feGaussianBlur stdDeviation="2"/>
<feComposite in2="hardAlpha" operator="out"/>
<feColorMatrix type="matrix" values="0 0 0 0 0.145098 0 0 0 0 0.396078 0 0 0 0 0.956863 0 0 0 0.5 0"/>
<feBlend mode="normal" in2="BackgroundImageFix" result="effect1_dropShadow_14812_31386"/>
<feBlend mode="normal" in="SourceGraphic" in2="effect1_dropShadow_14812_31386" result="shape"/>
</filter>
<filter id="filter3_i_14812_31386" x="56.2153" y="17.6191" width="65.4966" height="63.2554" filterUnits="userSpaceOnUse" color-interpolation-filters="sRGB">
<feFlood flood-opacity="0" result="BackgroundImageFix"/>
<feBlend mode="normal" in="SourceGraphic" in2="BackgroundImageFix" result="shape"/>
<feColorMatrix in="SourceAlpha" type="matrix" values="0 0 0 0 0 0 0 0 0 0 0 0 0 0 0 0 0 0 127 0" result="hardAlpha"/>
<feOffset dy="-2"/>
<feGaussianBlur stdDeviation="1"/>
<feComposite in2="hardAlpha" operator="arithmetic" k2="-1" k3="1"/>
<feColorMatrix type="matrix" values="0 0 0 0 1 0 0 0 0 1 0 0 0 0 1 0 0 0 0.5 0"/>
<feBlend mode="normal" in2="shape" result="effect1_innerShadow_14812_31386"/>
</filter>
<filter id="filter4_bd_14812_31386" x="83.3797" y="2.00684" width="65.9733" height="58.3057" filterUnits="userSpaceOnUse" color-interpolation-filters="sRGB">
<feFlood flood-opacity="0" result="BackgroundImageFix"/>
<feGaussianBlur in="BackgroundImageFix" stdDeviation="2"/>
<feComposite in2="SourceAlpha" operator="in" result="effect1_backgroundBlur_14812_31386"/>
<feColorMatrix in="SourceAlpha" type="matrix" values="0 0 0 0 0 0 0 0 0 0 0 0 0 0 0 0 0 0 127 0" result="hardAlpha"/>
<feOffset dy="4"/>
<feGaussianBlur stdDeviation="2"/>
<feComposite in2="hardAlpha" operator="out"/>
<feColorMatrix type="matrix" values="0 0 0 0 0.25098 0 0 0 0 0.415686 0 0 0 0 0.862745 0 0 0 0.5 0"/>
<feBlend mode="normal" in2="effect1_backgroundBlur_14812_31386" result="effect2_dropShadow_14812_31386"/>
<feBlend mode="normal" in="SourceGraphic" in2="effect2_dropShadow_14812_31386" result="shape"/>
</filter>
<filter id="filter5_i_14812_31386" x="121.655" y="6.00684" width="14.0344" height="17.187" filterUnits="userSpaceOnUse" color-interpolation-filters="sRGB">
<feFlood flood-opacity="0" result="BackgroundImageFix"/>
<feBlend mode="normal" in="SourceGraphic" in2="BackgroundImageFix" result="shape"/>
<feColorMatrix in="SourceAlpha" type="matrix" values="0 0 0 0 0 0 0 0 0 0 0 0 0 0 0 0 0 0 127 0" result="hardAlpha"/>
<feOffset/>
<feGaussianBlur stdDeviation="1"/>
<feComposite in2="hardAlpha" operator="arithmetic" k2="-1" k3="1"/>
<feColorMatrix type="matrix" values="0 0 0 0 0.541176 0 0 0 0 0.403922 0 0 0 0 0.662745 0 0 0 1 0"/>
<feBlend mode="normal" in2="shape" result="effect1_innerShadow_14812_31386"/>
</filter>
<filter id="filter6_ii_14812_31386" x="124.204" y="14.8262" width="21.1488" height="12.6509" filterUnits="userSpaceOnUse" color-interpolation-filters="sRGB">
<feFlood flood-opacity="0" result="BackgroundImageFix"/>
<feBlend mode="normal" in="SourceGraphic" in2="BackgroundImageFix" result="shape"/>
<feColorMatrix in="SourceAlpha" type="matrix" values="0 0 0 0 0 0 0 0 0 0 0 0 0 0 0 0 0 0 127 0" result="hardAlpha"/>
<feOffset/>
<feGaussianBlur stdDeviation="2"/>
<feComposite in2="hardAlpha" operator="arithmetic" k2="-1" k3="1"/>
<feColorMatrix type="matrix" values="0 0 0 0 0.541176 0 0 0 0 0.403922 0 0 0 0 0.662745 0 0 0 1 0"/>
<feBlend mode="normal" in2="shape" result="effect1_innerShadow_14812_31386"/>
<feColorMatrix in="SourceAlpha" type="matrix" values="0 0 0 0 0 0 0 0 0 0 0 0 0 0 0 0 0 0 127 0" result="hardAlpha"/>
<feOffset/>
<feGaussianBlur stdDeviation="2"/>
<feComposite in2="hardAlpha" operator="arithmetic" k2="-1" k3="1"/>
<feColorMatrix type="matrix" values="0 0 0 0 0.501961 0 0 0 0 0.639216 0 0 0 0 0.921569 0 0 0 0.5 0"/>
<feBlend mode="normal" in2="effect1_innerShadow_14812_31386" result="effect2_innerShadow_14812_31386"/>
</filter>
<filter id="filter7_i_14812_31386" x="121.656" y="6.00342" width="23.6982" height="21.4731" filterUnits="userSpaceOnUse" color-interpolation-filters="sRGB">
<feFlood flood-opacity="0" result="BackgroundImageFix"/>
<feBlend mode="normal" in="SourceGraphic" in2="BackgroundImageFix" result="shape"/>
<feColorMatrix in="SourceAlpha" type="matrix" values="0 0 0 0 0 0 0 0 0 0 0 0 0 0 0 0 0 0 127 0" result="hardAlpha"/>
<feOffset/>
<feGaussianBlur stdDeviation="1"/>
<feComposite in2="hardAlpha" operator="arithmetic" k2="-1" k3="1"/>
<feColorMatrix type="matrix" values="0 0 0 0 0.486275 0 0 0 0 0.254902 0 0 0 0 0.027451 0 0 0 0.5 0"/>
<feBlend mode="normal" in2="shape" result="effect1_innerShadow_14812_31386"/>
</filter>
<filter id="filter8_ii_14812_31386" x="88.368" y="43.5557" width="9.11658" height="9.07861" filterUnits="userSpaceOnUse" color-interpolation-filters="sRGB">
<feFlood flood-opacity="0" result="BackgroundImageFix"/>
<feBlend mode="normal" in="SourceGraphic" in2="BackgroundImageFix" result="shape"/>
<feColorMatrix in="SourceAlpha" type="matrix" values="0 0 0 0 0 0 0 0 0 0 0 0 0 0 0 0 0 0 127 0" result="hardAlpha"/>
<feOffset/>
<feGaussianBlur stdDeviation="4"/>
<feComposite in2="hardAlpha" operator="arithmetic" k2="-1" k3="1"/>
<feColorMatrix type="matrix" values="0 0 0 0 0.631373 0 0 0 0 0.388235 0 0 0 0 0.85098 0 0 0 1 0"/>
<feBlend mode="normal" in2="shape" result="effect1_innerShadow_14812_31386"/>
<feColorMatrix in="SourceAlpha" type="matrix" values="0 0 0 0 0 0 0 0 0 0 0 0 0 0 0 0 0 0 127 0" result="hardAlpha"/>
<feOffset dy="1"/>
<feGaussianBlur stdDeviation="0.5"/>
<feComposite in2="hardAlpha" operator="arithmetic" k2="-1" k3="1"/>
<feColorMatrix type="matrix" values="0 0 0 0 1 0 0 0 0 1 0 0 0 0 1 0 0 0 1 0"/>
<feBlend mode="normal" in2="effect1_innerShadow_14812_31386" result="effect2_innerShadow_14812_31386"/>
</filter>
<filter id="filter9_ii_14812_31386" x="87.3797" y="45.2397" width="12.8537" height="7.07275" filterUnits="userSpaceOnUse" color-interpolation-filters="sRGB">
<feFlood flood-opacity="0" result="BackgroundImageFix"/>
<feBlend mode="normal" in="SourceGraphic" in2="BackgroundImageFix" result="shape"/>
<feColorMatrix in="SourceAlpha" type="matrix" values="0 0 0 0 0 0 0 0 0 0 0 0 0 0 0 0 0 0 127 0" result="hardAlpha"/>
<feOffset/>
<feGaussianBlur stdDeviation="4"/>
<feComposite in2="hardAlpha" operator="arithmetic" k2="-1" k3="1"/>
<feColorMatrix type="matrix" values="0 0 0 0 0.145098 0 0 0 0 0.396078 0 0 0 0 0.956863 0 0 0 0.5 0"/>
<feBlend mode="normal" in2="shape" result="effect1_innerShadow_14812_31386"/>
<feColorMatrix in="SourceAlpha" type="matrix" values="0 0 0 0 0 0 0 0 0 0 0 0 0 0 0 0 0 0 127 0" result="hardAlpha"/>
<feOffset dy="-1"/>
<feGaussianBlur stdDeviation="0.5"/>
<feComposite in2="hardAlpha" operator="arithmetic" k2="-1" k3="1"/>
<feColorMatrix type="matrix" values="0 0 0 0 1 0 0 0 0 1 0 0 0 0 1 0 0 0 0.65 0"/>
<feBlend mode="normal" in2="effect1_innerShadow_14812_31386" result="effect2_innerShadow_14812_31386"/>
</filter>
<filter id="filter10_i_14812_31386" x="94.4994" y="12.3921" width="44.0782" height="34.584" filterUnits="userSpaceOnUse" color-interpolation-filters="sRGB">
<feFlood flood-opacity="0" result="BackgroundImageFix"/>
<feBlend mode="normal" in="SourceGraphic" in2="BackgroundImageFix" result="shape"/>
<feColorMatrix in="SourceAlpha" type="matrix" values="0 0 0 0 0 0 0 0 0 0 0 0 0 0 0 0 0 0 127 0" result="hardAlpha"/>
<feOffset/>
<feGaussianBlur stdDeviation="1"/>
<feComposite in2="hardAlpha" operator="arithmetic" k2="-1" k3="1"/>
<feColorMatrix type="matrix" values="0 0 0 0 0.631373 0 0 0 0 0.388235 0 0 0 0 0.85098 0 0 0 1 0"/>
<feBlend mode="normal" in2="shape" result="effect1_innerShadow_14812_31386"/>
</filter>
<filter id="filter11_i_14812_31386" x="95.0521" y="11.022" width="45.5255" height="35.9502" filterUnits="userSpaceOnUse" color-interpolation-filters="sRGB">
<feFlood flood-opacity="0" result="BackgroundImageFix"/>
<feBlend mode="normal" in="SourceGraphic" in2="BackgroundImageFix" result="shape"/>
<feColorMatrix in="SourceAlpha" type="matrix" values="0 0 0 0 0 0 0 0 0 0 0 0 0 0 0 0 0 0 127 0" result="hardAlpha"/>
<feOffset dx="2" dy="-2"/>
<feGaussianBlur stdDeviation="2"/>
<feComposite in2="hardAlpha" operator="arithmetic" k2="-1" k3="1"/>
<feColorMatrix type="matrix" values="0 0 0 0 0.501961 0 0 0 0 0.639216 0 0 0 0 0.921569 0 0 0 0.5 0"/>
<feBlend mode="normal" in2="shape" result="effect1_innerShadow_14812_31386"/>
</filter>
<filter id="filter12_d_14812_31386" x="0" y="46.1704" width="87.3225" height="81.8311" filterUnits="userSpaceOnUse" color-interpolation-filters="sRGB">
<feFlood flood-opacity="0" result="BackgroundImageFix"/>
<feColorMatrix in="SourceAlpha" type="matrix" values="0 0 0 0 0 0 0 0 0 0 0 0 0 0 0 0 0 0 127 0" result="hardAlpha"/>
<feOffset dx="2" dy="4"/>
<feGaussianBlur stdDeviation="2"/>
<feComposite in2="hardAlpha" operator="out"/>
<feColorMatrix type="matrix" values="0 0 0 0 0.145098 0 0 0 0 0.396078 0 0 0 0 0.956863 0 0 0 0.5 0"/>
<feBlend mode="normal" in2="BackgroundImageFix" result="effect1_dropShadow_14812_31386"/>
<feBlend mode="normal" in="SourceGraphic" in2="effect1_dropShadow_14812_31386" result="shape"/>
</filter>
<filter id="filter13_iii_14812_31386" x="10.6982" y="84.7705" width="14.3297" height="39.231" filterUnits="userSpaceOnUse" color-interpolation-filters="sRGB">
<feFlood flood-opacity="0" result="BackgroundImageFix"/>
<feBlend mode="normal" in="SourceGraphic" in2="BackgroundImageFix" result="shape"/>
<feColorMatrix in="SourceAlpha" type="matrix" values="0 0 0 0 0 0 0 0 0 0 0 0 0 0 0 0 0 0 127 0" result="hardAlpha"/>
<feOffset/>
<feGaussianBlur stdDeviation="5"/>
<feComposite in2="hardAlpha" operator="arithmetic" k2="-1" k3="1"/>
<feColorMatrix type="matrix" values="0 0 0 0 0.835294 0 0 0 0 0.760784 0 0 0 0 0.905882 0 0 0 1 0"/>
<feBlend mode="normal" in2="shape" result="effect1_innerShadow_14812_31386"/>
<feColorMatrix in="SourceAlpha" type="matrix" values="0 0 0 0 0 0 0 0 0 0 0 0 0 0 0 0 0 0 127 0" result="hardAlpha"/>
<feOffset dy="-4"/>
<feGaussianBlur stdDeviation="3"/>
<feComposite in2="hardAlpha" operator="arithmetic" k2="-1" k3="1"/>
<feColorMatrix type="matrix" values="0 0 0 0 0.14902 0 0 0 0 0.4 0 0 0 0 0.960784 0 0 0 0.5 0"/>
<feBlend mode="normal" in2="effect1_innerShadow_14812_31386" result="effect2_innerShadow_14812_31386"/>
<feColorMatrix in="SourceAlpha" type="matrix" values="0 0 0 0 0 0 0 0 0 0 0 0 0 0 0 0 0 0 127 0" result="hardAlpha"/>
<feOffset dy="4"/>
<feGaussianBlur stdDeviation="2"/>
<feComposite in2="hardAlpha" operator="arithmetic" k2="-1" k3="1"/>
<feColorMatrix type="matrix" values="0 0 0 0 0.14902 0 0 0 0 0.4 0 0 0 0 0.960784 0 0 0 0.5 0"/>
<feBlend mode="normal" in2="effect2_innerShadow_14812_31386" result="effect3_innerShadow_14812_31386"/>
</filter>
<filter id="filter14_ii_14812_31386" x="2" y="69.4565" width="4.02887" height="15.4873" filterUnits="userSpaceOnUse" color-interpolation-filters="sRGB">
<feFlood flood-opacity="0" result="BackgroundImageFix"/>
<feBlend mode="normal" in="SourceGraphic" in2="BackgroundImageFix" result="shape"/>
<feColorMatrix in="SourceAlpha" type="matrix" values="0 0 0 0 0 0 0 0 0 0 0 0 0 0 0 0 0 0 127 0" result="hardAlpha"/>
<feOffset/>
<feGaussianBlur stdDeviation="5"/>
<feComposite in2="hardAlpha" operator="arithmetic" k2="-1" k3="1"/>
<feColorMatrix type="matrix" values="0 0 0 0 0.835294 0 0 0 0 0.760784 0 0 0 0 0.905882 0 0 0 1 0"/>
<feBlend mode="normal" in2="shape" result="effect1_innerShadow_14812_31386"/>
<feColorMatrix in="SourceAlpha" type="matrix" values="0 0 0 0 0 0 0 0 0 0 0 0 0 0 0 0 0 0 127 0" result="hardAlpha"/>
<feOffset dy="-4"/>
<feGaussianBlur stdDeviation="3"/>
<feComposite in2="hardAlpha" operator="arithmetic" k2="-1" k3="1"/>
<feColorMatrix type="matrix" values="0 0 0 0 0.14902 0 0 0 0 0.4 0 0 0 0 0.960784 0 0 0 0.5 0"/>
<feBlend mode="normal" in2="effect1_innerShadow_14812_31386" result="effect2_innerShadow_14812_31386"/>
</filter>
<filter id="filter15_ii_14812_31386" x="57.7812" y="44.1704" width="25.5412" height="69.5718" filterUnits="userSpaceOnUse" color-interpolation-filters="sRGB">
<feFlood flood-opacity="0" result="BackgroundImageFix"/>
<feBlend mode="normal" in="SourceGraphic" in2="BackgroundImageFix" result="shape"/>
<feColorMatrix in="SourceAlpha" type="matrix" values="0 0 0 0 0 0 0 0 0 0 0 0 0 0 0 0 0 0 127 0" result="hardAlpha"/>
<feOffset dx="2" dy="2"/>
<feGaussianBlur stdDeviation="1"/>
<feComposite in2="hardAlpha" operator="arithmetic" k2="-1" k3="1"/>
<feColorMatrix type="matrix" values="0 0 0 0 0.780392 0 0 0 0 0.839216 0 0 0 0 0.980392 0 0 0 0.75 0"/>
<feBlend mode="normal" in2="shape" result="effect1_innerShadow_14812_31386"/>
<feColorMatrix in="SourceAlpha" type="matrix" values="0 0 0 0 0 0 0 0 0 0 0 0 0 0 0 0 0 0 127 0" result="hardAlpha"/>
<feOffset dy="-2"/>
<feGaussianBlur stdDeviation="1"/>
<feComposite in2="hardAlpha" operator="arithmetic" k2="-1" k3="1"/>
<feColorMatrix type="matrix" values="0 0 0 0 0.14902 0 0 0 0 0.4 0 0 0 0 0.960784 0 0 0 1 0"/>
<feBlend mode="normal" in2="effect1_innerShadow_14812_31386" result="effect2_innerShadow_14812_31386"/>
</filter>
<filter id="filter16_ii_14812_31386" x="57.8062" y="72.7656" width="11.9594" height="13.4878" filterUnits="userSpaceOnUse" color-interpolation-filters="sRGB">
<feFlood flood-opacity="0" result="BackgroundImageFix"/>
<feBlend mode="normal" in="SourceGraphic" in2="BackgroundImageFix" result="shape"/>
<feColorMatrix in="SourceAlpha" type="matrix" values="0 0 0 0 0 0 0 0 0 0 0 0 0 0 0 0 0 0 127 0" result="hardAlpha"/>
<feOffset dx="-1" dy="2"/>
<feGaussianBlur stdDeviation="1"/>
<feComposite in2="hardAlpha" operator="arithmetic" k2="-1" k3="1"/>
<feColorMatrix type="matrix" values="0 0 0 0 0.780392 0 0 0 0 0.839216 0 0 0 0 0.980392 0 0 0 0.75 0"/>
<feBlend mode="normal" in2="shape" result="effect1_innerShadow_14812_31386"/>
<feColorMatrix in="SourceAlpha" type="matrix" values="0 0 0 0 0 0 0 0 0 0 0 0 0 0 0 0 0 0 127 0" result="hardAlpha"/>
<feOffset dx="-1" dy="1"/>
<feGaussianBlur stdDeviation="1"/>
<feComposite in2="hardAlpha" operator="arithmetic" k2="-1" k3="1"/>
<feColorMatrix type="matrix" values="0 0 0 0 0.14902 0 0 0 0 0.4 0 0 0 0 0.960784 0 0 0 1 0"/>
<feBlend mode="normal" in2="effect1_innerShadow_14812_31386" result="effect2_innerShadow_14812_31386"/>
</filter>
<filter id="filter17_ii_14812_31386" x="23.4941" y="42.647" width="44.0118" height="68.6147" filterUnits="userSpaceOnUse" color-interpolation-filters="sRGB">
<feFlood flood-opacity="0" result="BackgroundImageFix"/>
<feBlend mode="normal" in="SourceGraphic" in2="BackgroundImageFix" result="shape"/>
<feColorMatrix in="SourceAlpha" type="matrix" values="0 0 0 0 0 0 0 0 0 0 0 0 0 0 0 0 0 0 127 0" result="hardAlpha"/>
<feOffset/>
<feGaussianBlur stdDeviation="5"/>
<feComposite in2="hardAlpha" operator="arithmetic" k2="-1" k3="1"/>
<feColorMatrix type="matrix" values="0 0 0 0 0.835294 0 0 0 0 0.760784 0 0 0 0 0.905882 0 0 0 1 0"/>
<feBlend mode="normal" in2="shape" result="effect1_innerShadow_14812_31386"/>
<feColorMatrix in="SourceAlpha" type="matrix" values="0 0 0 0 0 0 0 0 0 0 0 0 0 0 0 0 0 0 127 0" result="hardAlpha"/>
<feOffset dy="-4"/>
<feGaussianBlur stdDeviation="3"/>
<feComposite in2="hardAlpha" operator="arithmetic" k2="-1" k3="1"/>
<feColorMatrix type="matrix" values="0 0 0 0 0.14902 0 0 0 0 0.4 0 0 0 0 0.960784 0 0 0 0.5 0"/>
<feBlend mode="normal" in2="effect1_innerShadow_14812_31386" result="effect2_innerShadow_14812_31386"/>
</filter>
<filter id="filter18_ii_14812_31386" x="5.3877" y="67.6235" width="21.6413" height="23.146" filterUnits="userSpaceOnUse" color-interpolation-filters="sRGB">
<feFlood flood-opacity="0" result="BackgroundImageFix"/>
<feBlend mode="normal" in="SourceGraphic" in2="BackgroundImageFix" result="shape"/>
<feColorMatrix in="SourceAlpha" type="matrix" values="0 0 0 0 0 0 0 0 0 0 0 0 0 0 0 0 0 0 127 0" result="hardAlpha"/>
<feOffset dx="2" dy="2"/>
<feGaussianBlur stdDeviation="1"/>
<feComposite in2="hardAlpha" operator="arithmetic" k2="-1" k3="1"/>
<feColorMatrix type="matrix" values="0 0 0 0 0.780392 0 0 0 0 0.839216 0 0 0 0 0.980392 0 0 0 0.75 0"/>
<feBlend mode="normal" in2="shape" result="effect1_innerShadow_14812_31386"/>
<feColorMatrix in="SourceAlpha" type="matrix" values="0 0 0 0 0 0 0 0 0 0 0 0 0 0 0 0 0 0 127 0" result="hardAlpha"/>
<feOffset dy="-2"/>
<feGaussianBlur stdDeviation="1"/>
<feComposite in2="hardAlpha" operator="arithmetic" k2="-1" k3="1"/>
<feColorMatrix type="matrix" values="0 0 0 0 0.14902 0 0 0 0 0.4 0 0 0 0 0.960784 0 0 0 1 0"/>
<feBlend mode="normal" in2="effect1_innerShadow_14812_31386" result="effect2_innerShadow_14812_31386"/>
</filter>
<linearGradient id="paint0_linear_14812_31386" x1="62.519" y1="64.269" x2="62.519" y2="28.0481" gradientUnits="userSpaceOnUse">
<stop offset="0.00344802" stop-color="#2565F4"/>
<stop offset="0.300337" stop-color="#A4BDF9"/>
<stop offset="0.576392" stop-color="#E6ECFD"/>
<stop offset="1" stop-color="white"/>
</linearGradient>
<linearGradient id="paint1_linear_14812_31386" x1="62.5335" y1="23.3666" x2="62.5335" y2="1.69596" gradientUnits="userSpaceOnUse">
<stop offset="0.00344802" stop-color="#2565F4"/>
<stop offset="0.300337" stop-color="#A4BDF9"/>
<stop offset="0.576392" stop-color="#E6ECFD"/>
<stop offset="1" stop-color="white"/>
</linearGradient>
<linearGradient id="paint2_linear_14812_31386" x1="30.6253" y1="71.3432" x2="30.6253" y2="42.8219" gradientUnits="userSpaceOnUse">
<stop offset="0.00344802" stop-color="#2565F4"/>
<stop offset="0.300337" stop-color="#A4BDF9"/>
<stop offset="0.576392" stop-color="#E6ECFD"/>
<stop offset="1" stop-color="white"/>
</linearGradient>
<linearGradient id="paint3_linear_14812_31386" x1="30.6397" y1="38.7431" x2="30.6397" y2="17.0724" gradientUnits="userSpaceOnUse">
<stop offset="0.00344802" stop-color="#2565F4"/>
<stop offset="0.300337" stop-color="#A4BDF9"/>
<stop offset="0.576392" stop-color="#E6ECFD"/>
<stop offset="1" stop-color="white"/>
</linearGradient>
<linearGradient id="paint4_linear_14812_31386" x1="33.658" y1="0" x2="33.658" y2="62.9571" gradientUnits="userSpaceOnUse">
<stop stop-color="#E7EEFD"/>
<stop offset="1" stop-color="#C7D6FA"/>
</linearGradient>
<linearGradient id="paint5_linear_14812_31386" x1="32.7483" y1="0" x2="32.7483" y2="61.2556" gradientUnits="userSpaceOnUse">
<stop offset="0.528997" stop-color="white"/>
<stop offset="1" stop-color="#E4E4E4"/>
</linearGradient>
<linearGradient id="paint6_linear_14812_31386" x1="25.8348" y1="0" x2="25.8348" y2="48.3239" gradientUnits="userSpaceOnUse">
<stop stop-color="#E7EEFD"/>
<stop offset="1" stop-color="#2666F5"/>
</linearGradient>
<linearGradient id="paint7_linear_14812_31386" x1="18.0118" y1="0" x2="18.0118" y2="34.0306" gradientUnits="userSpaceOnUse">
<stop offset="0.336227" stop-color="white"/>
<stop offset="1" stop-color="#E4E4E4"/>
</linearGradient>
<linearGradient id="paint8_linear_14812_31386" x1="11.2801" y1="0" x2="11.2801" y2="21.1002" gradientUnits="userSpaceOnUse">
<stop stop-color="#E7EEFD"/>
<stop offset="1" stop-color="#2666F5"/>
</linearGradient>
<linearGradient id="paint9_linear_14812_31386" x1="121.642" y1="23.6685" x2="136.621" y2="9.70275" gradientUnits="userSpaceOnUse">
<stop stop-color="#A163D9"/>
<stop offset="1" stop-color="#D5C2E7"/>
</linearGradient>
<linearGradient id="paint10_linear_14812_31386" x1="124.189" y1="26.4983" x2="138.604" y2="12.407" gradientUnits="userSpaceOnUse">
<stop offset="1" stop-color="#A163D9"/>
</linearGradient>
<linearGradient id="paint11_linear_14812_31386" x1="124.189" y1="26.4983" x2="138.604" y2="12.407" gradientUnits="userSpaceOnUse">
<stop stop-color="#8A67A9"/>
<stop offset="1" stop-color="#D5C2E7"/>
</linearGradient>
<linearGradient id="paint12_linear_14812_31386" x1="96.3525" y1="42.8297" x2="134.509" y2="8.54132" gradientUnits="userSpaceOnUse">
<stop stop-color="#8A67A9"/>
<stop offset="1" stop-color="#EDE8F2"/>
</linearGradient>
<linearGradient id="paint13_linear_14812_31386" x1="96.3525" y1="42.902" x2="133.878" y2="8.55184" gradientUnits="userSpaceOnUse">
<stop stop-color="#8A67A9"/>
<stop offset="1" stop-color="#D5C2E7"/>
</linearGradient>
<linearGradient id="paint14_linear_14812_31386" x1="25.0279" y1="101.933" x2="4.54321" y2="100.466" gradientUnits="userSpaceOnUse">
<stop offset="0.00344802" stop-color="#A163D9"/>
<stop offset="0.336797" stop-color="#D5C2E7"/>
<stop offset="0.763901" stop-color="#EDE8F2"/>
</linearGradient>
<linearGradient id="paint15_linear_14812_31386" x1="3.62909" y1="84.0263" x2="5.32178" y2="77.8642" gradientUnits="userSpaceOnUse">
<stop stop-color="#A163D9"/>
<stop offset="1" stop-color="#EDE8F2"/>
</linearGradient>
<linearGradient id="paint16_linear_14812_31386" x1="68.1346" y1="112.388" x2="89.9091" y2="31.2497" gradientUnits="userSpaceOnUse">
<stop stop-color="#034DBB"/>
<stop offset="0.586809" stop-color="#2666F5"/>
<stop offset="1" stop-color="#A4BDF9"/>
</linearGradient>
<linearGradient id="paint17_linear_14812_31386" x1="50.3625" y1="78.4771" x2="80.4393" y2="77.6113" gradientUnits="userSpaceOnUse">
<stop stop-color="#2666F5"/>
<stop offset="0.461803" stop-color="#A2BBF7"/>
<stop offset="1" stop-color="#EDE8F2"/>
</linearGradient>
<linearGradient id="paint18_linear_14812_31386" x1="60.3761" y1="78.7141" x2="68.3514" y2="79.3388" gradientUnits="userSpaceOnUse">
<stop stop-color="#034DBB"/>
<stop offset="1" stop-color="#2666F5"/>
</linearGradient>
<linearGradient id="paint19_linear_14812_31386" x1="34.4971" y1="95.467" x2="41.4742" y2="60.8135" gradientUnits="userSpaceOnUse">
<stop offset="0.00344802" stop-color="#A163D9"/>
<stop offset="0.300337" stop-color="#D5C2E7"/>
<stop offset="0.576392" stop-color="#EDE8F2"/>
<stop offset="1" stop-color="white"/>
</linearGradient>
<linearGradient id="paint20_linear_14812_31386" x1="14.0259" y1="88.9582" x2="15.8223" y2="69.8299" gradientUnits="userSpaceOnUse">
<stop stop-color="#034DBB"/>
<stop offset="0.586809" stop-color="#2666F5"/>
<stop offset="1" stop-color="#A4BDF9"/>
</linearGradient>
</defs>
</svg>
