<svg width="152" height="182" viewBox="0 0 152 182" fill="none" xmlns="http://www.w3.org/2000/svg">
<rect width="53.667" height="2.22457" rx="1.11229" transform="matrix(0.826142 -0.563461 0.60512 0.796134 30.8511 100.948)" fill="url(#paint0_linear_14812_31453)"/>
<rect width="53.3409" height="2.23848" rx="1.11924" transform="matrix(0.755885 0.654705 -0.694492 0.7195 40.7461 102.686)" fill="url(#paint1_linear_14812_31453)"/>
<g filter="url(#filter0_d_14812_31453)">
<ellipse cx="30.4429" cy="28.8378" rx="30.4429" ry="28.8378" transform="matrix(-1 0 0 1 123.444 32.2285)" fill="url(#paint2_linear_14812_31453)"/>
<g filter="url(#filter1_i_14812_31453)">
<ellipse cx="29.6201" cy="28.0584" rx="29.6201" ry="28.0584" transform="matrix(-1 0 0 1 120.811 31.916)" fill="url(#paint3_linear_14812_31453)"/>
</g>
<path d="M62.5705 59.9744C62.5705 74.868 75.3324 87.0328 91.1906 87.0328C107.049 87.0328 119.811 74.868 119.811 59.9744C119.811 45.0808 107.049 32.916 91.1906 32.916C75.3324 32.916 62.5705 45.0808 62.5705 59.9744Z" stroke="#E7EEFD" stroke-width="2"/>
<mask id="mask0_14812_31453" style="mask-type:alpha" maskUnits="userSpaceOnUse" x="61" y="31" width="60" height="58">
<path d="M62.5706 59.9744C62.5706 74.868 75.3325 87.0328 91.1907 87.0328C107.049 87.0328 119.811 74.868 119.811 59.9744C119.811 45.0808 107.049 32.916 91.1907 32.916C75.3325 32.916 62.5706 45.0808 62.5706 59.9744Z" fill="url(#paint4_linear_14812_31453)" stroke="#A4BDF9" stroke-width="2"/>
</mask>
<g mask="url(#mask0_14812_31453)">
<g filter="url(#filter2_ii_14812_31453)">
<g filter="url(#filter3_ii_14812_31453)">
<ellipse cx="92.4118" cy="56.7674" rx="11.2983" ry="10.7029" fill="url(#paint5_linear_14812_31453)" fill-opacity="0.65"/>
</g>
</g>
<rect x="80.9871" y="75.873" width="22.7087" height="13.4061" rx="4" fill="url(#paint6_linear_14812_31453)"/>
<rect x="89.8729" y="81.4863" width="4.93697" height="4.67653" rx="2.33826" fill="url(#paint7_linear_14812_31453)"/>
</g>
<mask id="mask1_14812_31453" style="mask-type:alpha" maskUnits="userSpaceOnUse" x="61" y="31" width="61" height="58">
<path d="M62.2425 59.9744C62.2425 74.8596 75.1183 87.0328 91.1368 87.0328C107.155 87.0328 120.031 74.8596 120.031 59.9744C120.031 45.0892 107.155 32.916 91.1368 32.916C75.1183 32.916 62.2425 45.0892 62.2425 59.9744Z" fill="url(#paint8_linear_14812_31453)" stroke="#A4BDF9" stroke-width="2"/>
</mask>
<g mask="url(#mask1_14812_31453)">
<g filter="url(#filter4_ii_14812_31453)">
<path d="M74.4061 87.0421C74.4061 77.1047 82.4619 69.0488 92.3993 69.0488C102.337 69.0488 110.392 77.1047 110.392 87.042V92.8196C110.392 95.2508 108.422 97.2216 105.99 97.2216H78.8081C76.3769 97.2216 74.4061 95.2508 74.4061 92.8196V87.0421Z" fill="url(#paint9_linear_14812_31453)" fill-opacity="0.65"/>
<g filter="url(#filter5_ii_14812_31453)">
<ellipse cx="92.4139" cy="56.6541" rx="11.2983" ry="10.7029" fill="url(#paint10_linear_14812_31453)" fill-opacity="0.65"/>
</g>
</g>
</g>
</g>
<g filter="url(#filter6_d_14812_31453)">
<ellipse cx="30.4429" cy="28.8378" rx="30.4429" ry="28.8378" transform="matrix(-1 0 0 1 123.442 115.771)" fill="url(#paint11_linear_14812_31453)"/>
<g filter="url(#filter7_i_14812_31453)">
<ellipse cx="29.6201" cy="28.0584" rx="29.6201" ry="28.0584" transform="matrix(-1 0 0 1 120.81 115.459)" fill="url(#paint12_linear_14812_31453)"/>
</g>
<path d="M62.5703 143.517C62.5703 158.411 75.3322 170.576 91.1904 170.576C107.049 170.576 119.81 158.411 119.81 143.517C119.81 128.624 107.049 116.459 91.1904 116.459C75.3322 116.459 62.5703 128.624 62.5703 143.517Z" stroke="#E7EEFD" stroke-width="2"/>
<mask id="mask2_14812_31453" style="mask-type:alpha" maskUnits="userSpaceOnUse" x="61" y="115" width="60" height="57">
<path d="M62.5688 143.517C62.5688 158.411 75.3308 170.576 91.1889 170.576C107.047 170.576 119.809 158.411 119.809 143.517C119.809 128.624 107.047 116.459 91.1889 116.459C75.3308 116.459 62.5688 128.624 62.5688 143.517Z" fill="url(#paint13_linear_14812_31453)" stroke="#A4BDF9" stroke-width="2"/>
</mask>
<g mask="url(#mask2_14812_31453)">
<g filter="url(#filter8_ii_14812_31453)">
<path d="M74.4028 170.687C74.4028 160.749 82.4586 152.693 92.396 152.693C102.333 152.693 110.389 160.749 110.389 170.687V176.464C110.389 178.895 108.418 180.866 105.987 180.866H78.8048C76.3736 180.866 74.4028 178.895 74.4028 176.464V170.687Z" fill="url(#paint14_linear_14812_31453)" fill-opacity="0.65"/>
<g filter="url(#filter9_ii_14812_31453)">
<ellipse cx="92.4106" cy="140.299" rx="11.2983" ry="10.7029" fill="url(#paint15_linear_14812_31453)" fill-opacity="0.65"/>
</g>
</g>
</g>
</g>
<g filter="url(#filter10_d_14812_31453)">
<ellipse cx="30.4429" cy="28.8378" rx="30.4429" ry="28.8378" transform="matrix(-1 0 0 1 63.8745 74.002)" fill="url(#paint16_linear_14812_31453)"/>
<g filter="url(#filter11_i_14812_31453)">
<ellipse cx="29.6201" cy="28.0584" rx="29.6201" ry="28.0584" transform="matrix(-1 0 0 1 61.2407 73.6855)" fill="url(#paint17_linear_14812_31453)"/>
</g>
<path d="M3.00051 101.744C3.00051 116.638 15.7624 128.802 31.6206 128.802C47.4787 128.802 60.2407 116.638 60.2407 101.744C60.2407 86.8504 47.4787 74.6855 31.6206 74.6855C15.7624 74.6855 3.00051 86.8504 3.00051 101.744Z" stroke="#E7EEFD" stroke-width="2"/>
<mask id="mask3_14812_31453" style="mask-type:alpha" maskUnits="userSpaceOnUse" x="2" y="73" width="60" height="57">
<path d="M3.00002 101.744C3.00002 116.638 15.7619 128.802 31.6201 128.802C47.4783 128.802 60.2402 116.638 60.2402 101.744C60.2402 86.8504 47.4783 74.6855 31.6201 74.6855C15.7619 74.6855 3.00002 86.8504 3.00002 101.744Z" fill="url(#paint18_linear_14812_31453)" stroke="#A4BDF9" stroke-width="2"/>
</mask>
<g mask="url(#mask3_14812_31453)">
<g filter="url(#filter12_ii_14812_31453)">
<path d="M14.8364 128.913C14.8364 118.976 22.8922 110.92 32.8296 110.92C42.767 110.92 50.8228 118.976 50.8228 128.913V134.691C50.8228 137.122 48.8519 139.093 46.4208 139.093H19.2384C16.8072 139.093 14.8364 137.122 14.8364 134.691V128.913Z" fill="url(#paint19_linear_14812_31453)" fill-opacity="0.65"/>
<path fill-rule="evenodd" clip-rule="evenodd" d="M31.1174 124.225C31.8271 125.791 34.0511 125.791 34.7608 124.225L39.9241 112.831C39.9841 112.699 40.0284 112.565 40.0582 112.431C46.3968 115.214 50.8238 121.547 50.8238 128.913V134.691C50.8238 137.122 48.8529 139.093 46.4218 139.093H19.2393C16.8082 139.093 14.8373 137.122 14.8373 134.691V128.913C14.8373 121.469 19.3576 115.081 25.8029 112.344C25.8315 112.507 25.8812 112.671 25.9541 112.831L31.1174 124.225Z" fill="url(#paint20_linear_14812_31453)" fill-opacity="0.65"/>
<g filter="url(#filter13_ii_14812_31453)">
<ellipse cx="32.8442" cy="98.5252" rx="11.2983" ry="10.7029" fill="url(#paint21_linear_14812_31453)" fill-opacity="0.65"/>
</g>
</g>
</g>
</g>
<g filter="url(#filter14_i_14812_31453)">
<path d="M111.793 21.9268C113.729 22.3954 115.951 22.2513 117.816 21.5502C118.76 21.1954 119.79 21.0002 120.868 21.0002C125.412 21.0002 129.096 24.4653 129.096 28.7398C129.096 30.1038 129.552 31.4956 130.395 32.5684C131.404 33.8533 132 35.4422 132 37.1622C132 40.5117 129.738 43.3643 126.573 44.4419C125.124 44.9353 123.79 45.8501 122.758 46.9808C121.249 48.6345 119.011 49.6821 116.512 49.6821C114.103 49.6821 111.935 48.7078 110.43 47.1552C109.622 46.3207 108.479 45.8123 107.317 45.8123C102.773 45.8123 99.0888 42.3472 99.0888 38.0728C99.0888 36.6655 99.4881 35.346 100.186 34.2089C101.05 32.8008 101.509 31.0748 101.509 29.4227C101.509 25.1482 105.192 21.6831 109.737 21.6831C110.447 21.6831 111.136 21.7677 111.793 21.9268Z" fill="url(#paint22_radial_14812_31453)"/>
</g>
<g filter="url(#filter15_i_14812_31453)">
<ellipse cx="107.646" cy="51.2412" rx="3.29131" ry="3.11769" fill="url(#paint23_radial_14812_31453)"/>
</g>
<path fill-rule="evenodd" clip-rule="evenodd" d="M85.3367 153.562C83.8377 151.697 80.6361 149.648 77.5964 149.736C74.5567 149.823 68.9855 151.737 65.5157 155.712C62.0459 159.687 65.4615 164.767 67.0533 166.747C69.0119 169.184 73.1558 170.194 76.3969 168.699C78.4627 167.745 83.723 165.099 82.6795 162.695C82.4975 162.275 81.9945 162.018 81.4747 161.751C80.7069 161.358 79.9026 160.946 80.0427 159.967C80.2106 158.793 81.4804 158.133 82.8619 158.775C82.9319 158.808 83.0059 158.843 83.0833 158.88C84.183 159.402 85.9716 160.251 86.7854 158.682C87.6564 157.001 86.5464 155.067 85.3367 153.562ZM80.809 154.422C80.4359 155.072 80.8288 155.957 81.6864 156.398C82.5441 156.84 83.5417 156.671 83.9148 156.021C84.2878 155.371 83.895 154.486 83.0373 154.045C82.1797 153.603 81.182 153.772 80.809 154.422Z" fill="url(#paint24_linear_14812_31453)"/>
<path d="M77.2588 149.887C78.6572 149.846 80.1246 150.299 81.4393 151.005C82.7528 151.71 83.8731 152.647 84.5765 153.522C85.1677 154.257 85.71 155.069 86.0038 155.879C86.2957 156.684 86.3285 157.444 85.9727 158.13C85.8128 158.439 85.6267 158.592 85.4483 158.671C85.2622 158.754 85.0322 158.779 84.7519 158.746C84.1686 158.677 83.5273 158.378 82.9592 158.108C82.8822 158.071 82.8062 158.035 82.7339 158.002C81.9227 157.624 81.0948 157.61 80.4237 157.914C79.7519 158.218 79.2884 158.82 79.1819 159.565C79.0884 160.218 79.3201 160.712 79.697 161.082C80.0324 161.411 80.4855 161.643 80.847 161.828C80.8576 161.834 80.8682 161.839 80.8786 161.844C81.1462 161.982 81.3675 162.096 81.546 162.221C81.7221 162.345 81.8117 162.45 81.8528 162.545C82.0317 162.957 81.9629 163.408 81.636 163.927C81.3037 164.454 80.7348 164.997 80.034 165.522C78.6368 166.569 76.8472 167.45 75.8201 167.924C74.3288 168.612 72.524 168.693 70.8434 168.299C69.1603 167.905 67.661 167.049 66.7669 165.936C65.991 164.971 64.8691 163.311 64.3593 161.431C63.8535 159.565 63.956 157.521 65.5569 155.687C67.2333 153.766 69.4274 152.334 71.5822 151.371C73.742 150.406 75.8254 149.928 77.2588 149.887ZM80.0062 153.852C79.4483 154.824 80.0827 155.972 81.0893 156.491C82.0957 157.009 83.4547 156.889 84.0115 155.919C84.5693 154.947 83.9349 153.799 82.9283 153.28C81.9219 152.762 80.5629 152.882 80.0062 153.852Z" fill="url(#paint25_linear_14812_31453)" stroke="#C7D6FA"/>
<g filter="url(#filter16_di_14812_31453)">
<ellipse cx="1.70918" cy="1.73399" rx="1.70918" ry="1.73399" transform="matrix(0.626437 0.779472 -0.811089 0.584923 74.8516 151.124)" fill="#D5C2E7"/>
</g>
<g filter="url(#filter17_di_14812_31453)">
<ellipse cx="1.70918" cy="1.73399" rx="1.70918" ry="1.73399" transform="matrix(0.626437 0.779472 -0.811089 0.584923 70.0703 154.569)" fill="#A163D9"/>
</g>
<g filter="url(#filter18_di_14812_31453)">
<ellipse cx="1.70918" cy="1.73399" rx="1.70918" ry="1.73399" transform="matrix(0.626437 0.779472 -0.811089 0.584923 68.6226 159.405)" fill="#E6B2BF"/>
</g>
<g filter="url(#filter19_di_14812_31453)">
<ellipse cx="1.70918" cy="1.73399" rx="1.70918" ry="1.73399" transform="matrix(0.626437 0.779472 -0.811089 0.584923 72.3984 162.991)" fill="#8A67A9"/>
</g>
<g filter="url(#filter20_i_14812_31453)">
<path fill-rule="evenodd" clip-rule="evenodd" d="M90.7885 124.543C90.2818 124.734 90.0412 125.294 90.251 125.793L90.7728 127.035C85.2673 127.287 80.9873 129.202 80.9873 131.527C80.9873 134.021 85.9135 134.021 91.994 134.021H92.0126H92.0311C98.1116 134.021 103.038 134.021 103.038 131.527C103.038 129.146 98.5503 127.196 92.8547 127.019C92.8438 126.936 92.8214 126.852 92.7868 126.769L92.0857 125.101C91.8759 124.602 91.2951 124.352 90.7885 124.543Z" fill="url(#paint26_linear_14812_31453)"/>
</g>
<path d="M111.435 148.815C111.99 149.118 111.196 151.405 106.537 159.049C101.642 167.08 100.184 168.488 99.6292 168.185C99.0743 167.881 99.5116 166.18 104.527 157.95C108.948 150.698 110.88 148.511 111.435 148.815Z" fill="url(#paint27_linear_14812_31453)"/>
<path fill-rule="evenodd" clip-rule="evenodd" d="M110.465 152.174L108.867 151.3C110.329 149.303 111.113 148.643 111.435 148.819C111.765 148.999 111.618 149.881 110.465 152.174Z" fill="#2666F5"/>
<path d="M110.445 150.441C109.145 149.729 109.369 147.423 110.514 145.545C111.17 144.468 112.07 143.639 113.042 143.127C114.313 142.457 115.81 143.276 115.834 144.653C115.852 145.707 115.544 146.859 114.887 147.937C113.743 149.815 111.746 151.152 110.445 150.441Z" fill="#E6ECFD"/>
<mask id="mask4_14812_31453" style="mask-type:alpha" maskUnits="userSpaceOnUse" x="109" y="142" width="7" height="9">
<path d="M112.359 150.363C111.088 151.032 109.591 150.213 109.567 148.836C109.549 147.782 109.857 146.63 110.514 145.553C111.17 144.475 112.07 143.647 113.042 143.134C114.313 142.465 115.81 143.284 115.834 144.661C115.852 145.715 115.544 146.867 114.887 147.944C114.231 149.022 113.331 149.85 112.359 150.363Z" fill="#D9D9D9"/>
</mask>
<g mask="url(#mask4_14812_31453)">
<path d="M115.79 138.964C116.106 139.137 116.089 139.779 115.804 140.622C116.433 139.966 117.01 139.632 117.327 139.805C117.609 139.959 117.626 140.486 117.423 141.197C117.972 140.676 118.462 140.426 118.745 140.58C119.267 140.866 118.881 142.426 117.882 144.065C116.883 145.703 115.65 146.8 115.128 146.515C114.846 146.36 114.829 145.833 115.031 145.122C114.482 145.643 113.992 145.893 113.71 145.739C113.393 145.566 113.41 144.925 113.695 144.082C113.067 144.737 112.49 145.072 112.173 144.899C111.651 144.613 112.037 143.053 113.036 141.414C114.035 139.776 115.268 138.679 115.79 138.964Z" fill="#A163D9"/>
</g>
<path fill-rule="evenodd" clip-rule="evenodd" d="M31.4648 110.788C30.8252 110.788 30.3068 111.306 30.3068 111.946V112.372C30.3068 113.274 30.7903 114.063 31.5123 114.493C31.3004 114.739 31.1578 115.048 31.1169 115.392L30.2123 122.981C30.1662 123.368 30.2339 123.759 30.4071 124.108L31.0376 125.377C31.7629 126.837 33.8364 126.862 34.5974 125.421L35.2728 124.141C35.4676 123.772 35.5421 123.351 35.4857 122.938L34.4541 115.364C34.4082 115.027 34.2645 114.725 34.054 114.484C34.7672 114.051 35.2438 113.267 35.2438 112.372V111.946C35.2438 111.306 34.7253 110.788 34.0858 110.788H31.4648Z" fill="url(#paint28_linear_14812_31453)"/>
<g filter="url(#filter21_d_14812_31453)">
<rect opacity="0.8" x="113.299" y="40.0767" width="4.16666" height="3.01819" rx="1.50909" fill="url(#paint29_linear_14812_31453)"/>
<g filter="url(#filter22_ii_14812_31453)">
<path d="M116.705 39.5023C118.029 37.8782 119.472 36.2018 120.498 34.3747C120.909 33.6432 121.142 32.8123 121.142 31.9313C121.142 28.9956 118.563 26.6157 115.382 26.6157C112.201 26.6157 109.622 28.9956 109.622 31.9313C109.622 32.8123 109.854 33.6432 110.265 34.3747C111.292 36.2018 112.734 37.8782 114.059 39.5023C114.468 40.0035 114.914 40.3136 115.382 40.3136C115.85 40.3136 116.296 40.0035 116.705 39.5023Z" fill="url(#paint30_linear_14812_31453)" fill-opacity="0.65"/>
</g>
<rect x="113.054" y="37.5259" width="4.65686" height="4.17903" rx="2" fill="url(#paint31_linear_14812_31453)"/>
<path fill-rule="evenodd" clip-rule="evenodd" d="M114.808 37.522C114.925 37.522 114.955 37.685 114.845 37.7267L114.014 38.0416C113.765 38.1358 113.609 37.899 113.842 37.7704C114.128 37.6121 114.457 37.522 114.808 37.522ZM112.808 39.701C112.808 39.6206 112.857 39.5485 112.933 39.52L116.833 38.0422C117.032 37.9666 117.261 37.993 117.408 38.1481C117.655 38.4096 117.493 38.8054 117.156 38.933L113.765 40.2182C113.324 40.385 112.808 40.1717 112.808 39.701ZM114.805 40.8926C114.311 41.0798 114.279 41.701 114.808 41.701H115.955C117.059 41.701 117.955 40.8056 117.955 39.701C117.955 39.7001 117.954 39.6994 117.953 39.6998L114.805 40.8926Z" fill="url(#paint32_linear_14812_31453)"/>
</g>
<defs>
<filter id="filter0_d_14812_31453" x="59.5705" y="31.916" width="69.8732" height="65.9883" filterUnits="userSpaceOnUse" color-interpolation-filters="sRGB">
<feFlood flood-opacity="0" result="BackgroundImageFix"/>
<feColorMatrix in="SourceAlpha" type="matrix" values="0 0 0 0 0 0 0 0 0 0 0 0 0 0 0 0 0 0 127 0" result="hardAlpha"/>
<feOffset dx="2" dy="4"/>
<feGaussianBlur stdDeviation="2"/>
<feComposite in2="hardAlpha" operator="out"/>
<feColorMatrix type="matrix" values="0 0 0 0 0.145098 0 0 0 0 0.396078 0 0 0 0 0.956863 0 0 0 0.5 0"/>
<feBlend mode="normal" in2="BackgroundImageFix" result="effect1_dropShadow_14812_31453"/>
<feBlend mode="normal" in="SourceGraphic" in2="effect1_dropShadow_14812_31453" result="shape"/>
</filter>
<filter id="filter1_i_14812_31453" x="61.5705" y="29.916" width="59.2401" height="58.1167" filterUnits="userSpaceOnUse" color-interpolation-filters="sRGB">
<feFlood flood-opacity="0" result="BackgroundImageFix"/>
<feBlend mode="normal" in="SourceGraphic" in2="BackgroundImageFix" result="shape"/>
<feColorMatrix in="SourceAlpha" type="matrix" values="0 0 0 0 0 0 0 0 0 0 0 0 0 0 0 0 0 0 127 0" result="hardAlpha"/>
<feOffset dy="-2"/>
<feGaussianBlur stdDeviation="1"/>
<feComposite in2="hardAlpha" operator="arithmetic" k2="-1" k3="1"/>
<feColorMatrix type="matrix" values="0 0 0 0 1 0 0 0 0 1 0 0 0 0 1 0 0 0 0.5 0"/>
<feBlend mode="normal" in2="shape" result="effect1_innerShadow_14812_31453"/>
</filter>
<filter id="filter2_ii_14812_31453" x="81.1135" y="42.0645" width="22.5967" height="25.4058" filterUnits="userSpaceOnUse" color-interpolation-filters="sRGB">
<feFlood flood-opacity="0" result="BackgroundImageFix"/>
<feBlend mode="normal" in="SourceGraphic" in2="BackgroundImageFix" result="shape"/>
<feColorMatrix in="SourceAlpha" type="matrix" values="0 0 0 0 0 0 0 0 0 0 0 0 0 0 0 0 0 0 127 0" result="hardAlpha"/>
<feOffset/>
<feGaussianBlur stdDeviation="5"/>
<feComposite in2="hardAlpha" operator="arithmetic" k2="-1" k3="1"/>
<feColorMatrix type="matrix" values="0 0 0 0 0.835294 0 0 0 0 0.760784 0 0 0 0 0.905882 0 0 0 1 0"/>
<feBlend mode="normal" in2="shape" result="effect1_innerShadow_14812_31453"/>
<feColorMatrix in="SourceAlpha" type="matrix" values="0 0 0 0 0 0 0 0 0 0 0 0 0 0 0 0 0 0 127 0" result="hardAlpha"/>
<feOffset dy="-4"/>
<feGaussianBlur stdDeviation="3"/>
<feComposite in2="hardAlpha" operator="arithmetic" k2="-1" k3="1"/>
<feColorMatrix type="matrix" values="0 0 0 0 0.14902 0 0 0 0 0.4 0 0 0 0 0.960784 0 0 0 0.5 0"/>
<feBlend mode="normal" in2="effect1_innerShadow_14812_31453" result="effect2_innerShadow_14812_31453"/>
</filter>
<filter id="filter3_ii_14812_31453" x="81.1135" y="42.0645" width="22.5967" height="25.4058" filterUnits="userSpaceOnUse" color-interpolation-filters="sRGB">
<feFlood flood-opacity="0" result="BackgroundImageFix"/>
<feBlend mode="normal" in="SourceGraphic" in2="BackgroundImageFix" result="shape"/>
<feColorMatrix in="SourceAlpha" type="matrix" values="0 0 0 0 0 0 0 0 0 0 0 0 0 0 0 0 0 0 127 0" result="hardAlpha"/>
<feOffset/>
<feGaussianBlur stdDeviation="5"/>
<feComposite in2="hardAlpha" operator="arithmetic" k2="-1" k3="1"/>
<feColorMatrix type="matrix" values="0 0 0 0 0.835294 0 0 0 0 0.760784 0 0 0 0 0.905882 0 0 0 1 0"/>
<feBlend mode="normal" in2="shape" result="effect1_innerShadow_14812_31453"/>
<feColorMatrix in="SourceAlpha" type="matrix" values="0 0 0 0 0 0 0 0 0 0 0 0 0 0 0 0 0 0 127 0" result="hardAlpha"/>
<feOffset dy="-4"/>
<feGaussianBlur stdDeviation="3"/>
<feComposite in2="hardAlpha" operator="arithmetic" k2="-1" k3="1"/>
<feColorMatrix type="matrix" values="0 0 0 0 0.14902 0 0 0 0 0.4 0 0 0 0 0.960784 0 0 0 0.5 0"/>
<feBlend mode="normal" in2="effect1_innerShadow_14812_31453" result="effect2_innerShadow_14812_31453"/>
</filter>
<filter id="filter4_ii_14812_31453" x="74.4061" y="41.9512" width="35.9864" height="55.2705" filterUnits="userSpaceOnUse" color-interpolation-filters="sRGB">
<feFlood flood-opacity="0" result="BackgroundImageFix"/>
<feBlend mode="normal" in="SourceGraphic" in2="BackgroundImageFix" result="shape"/>
<feColorMatrix in="SourceAlpha" type="matrix" values="0 0 0 0 0 0 0 0 0 0 0 0 0 0 0 0 0 0 127 0" result="hardAlpha"/>
<feOffset/>
<feGaussianBlur stdDeviation="5"/>
<feComposite in2="hardAlpha" operator="arithmetic" k2="-1" k3="1"/>
<feColorMatrix type="matrix" values="0 0 0 0 0.835294 0 0 0 0 0.760784 0 0 0 0 0.905882 0 0 0 1 0"/>
<feBlend mode="normal" in2="shape" result="effect1_innerShadow_14812_31453"/>
<feColorMatrix in="SourceAlpha" type="matrix" values="0 0 0 0 0 0 0 0 0 0 0 0 0 0 0 0 0 0 127 0" result="hardAlpha"/>
<feOffset dy="-4"/>
<feGaussianBlur stdDeviation="3"/>
<feComposite in2="hardAlpha" operator="arithmetic" k2="-1" k3="1"/>
<feColorMatrix type="matrix" values="0 0 0 0 0.14902 0 0 0 0 0.4 0 0 0 0 0.960784 0 0 0 0.5 0"/>
<feBlend mode="normal" in2="effect1_innerShadow_14812_31453" result="effect2_innerShadow_14812_31453"/>
</filter>
<filter id="filter5_ii_14812_31453" x="81.1155" y="41.9512" width="22.5967" height="25.4058" filterUnits="userSpaceOnUse" color-interpolation-filters="sRGB">
<feFlood flood-opacity="0" result="BackgroundImageFix"/>
<feBlend mode="normal" in="SourceGraphic" in2="BackgroundImageFix" result="shape"/>
<feColorMatrix in="SourceAlpha" type="matrix" values="0 0 0 0 0 0 0 0 0 0 0 0 0 0 0 0 0 0 127 0" result="hardAlpha"/>
<feOffset/>
<feGaussianBlur stdDeviation="5"/>
<feComposite in2="hardAlpha" operator="arithmetic" k2="-1" k3="1"/>
<feColorMatrix type="matrix" values="0 0 0 0 0.835294 0 0 0 0 0.760784 0 0 0 0 0.905882 0 0 0 1 0"/>
<feBlend mode="normal" in2="shape" result="effect1_innerShadow_14812_31453"/>
<feColorMatrix in="SourceAlpha" type="matrix" values="0 0 0 0 0 0 0 0 0 0 0 0 0 0 0 0 0 0 127 0" result="hardAlpha"/>
<feOffset dy="-4"/>
<feGaussianBlur stdDeviation="3"/>
<feComposite in2="hardAlpha" operator="arithmetic" k2="-1" k3="1"/>
<feColorMatrix type="matrix" values="0 0 0 0 0.14902 0 0 0 0 0.4 0 0 0 0 0.960784 0 0 0 0.5 0"/>
<feBlend mode="normal" in2="effect1_innerShadow_14812_31453" result="effect2_innerShadow_14812_31453"/>
</filter>
<filter id="filter6_d_14812_31453" x="59.5703" y="115.459" width="69.8721" height="65.9883" filterUnits="userSpaceOnUse" color-interpolation-filters="sRGB">
<feFlood flood-opacity="0" result="BackgroundImageFix"/>
<feColorMatrix in="SourceAlpha" type="matrix" values="0 0 0 0 0 0 0 0 0 0 0 0 0 0 0 0 0 0 127 0" result="hardAlpha"/>
<feOffset dx="2" dy="4"/>
<feGaussianBlur stdDeviation="2"/>
<feComposite in2="hardAlpha" operator="out"/>
<feColorMatrix type="matrix" values="0 0 0 0 0.145098 0 0 0 0 0.396078 0 0 0 0 0.956863 0 0 0 0.5 0"/>
<feBlend mode="normal" in2="BackgroundImageFix" result="effect1_dropShadow_14812_31453"/>
<feBlend mode="normal" in="SourceGraphic" in2="effect1_dropShadow_14812_31453" result="shape"/>
</filter>
<filter id="filter7_i_14812_31453" x="61.5703" y="113.459" width="59.2401" height="58.1167" filterUnits="userSpaceOnUse" color-interpolation-filters="sRGB">
<feFlood flood-opacity="0" result="BackgroundImageFix"/>
<feBlend mode="normal" in="SourceGraphic" in2="BackgroundImageFix" result="shape"/>
<feColorMatrix in="SourceAlpha" type="matrix" values="0 0 0 0 0 0 0 0 0 0 0 0 0 0 0 0 0 0 127 0" result="hardAlpha"/>
<feOffset dy="-2"/>
<feGaussianBlur stdDeviation="1"/>
<feComposite in2="hardAlpha" operator="arithmetic" k2="-1" k3="1"/>
<feColorMatrix type="matrix" values="0 0 0 0 1 0 0 0 0 1 0 0 0 0 1 0 0 0 0.5 0"/>
<feBlend mode="normal" in2="shape" result="effect1_innerShadow_14812_31453"/>
</filter>
<filter id="filter8_ii_14812_31453" x="74.4028" y="125.596" width="35.9864" height="55.2705" filterUnits="userSpaceOnUse" color-interpolation-filters="sRGB">
<feFlood flood-opacity="0" result="BackgroundImageFix"/>
<feBlend mode="normal" in="SourceGraphic" in2="BackgroundImageFix" result="shape"/>
<feColorMatrix in="SourceAlpha" type="matrix" values="0 0 0 0 0 0 0 0 0 0 0 0 0 0 0 0 0 0 127 0" result="hardAlpha"/>
<feOffset/>
<feGaussianBlur stdDeviation="5"/>
<feComposite in2="hardAlpha" operator="arithmetic" k2="-1" k3="1"/>
<feColorMatrix type="matrix" values="0 0 0 0 0.835294 0 0 0 0 0.760784 0 0 0 0 0.905882 0 0 0 1 0"/>
<feBlend mode="normal" in2="shape" result="effect1_innerShadow_14812_31453"/>
<feColorMatrix in="SourceAlpha" type="matrix" values="0 0 0 0 0 0 0 0 0 0 0 0 0 0 0 0 0 0 127 0" result="hardAlpha"/>
<feOffset dy="-4"/>
<feGaussianBlur stdDeviation="3"/>
<feComposite in2="hardAlpha" operator="arithmetic" k2="-1" k3="1"/>
<feColorMatrix type="matrix" values="0 0 0 0 0.14902 0 0 0 0 0.4 0 0 0 0 0.960784 0 0 0 0.5 0"/>
<feBlend mode="normal" in2="effect1_innerShadow_14812_31453" result="effect2_innerShadow_14812_31453"/>
</filter>
<filter id="filter9_ii_14812_31453" x="81.1122" y="125.596" width="22.5967" height="25.4058" filterUnits="userSpaceOnUse" color-interpolation-filters="sRGB">
<feFlood flood-opacity="0" result="BackgroundImageFix"/>
<feBlend mode="normal" in="SourceGraphic" in2="BackgroundImageFix" result="shape"/>
<feColorMatrix in="SourceAlpha" type="matrix" values="0 0 0 0 0 0 0 0 0 0 0 0 0 0 0 0 0 0 127 0" result="hardAlpha"/>
<feOffset/>
<feGaussianBlur stdDeviation="5"/>
<feComposite in2="hardAlpha" operator="arithmetic" k2="-1" k3="1"/>
<feColorMatrix type="matrix" values="0 0 0 0 0.835294 0 0 0 0 0.760784 0 0 0 0 0.905882 0 0 0 1 0"/>
<feBlend mode="normal" in2="shape" result="effect1_innerShadow_14812_31453"/>
<feColorMatrix in="SourceAlpha" type="matrix" values="0 0 0 0 0 0 0 0 0 0 0 0 0 0 0 0 0 0 127 0" result="hardAlpha"/>
<feOffset dy="-4"/>
<feGaussianBlur stdDeviation="3"/>
<feComposite in2="hardAlpha" operator="arithmetic" k2="-1" k3="1"/>
<feColorMatrix type="matrix" values="0 0 0 0 0.14902 0 0 0 0 0.4 0 0 0 0 0.960784 0 0 0 0.5 0"/>
<feBlend mode="normal" in2="effect1_innerShadow_14812_31453" result="effect2_innerShadow_14812_31453"/>
</filter>
<filter id="filter10_d_14812_31453" x="0.000488281" y="73.6855" width="69.874" height="65.9922" filterUnits="userSpaceOnUse" color-interpolation-filters="sRGB">
<feFlood flood-opacity="0" result="BackgroundImageFix"/>
<feColorMatrix in="SourceAlpha" type="matrix" values="0 0 0 0 0 0 0 0 0 0 0 0 0 0 0 0 0 0 127 0" result="hardAlpha"/>
<feOffset dx="2" dy="4"/>
<feGaussianBlur stdDeviation="2"/>
<feComposite in2="hardAlpha" operator="out"/>
<feColorMatrix type="matrix" values="0 0 0 0 0.145098 0 0 0 0 0.396078 0 0 0 0 0.956863 0 0 0 0.5 0"/>
<feBlend mode="normal" in2="BackgroundImageFix" result="effect1_dropShadow_14812_31453"/>
<feBlend mode="normal" in="SourceGraphic" in2="effect1_dropShadow_14812_31453" result="shape"/>
</filter>
<filter id="filter11_i_14812_31453" x="2.00049" y="71.6855" width="59.2402" height="58.1167" filterUnits="userSpaceOnUse" color-interpolation-filters="sRGB">
<feFlood flood-opacity="0" result="BackgroundImageFix"/>
<feBlend mode="normal" in="SourceGraphic" in2="BackgroundImageFix" result="shape"/>
<feColorMatrix in="SourceAlpha" type="matrix" values="0 0 0 0 0 0 0 0 0 0 0 0 0 0 0 0 0 0 127 0" result="hardAlpha"/>
<feOffset dy="-2"/>
<feGaussianBlur stdDeviation="1"/>
<feComposite in2="hardAlpha" operator="arithmetic" k2="-1" k3="1"/>
<feColorMatrix type="matrix" values="0 0 0 0 1 0 0 0 0 1 0 0 0 0 1 0 0 0 0.5 0"/>
<feBlend mode="normal" in2="shape" result="effect1_innerShadow_14812_31453"/>
</filter>
<filter id="filter12_ii_14812_31453" x="14.8364" y="83.8223" width="35.9874" height="55.2705" filterUnits="userSpaceOnUse" color-interpolation-filters="sRGB">
<feFlood flood-opacity="0" result="BackgroundImageFix"/>
<feBlend mode="normal" in="SourceGraphic" in2="BackgroundImageFix" result="shape"/>
<feColorMatrix in="SourceAlpha" type="matrix" values="0 0 0 0 0 0 0 0 0 0 0 0 0 0 0 0 0 0 127 0" result="hardAlpha"/>
<feOffset/>
<feGaussianBlur stdDeviation="5"/>
<feComposite in2="hardAlpha" operator="arithmetic" k2="-1" k3="1"/>
<feColorMatrix type="matrix" values="0 0 0 0 0.835294 0 0 0 0 0.760784 0 0 0 0 0.905882 0 0 0 1 0"/>
<feBlend mode="normal" in2="shape" result="effect1_innerShadow_14812_31453"/>
<feColorMatrix in="SourceAlpha" type="matrix" values="0 0 0 0 0 0 0 0 0 0 0 0 0 0 0 0 0 0 127 0" result="hardAlpha"/>
<feOffset dy="-4"/>
<feGaussianBlur stdDeviation="3"/>
<feComposite in2="hardAlpha" operator="arithmetic" k2="-1" k3="1"/>
<feColorMatrix type="matrix" values="0 0 0 0 0.14902 0 0 0 0 0.4 0 0 0 0 0.960784 0 0 0 0.5 0"/>
<feBlend mode="normal" in2="effect1_innerShadow_14812_31453" result="effect2_innerShadow_14812_31453"/>
</filter>
<filter id="filter13_ii_14812_31453" x="21.5458" y="83.8223" width="22.5967" height="25.4058" filterUnits="userSpaceOnUse" color-interpolation-filters="sRGB">
<feFlood flood-opacity="0" result="BackgroundImageFix"/>
<feBlend mode="normal" in="SourceGraphic" in2="BackgroundImageFix" result="shape"/>
<feColorMatrix in="SourceAlpha" type="matrix" values="0 0 0 0 0 0 0 0 0 0 0 0 0 0 0 0 0 0 127 0" result="hardAlpha"/>
<feOffset/>
<feGaussianBlur stdDeviation="5"/>
<feComposite in2="hardAlpha" operator="arithmetic" k2="-1" k3="1"/>
<feColorMatrix type="matrix" values="0 0 0 0 0.835294 0 0 0 0 0.760784 0 0 0 0 0.905882 0 0 0 1 0"/>
<feBlend mode="normal" in2="shape" result="effect1_innerShadow_14812_31453"/>
<feColorMatrix in="SourceAlpha" type="matrix" values="0 0 0 0 0 0 0 0 0 0 0 0 0 0 0 0 0 0 127 0" result="hardAlpha"/>
<feOffset dy="-4"/>
<feGaussianBlur stdDeviation="3"/>
<feComposite in2="hardAlpha" operator="arithmetic" k2="-1" k3="1"/>
<feColorMatrix type="matrix" values="0 0 0 0 0.14902 0 0 0 0 0.4 0 0 0 0 0.960784 0 0 0 0.5 0"/>
<feBlend mode="normal" in2="effect1_innerShadow_14812_31453" result="effect2_innerShadow_14812_31453"/>
</filter>
<filter id="filter14_i_14812_31453" x="99.0888" y="21" width="32.9112" height="28.6821" filterUnits="userSpaceOnUse" color-interpolation-filters="sRGB">
<feFlood flood-opacity="0" result="BackgroundImageFix"/>
<feBlend mode="normal" in="SourceGraphic" in2="BackgroundImageFix" result="shape"/>
<feColorMatrix in="SourceAlpha" type="matrix" values="0 0 0 0 0 0 0 0 0 0 0 0 0 0 0 0 0 0 127 0" result="hardAlpha"/>
<feOffset/>
<feGaussianBlur stdDeviation="2"/>
<feComposite in2="hardAlpha" operator="arithmetic" k2="-1" k3="1"/>
<feColorMatrix type="matrix" values="0 0 0 0 0.14902 0 0 0 0 0.4 0 0 0 0 0.960784 0 0 0 1 0"/>
<feBlend mode="normal" in2="shape" result="effect1_innerShadow_14812_31453"/>
</filter>
<filter id="filter15_i_14812_31453" x="104.354" y="48.1235" width="6.58261" height="6.23535" filterUnits="userSpaceOnUse" color-interpolation-filters="sRGB">
<feFlood flood-opacity="0" result="BackgroundImageFix"/>
<feBlend mode="normal" in="SourceGraphic" in2="BackgroundImageFix" result="shape"/>
<feColorMatrix in="SourceAlpha" type="matrix" values="0 0 0 0 0 0 0 0 0 0 0 0 0 0 0 0 0 0 127 0" result="hardAlpha"/>
<feOffset/>
<feGaussianBlur stdDeviation="2"/>
<feComposite in2="hardAlpha" operator="arithmetic" k2="-1" k3="1"/>
<feColorMatrix type="matrix" values="0 0 0 0 0.14902 0 0 0 0 0.4 0 0 0 0 0.960784 0 0 0 1 0"/>
<feBlend mode="normal" in2="shape" result="effect1_innerShadow_14812_31453"/>
</filter>
<filter id="filter16_di_14812_31453" x="71.7482" y="150.795" width="5.53534" height="6.34912" filterUnits="userSpaceOnUse" color-interpolation-filters="sRGB">
<feFlood flood-opacity="0" result="BackgroundImageFix"/>
<feColorMatrix in="SourceAlpha" type="matrix" values="0 0 0 0 0 0 0 0 0 0 0 0 0 0 0 0 0 0 127 0" result="hardAlpha"/>
<feOffset dy="1"/>
<feGaussianBlur stdDeviation="0.5"/>
<feComposite in2="hardAlpha" operator="out"/>
<feColorMatrix type="matrix" values="0 0 0 0 0.14902 0 0 0 0 0.4 0 0 0 0 0.960784 0 0 0 0.64 0"/>
<feBlend mode="normal" in2="BackgroundImageFix" result="effect1_dropShadow_14812_31453"/>
<feBlend mode="normal" in="SourceGraphic" in2="effect1_dropShadow_14812_31453" result="shape"/>
<feColorMatrix in="SourceAlpha" type="matrix" values="0 0 0 0 0 0 0 0 0 0 0 0 0 0 0 0 0 0 127 0" result="hardAlpha"/>
<feOffset dy="-2"/>
<feGaussianBlur stdDeviation="0.5"/>
<feComposite in2="hardAlpha" operator="arithmetic" k2="-1" k3="1"/>
<feColorMatrix type="matrix" values="0 0 0 0 0.145098 0 0 0 0 0.396078 0 0 0 0 0.956863 0 0 0 0.36 0"/>
<feBlend mode="normal" in2="shape" result="effect2_innerShadow_14812_31453"/>
</filter>
<filter id="filter17_di_14812_31453" x="66.9669" y="154.241" width="5.53534" height="6.34912" filterUnits="userSpaceOnUse" color-interpolation-filters="sRGB">
<feFlood flood-opacity="0" result="BackgroundImageFix"/>
<feColorMatrix in="SourceAlpha" type="matrix" values="0 0 0 0 0 0 0 0 0 0 0 0 0 0 0 0 0 0 127 0" result="hardAlpha"/>
<feOffset dy="1"/>
<feGaussianBlur stdDeviation="0.5"/>
<feComposite in2="hardAlpha" operator="out"/>
<feColorMatrix type="matrix" values="0 0 0 0 0.14902 0 0 0 0 0.4 0 0 0 0 0.960784 0 0 0 0.64 0"/>
<feBlend mode="normal" in2="BackgroundImageFix" result="effect1_dropShadow_14812_31453"/>
<feBlend mode="normal" in="SourceGraphic" in2="effect1_dropShadow_14812_31453" result="shape"/>
<feColorMatrix in="SourceAlpha" type="matrix" values="0 0 0 0 0 0 0 0 0 0 0 0 0 0 0 0 0 0 127 0" result="hardAlpha"/>
<feOffset dy="-2"/>
<feGaussianBlur stdDeviation="0.5"/>
<feComposite in2="hardAlpha" operator="arithmetic" k2="-1" k3="1"/>
<feColorMatrix type="matrix" values="0 0 0 0 0.145098 0 0 0 0 0.396078 0 0 0 0 0.956863 0 0 0 0.36 0"/>
<feBlend mode="normal" in2="shape" result="effect2_innerShadow_14812_31453"/>
</filter>
<filter id="filter18_di_14812_31453" x="65.5192" y="159.077" width="5.53534" height="6.34912" filterUnits="userSpaceOnUse" color-interpolation-filters="sRGB">
<feFlood flood-opacity="0" result="BackgroundImageFix"/>
<feColorMatrix in="SourceAlpha" type="matrix" values="0 0 0 0 0 0 0 0 0 0 0 0 0 0 0 0 0 0 127 0" result="hardAlpha"/>
<feOffset dy="1"/>
<feGaussianBlur stdDeviation="0.5"/>
<feComposite in2="hardAlpha" operator="out"/>
<feColorMatrix type="matrix" values="0 0 0 0 0.14902 0 0 0 0 0.4 0 0 0 0 0.960784 0 0 0 0.64 0"/>
<feBlend mode="normal" in2="BackgroundImageFix" result="effect1_dropShadow_14812_31453"/>
<feBlend mode="normal" in="SourceGraphic" in2="effect1_dropShadow_14812_31453" result="shape"/>
<feColorMatrix in="SourceAlpha" type="matrix" values="0 0 0 0 0 0 0 0 0 0 0 0 0 0 0 0 0 0 127 0" result="hardAlpha"/>
<feOffset dy="-2"/>
<feGaussianBlur stdDeviation="0.5"/>
<feComposite in2="hardAlpha" operator="arithmetic" k2="-1" k3="1"/>
<feColorMatrix type="matrix" values="0 0 0 0 0.145098 0 0 0 0 0.396078 0 0 0 0 0.956863 0 0 0 0.36 0"/>
<feBlend mode="normal" in2="shape" result="effect2_innerShadow_14812_31453"/>
</filter>
<filter id="filter19_di_14812_31453" x="69.295" y="162.663" width="5.53534" height="6.34912" filterUnits="userSpaceOnUse" color-interpolation-filters="sRGB">
<feFlood flood-opacity="0" result="BackgroundImageFix"/>
<feColorMatrix in="SourceAlpha" type="matrix" values="0 0 0 0 0 0 0 0 0 0 0 0 0 0 0 0 0 0 127 0" result="hardAlpha"/>
<feOffset dy="1"/>
<feGaussianBlur stdDeviation="0.5"/>
<feComposite in2="hardAlpha" operator="out"/>
<feColorMatrix type="matrix" values="0 0 0 0 0.14902 0 0 0 0 0.4 0 0 0 0 0.960784 0 0 0 0.64 0"/>
<feBlend mode="normal" in2="BackgroundImageFix" result="effect1_dropShadow_14812_31453"/>
<feBlend mode="normal" in="SourceGraphic" in2="effect1_dropShadow_14812_31453" result="shape"/>
<feColorMatrix in="SourceAlpha" type="matrix" values="0 0 0 0 0 0 0 0 0 0 0 0 0 0 0 0 0 0 127 0" result="hardAlpha"/>
<feOffset dy="-2"/>
<feGaussianBlur stdDeviation="0.5"/>
<feComposite in2="hardAlpha" operator="arithmetic" k2="-1" k3="1"/>
<feColorMatrix type="matrix" values="0 0 0 0 0.145098 0 0 0 0 0.396078 0 0 0 0 0.956863 0 0 0 0.36 0"/>
<feBlend mode="normal" in2="shape" result="effect2_innerShadow_14812_31453"/>
</filter>
<filter id="filter20_i_14812_31453" x="80.9873" y="122.479" width="22.0505" height="11.542" filterUnits="userSpaceOnUse" color-interpolation-filters="sRGB">
<feFlood flood-opacity="0" result="BackgroundImageFix"/>
<feBlend mode="normal" in="SourceGraphic" in2="BackgroundImageFix" result="shape"/>
<feColorMatrix in="SourceAlpha" type="matrix" values="0 0 0 0 0 0 0 0 0 0 0 0 0 0 0 0 0 0 127 0" result="hardAlpha"/>
<feOffset dy="-2"/>
<feGaussianBlur stdDeviation="2"/>
<feComposite in2="hardAlpha" operator="arithmetic" k2="-1" k3="1"/>
<feColorMatrix type="matrix" values="0 0 0 0 0.14902 0 0 0 0 0.4 0 0 0 0 0.960784 0 0 0 0.5 0"/>
<feBlend mode="normal" in2="shape" result="effect1_innerShadow_14812_31453"/>
</filter>
<filter id="filter21_d_14812_31453" x="79.6221" y="0.615723" width="71.5196" height="76.479" filterUnits="userSpaceOnUse" color-interpolation-filters="sRGB">
<feFlood flood-opacity="0" result="BackgroundImageFix"/>
<feColorMatrix in="SourceAlpha" type="matrix" values="0 0 0 0 0 0 0 0 0 0 0 0 0 0 0 0 0 0 127 0" result="hardAlpha"/>
<feOffset dy="4"/>
<feGaussianBlur stdDeviation="15"/>
<feComposite in2="hardAlpha" operator="out"/>
<feColorMatrix type="matrix" values="0 0 0 0 0 0 0 0 0 0 0 0 0 0 0 0 0 0 0.1 0"/>
<feBlend mode="normal" in2="BackgroundImageFix" result="effect1_dropShadow_14812_31453"/>
<feBlend mode="normal" in="SourceGraphic" in2="effect1_dropShadow_14812_31453" result="shape"/>
</filter>
<filter id="filter22_ii_14812_31453" x="109.622" y="26.6157" width="11.5196" height="13.6978" filterUnits="userSpaceOnUse" color-interpolation-filters="sRGB">
<feFlood flood-opacity="0" result="BackgroundImageFix"/>
<feBlend mode="normal" in="SourceGraphic" in2="BackgroundImageFix" result="shape"/>
<feColorMatrix in="SourceAlpha" type="matrix" values="0 0 0 0 0 0 0 0 0 0 0 0 0 0 0 0 0 0 127 0" result="hardAlpha"/>
<feOffset/>
<feGaussianBlur stdDeviation="4"/>
<feComposite in2="hardAlpha" operator="arithmetic" k2="-1" k3="1"/>
<feColorMatrix type="matrix" values="0 0 0 0 0.835294 0 0 0 0 0.760784 0 0 0 0 0.905882 0 0 0 1 0"/>
<feBlend mode="normal" in2="shape" result="effect1_innerShadow_14812_31453"/>
<feColorMatrix in="SourceAlpha" type="matrix" values="0 0 0 0 0 0 0 0 0 0 0 0 0 0 0 0 0 0 127 0" result="hardAlpha"/>
<feOffset/>
<feGaussianBlur stdDeviation="1"/>
<feComposite in2="hardAlpha" operator="arithmetic" k2="-1" k3="1"/>
<feColorMatrix type="matrix" values="0 0 0 0 0.14902 0 0 0 0 0.4 0 0 0 0 0.960784 0 0 0 1 0"/>
<feBlend mode="normal" in2="effect1_innerShadow_14812_31453" result="effect2_innerShadow_14812_31453"/>
</filter>
<linearGradient id="paint0_linear_14812_31453" x1="26.8335" y1="2.22457" x2="26.8335" y2="0.161461" gradientUnits="userSpaceOnUse">
<stop offset="0.00344802" stop-color="#2565F4"/>
<stop offset="0.726852" stop-color="#A4BDF9"/>
</linearGradient>
<linearGradient id="paint1_linear_14812_31453" x1="26.6705" y1="2.23848" x2="26.6705" y2="0.16247" gradientUnits="userSpaceOnUse">
<stop offset="0.00344802" stop-color="#2565F4"/>
<stop offset="0.726852" stop-color="#A4BDF9"/>
</linearGradient>
<linearGradient id="paint2_linear_14812_31453" x1="30.4429" y1="0" x2="30.4429" y2="57.6756" gradientUnits="userSpaceOnUse">
<stop stop-color="#C7D6FA"/>
<stop offset="1" stop-color="#6793F7"/>
</linearGradient>
<linearGradient id="paint3_linear_14812_31453" x1="29.6201" y1="0" x2="29.6201" y2="56.1168" gradientUnits="userSpaceOnUse">
<stop offset="0.528997" stop-color="white"/>
<stop offset="1" stop-color="#E4E4E4"/>
</linearGradient>
<linearGradient id="paint4_linear_14812_31453" x1="91.1907" y1="31.916" x2="91.1907" y2="88.0328" gradientUnits="userSpaceOnUse">
<stop offset="0.528997" stop-color="white"/>
<stop offset="1" stop-color="#E4E4E4"/>
</linearGradient>
<linearGradient id="paint5_linear_14812_31453" x1="86.7627" y1="62.2378" x2="88.2888" y2="50.4905" gradientUnits="userSpaceOnUse">
<stop offset="0.00344802" stop-color="#A163D9"/>
<stop offset="0.300337" stop-color="#D5C2E7"/>
<stop offset="0.576392" stop-color="#EDE8F2"/>
<stop offset="1" stop-color="white"/>
</linearGradient>
<linearGradient id="paint6_linear_14812_31453" x1="92.3415" y1="75.873" x2="92.3415" y2="89.2791" gradientUnits="userSpaceOnUse">
<stop stop-color="#2565F4"/>
<stop offset="1" stop-color="#2565F4" stop-opacity="0.28"/>
</linearGradient>
<linearGradient id="paint7_linear_14812_31453" x1="92.3413" y1="81.4863" x2="92.3413" y2="86.1629" gradientUnits="userSpaceOnUse">
<stop stop-color="#2565F4"/>
<stop offset="1" stop-color="#2565F4" stop-opacity="0.28"/>
</linearGradient>
<linearGradient id="paint8_linear_14812_31453" x1="91.1368" y1="31.916" x2="91.1368" y2="88.0328" gradientUnits="userSpaceOnUse">
<stop offset="0.528997" stop-color="white"/>
<stop offset="1" stop-color="#E4E4E4"/>
</linearGradient>
<linearGradient id="paint9_linear_14812_31453" x1="92.5072" y1="87.2506" x2="92.4104" y2="71.0936" gradientUnits="userSpaceOnUse">
<stop stop-color="#2565F4"/>
<stop offset="0.529626" stop-color="#A163D9"/>
<stop offset="1" stop-color="white"/>
</linearGradient>
<linearGradient id="paint10_linear_14812_31453" x1="86.7647" y1="62.1245" x2="88.2908" y2="50.3772" gradientUnits="userSpaceOnUse">
<stop offset="0.00344802" stop-color="#A163D9"/>
<stop offset="0.300337" stop-color="#D5C2E7"/>
<stop offset="0.576392" stop-color="#EDE8F2"/>
<stop offset="1" stop-color="white"/>
</linearGradient>
<linearGradient id="paint11_linear_14812_31453" x1="30.4429" y1="0" x2="30.4429" y2="57.6756" gradientUnits="userSpaceOnUse">
<stop stop-color="#C7D6FA"/>
<stop offset="1" stop-color="#6793F7"/>
</linearGradient>
<linearGradient id="paint12_linear_14812_31453" x1="29.6201" y1="0" x2="29.6201" y2="56.1168" gradientUnits="userSpaceOnUse">
<stop offset="0.528997" stop-color="white"/>
<stop offset="1" stop-color="#E4E4E4"/>
</linearGradient>
<linearGradient id="paint13_linear_14812_31453" x1="91.1889" y1="115.459" x2="91.1889" y2="171.576" gradientUnits="userSpaceOnUse">
<stop offset="0.528997" stop-color="white"/>
<stop offset="1" stop-color="#E4E4E4"/>
</linearGradient>
<linearGradient id="paint14_linear_14812_31453" x1="92.5039" y1="170.376" x2="92.4071" y2="154.738" gradientUnits="userSpaceOnUse">
<stop offset="0.00344802" stop-color="#2565F4"/>
<stop offset="0.501157" stop-color="#A163D9"/>
<stop offset="1" stop-color="white"/>
</linearGradient>
<linearGradient id="paint15_linear_14812_31453" x1="86.7614" y1="145.769" x2="88.2875" y2="134.022" gradientUnits="userSpaceOnUse">
<stop offset="0.00344802" stop-color="#A163D9"/>
<stop offset="0.300337" stop-color="#D5C2E7"/>
<stop offset="0.576392" stop-color="#EDE8F2"/>
<stop offset="1" stop-color="white"/>
</linearGradient>
<linearGradient id="paint16_linear_14812_31453" x1="30.4429" y1="0" x2="30.4429" y2="57.6756" gradientUnits="userSpaceOnUse">
<stop stop-color="#C7D6FA"/>
<stop offset="1" stop-color="#6793F7"/>
</linearGradient>
<linearGradient id="paint17_linear_14812_31453" x1="29.6201" y1="0" x2="29.6201" y2="56.1168" gradientUnits="userSpaceOnUse">
<stop offset="0.528997" stop-color="white"/>
<stop offset="1" stop-color="#E4E4E4"/>
</linearGradient>
<linearGradient id="paint18_linear_14812_31453" x1="31.6201" y1="73.6855" x2="31.6201" y2="129.802" gradientUnits="userSpaceOnUse">
<stop offset="0.528997" stop-color="white"/>
<stop offset="1" stop-color="#E4E4E4"/>
</linearGradient>
<linearGradient id="paint19_linear_14812_31453" x1="32.8296" y1="139.093" x2="32.8296" y2="112.965" gradientUnits="userSpaceOnUse">
<stop offset="0.00344802" stop-color="#2565F4"/>
<stop offset="0.300337" stop-color="#A4BDF9"/>
<stop offset="0.576392" stop-color="#E6ECFD"/>
<stop offset="1" stop-color="white"/>
</linearGradient>
<linearGradient id="paint20_linear_14812_31453" x1="32.8306" y1="139.093" x2="32.8306" y2="113.063" gradientUnits="userSpaceOnUse">
<stop offset="0.54456" stop-color="#2565F4"/>
<stop offset="1" stop-color="#A4BDF9"/>
</linearGradient>
<linearGradient id="paint21_linear_14812_31453" x1="27.195" y1="103.996" x2="28.7211" y2="92.2483" gradientUnits="userSpaceOnUse">
<stop offset="0.00344802" stop-color="#A163D9"/>
<stop offset="0.300337" stop-color="#D5C2E7"/>
<stop offset="0.576392" stop-color="#EDE8F2"/>
<stop offset="1" stop-color="white"/>
</linearGradient>
<radialGradient id="paint22_radial_14812_31453" cx="0" cy="0" r="1" gradientUnits="userSpaceOnUse" gradientTransform="translate(115.544 34.25) rotate(-90) scale(17.9262 20.5695)">
<stop offset="0.529287" stop-color="white"/>
<stop offset="1" stop-color="#A4BDF9"/>
</radialGradient>
<radialGradient id="paint23_radial_14812_31453" cx="0" cy="0" r="1" gradientUnits="userSpaceOnUse" gradientTransform="translate(107.646 51.4784) rotate(90) scale(3.89711 4.11414)">
<stop offset="0.529287" stop-color="white"/>
<stop offset="1" stop-color="#A4BDF9"/>
</radialGradient>
<linearGradient id="paint24_linear_14812_31453" x1="88.7289" y1="149.078" x2="67.1483" y2="166.838" gradientUnits="userSpaceOnUse">
<stop stop-color="#2666F5"/>
<stop offset="1" stop-color="#406ADC"/>
</linearGradient>
<linearGradient id="paint25_linear_14812_31453" x1="88.4059" y1="148.721" x2="66.6799" y2="166.603" gradientUnits="userSpaceOnUse">
<stop offset="0.485531" stop-color="#E1E9FC"/>
<stop offset="0.964721" stop-color="white"/>
</linearGradient>
<linearGradient id="paint26_linear_14812_31453" x1="91.6217" y1="122.168" x2="91.669" y2="134.023" gradientUnits="userSpaceOnUse">
<stop stop-color="#C7D6FA"/>
<stop offset="1" stop-color="#A4BDF9"/>
</linearGradient>
<linearGradient id="paint27_linear_14812_31453" x1="99.3624" y1="168.567" x2="111.636" y2="151.794" gradientUnits="userSpaceOnUse">
<stop stop-color="white"/>
<stop offset="1" stop-color="#A4BDF9"/>
</linearGradient>
<linearGradient id="paint28_linear_14812_31453" x1="32.8511" y1="126.487" x2="32.8511" y2="111.927" gradientUnits="userSpaceOnUse">
<stop stop-color="#004BB7"/>
<stop offset="0.528935" stop-color="#2565F4"/>
<stop offset="1" stop-color="#A4BDF9"/>
</linearGradient>
<linearGradient id="paint29_linear_14812_31453" x1="115.383" y1="43.0948" x2="115.383" y2="40.2957" gradientUnits="userSpaceOnUse">
<stop offset="0.00344802" stop-color="#2565F4"/>
<stop offset="1" stop-color="#A4BDF9"/>
</linearGradient>
<linearGradient id="paint30_linear_14812_31453" x1="115.382" y1="40.3136" x2="115.382" y2="27.6099" gradientUnits="userSpaceOnUse">
<stop offset="0.38136" stop-color="#E6ECFD"/>
<stop offset="0.777212" stop-color="white"/>
</linearGradient>
<linearGradient id="paint31_linear_14812_31453" x1="115.382" y1="41.7049" x2="115.382" y2="37.8292" gradientUnits="userSpaceOnUse">
<stop offset="0.549768" stop-color="#2565F4"/>
<stop offset="1" stop-color="#A4BDF9"/>
</linearGradient>
<linearGradient id="paint32_linear_14812_31453" x1="115.381" y1="41.701" x2="115.381" y2="37.8253" gradientUnits="userSpaceOnUse">
<stop offset="0.00344802" stop-color="#2565F4"/>
<stop offset="0.820602" stop-color="#A4BDF9"/>
</linearGradient>
</defs>
</svg>
